<svg width="129" height="36" viewBox="0 0 129 36" fill="none" xmlns="http://www.w3.org/2000/svg">
<path d="M29.5449 7.42454H26.3073V3.3576H3.68909V32.8684H26.2395V28.0198H29.5561V31.9168C29.5561 32.5059 29.5335 33.1063 29.5561 33.6954C29.5786 34.2958 29.4546 34.8283 29.0146 35.2587C28.3152 35.9271 27.063 35.9271 26.8374 35.9271C18.8393 35.9271 10.8411 35.9271 2.84302 35.9271C2.42563 35.9271 2.01951 35.8818 1.56828 35.7119C0.451475 35.2814 0.113063 34.4771 0.101782 33.4575C0.0679396 29.991 0.0904903 26.5244 0.0904903 23.0466C0.0904903 16.2495 0.0904903 9.44102 0.0904903 2.6439C0.0904903 2.00951 0.30484 0.944625 1.44421 0.389528C2.1549 0.0383433 3.07996 0.015686 4.93002 0.015686C11.9693 0.015686 19.0198 0.0383431 26.059 0.0496716C26.7923 0.0496716 27.7173 0.0496717 28.4393 0.196943C29.2289 0.36687 29.5561 1.1712 29.5561 2.03216C29.5786 3.81074 29.5561 5.57799 29.5561 7.43587L29.5449 7.42454Z" fill="white"/>
<path d="M9.12646 9.33908C11.9354 9.33908 14.7105 9.29376 17.4743 9.36173C21.9077 9.61096 22.201 12.7943 22.201 13.5306C22.1672 16.4534 22.1897 19.3762 22.1784 22.2989C22.1784 23.8736 21.0616 25.2557 19.55 25.8108C19.031 26.0033 18.5347 26.06 18.0158 26.06C15.0715 26.06 12.1159 26.06 9.12646 26.06V9.33908ZM12.3754 23.3185C13.8531 23.3185 15.2182 23.3864 16.5719 23.2958C18.4106 23.1712 18.9408 22.2083 18.9182 20.9621C18.8731 18.8664 18.9069 16.7706 18.9069 14.6748C18.9069 14.4936 18.9183 13.3607 18.3994 12.8509C18.0384 12.4997 17.542 12.3298 16.9893 12.3411C15.4551 12.3751 13.9321 12.3525 12.3866 12.3525V23.3185H12.3754Z" fill="white"/>
<path d="M33.6398 15.6717C33.6398 13.8931 33.6398 12.0466 33.6398 10.3586C33.6398 9.47501 34.9257 9.37305 35.7605 9.36172C38.5356 9.32773 41.3108 9.30508 44.0746 9.38438C44.8304 9.40703 45.9021 9.54298 46.1841 10.5739C46.2405 10.7778 46.1841 13.5306 46.1841 14.7994H42.6645V12.4091H36.9676V14.2896C37.7234 14.7768 45.4733 18.7191 45.9359 19.1722C46.0938 19.3308 46.184 19.5461 46.1953 19.7613C46.1953 21.1207 46.1953 22.4915 46.1953 23.9529C46.1953 24.6212 45.5636 26.0486 44.4581 26.0486C41.4348 26.0486 35.7042 26.1166 34.9709 26.0713C34.2038 26.026 33.6623 25.4596 33.651 24.6779C33.6284 23.2618 33.651 21.8571 33.651 20.3844H36.9112V22.9786H42.608C42.6193 22.6048 42.6532 21.1434 42.6532 20.7242C40.2729 19.5461 35.3206 17.0425 33.9669 16.2608C33.7638 16.1475 33.6398 15.9323 33.6398 15.6944V15.6717Z" fill="white"/>
<path d="M63.1166 19.8859C63.1166 21.166 63.1166 22.5708 63.1166 23.8056C63.1166 25.0517 62.8459 26.06 61.6727 26.06C58.1644 26.06 55.1073 26.06 51.5651 26.06C50.5385 26.06 50.0196 25.5275 50.0196 24.474C50.0196 20.0898 50.0196 15.7057 50.0083 11.3215C50.0083 10.7664 50.1212 10.234 50.4821 9.88282C51.0462 9.33905 52.1066 9.33905 52.2983 9.33905C55.1637 9.33905 58.029 9.33905 60.8944 9.33905C61.8645 9.33905 62.5301 9.72422 62.9475 10.6418C63.0941 10.959 63.1054 11.2309 63.1166 11.5368C63.1279 12.7716 63.1166 15.3772 63.1166 15.3772H59.6083V12.4317H53.3249V22.922H59.5632V19.8972H63.1166V19.8859Z" fill="white"/>
<path d="M29.4996 26.0373H26.5892V9.65624C27.0179 9.64491 27.4917 9.62225 27.9768 9.62225C28.4731 9.62225 28.9694 9.62225 29.4996 9.62225V26.0373Z" fill="white"/>
<path d="M78.2443 9.32776H68.994C67.8546 9.32776 66.9296 10.2567 66.9296 11.4009V23.9982C66.9296 25.1424 67.8546 26.0713 68.994 26.0713H78.2443C79.3837 26.0713 80.3087 25.1424 80.3087 23.9982V11.4009C80.3087 10.2567 79.3837 9.32776 78.2443 9.32776ZM76.8906 22.9446H70.359V12.4544H76.8906V22.9446Z" fill="white"/>
<path d="M94.0488 9.41833L90.1456 21.268L86.2424 9.41833H83.0725L88.5663 26.0486H91.725L97.2187 9.41833H94.0488Z" fill="white"/>
<path d="M111.557 12.4091V9.6676H100.445V9.69026H100.276V26.2299H100.445V26.2526H111.557V23.5111H103.547V19.2062H110.056V16.4647H103.547V12.4091H111.557Z" fill="white"/>
<path d="M123.92 19.7726H126.357C127.056 19.7726 127.632 19.1949 127.632 18.4925V10.9477C127.632 10.2454 127.056 9.6676 126.357 9.6676L115.031 9.69026V26.2299H118.303V12.4091H124.349V17.2351H119.555V18.7644L124.936 26.2639H128.072C128.32 26.2639 128.455 25.992 128.309 25.7881L123.909 19.7726H123.92Z" fill="white"/>
</svg>
