<svg width="109" height="28" viewBox="0 0 109 28" fill="none" xmlns="http://www.w3.org/2000/svg">
<path d="M66.3766 8.08625C64.628 8.08625 63.263 8.46009 61.8867 9.20777C61.8867 5.19748 61.8867 1.57235 62.0108 0.31488L53.6517 1.82157V2.56926L54.5204 2.69387C55.6372 2.9431 56.0207 3.56617 56.2689 5.07286C56.5171 8.07492 56.393 24.1048 56.2689 26.733C58.5138 27.2315 60.8828 27.6053 63.2518 27.6053C69.8623 27.6053 73.8445 23.4704 73.8445 16.9565C73.8445 11.8247 70.6069 8.06359 66.3653 8.06359L66.3766 8.08625ZM63.5112 26.2459C63.0148 26.2459 62.3831 26.2459 62.0108 26.1213C61.8867 24.3653 61.7627 16.9791 61.8867 10.4652C62.6313 10.216 63.1277 10.0914 63.7594 10.0914C66.5007 10.0914 68.001 13.3427 68.001 17.353C68.001 22.3602 66.1283 26.2459 63.5112 26.2459ZM22.2458 0.824664H0.304565V1.94619L1.55676 2.0708C3.1812 2.32003 3.80164 3.31694 4.04982 5.69593C4.42209 10.2047 4.298 18.3386 4.04982 22.2243C3.80164 24.6032 3.1812 25.7361 1.55676 25.8494L0.304565 26.0986V27.0955H14.3944V26.0986L12.894 25.8494C11.2696 25.7248 10.6491 24.6032 10.4009 22.2243C10.2769 20.5929 10.1528 17.9647 10.1528 14.7134L13.1422 14.8381C15.0148 14.8381 15.8834 16.3447 16.2557 18.4632H17.3838V9.58162H16.2557C15.8834 11.7114 15.0148 13.2067 13.1422 13.2067L10.1528 13.3314C10.1528 9.07183 10.2769 5.07286 10.4009 2.69387H14.7666C18.1396 2.69387 19.8769 4.82363 21.129 8.57338L22.3812 8.19953L22.2571 0.813336L22.2458 0.824664Z" fill="white"/>
<path d="M29.3415 7.83704C35.5798 7.83704 38.6933 12.0966 38.6933 17.7268C38.6933 23.3571 35.2075 27.6166 28.9692 27.6166C22.7309 27.6166 19.6174 23.3571 19.6174 17.7268C19.6174 12.0966 23.1032 7.83704 29.3415 7.83704ZM28.9692 9.09451C26.228 9.09451 25.4835 12.8556 25.4835 17.7382C25.4835 22.6208 26.7356 26.3818 29.2287 26.3818C32.094 26.3818 32.8386 22.6208 32.8386 17.7382C32.8386 12.8556 31.5977 9.09451 28.9692 9.09451ZM75.4802 17.8628C75.4802 12.731 78.7178 7.84837 85.0802 7.84837C90.3145 7.84837 92.8076 11.7341 92.8076 16.8659H81.2109C81.0868 21.4992 83.3317 24.8751 87.8214 24.8751C89.8181 24.8751 90.8109 24.3767 92.063 23.4931L92.5594 24.1161C91.3072 25.8721 88.566 27.628 85.0802 27.628C79.4736 27.628 75.4802 23.6177 75.4802 17.8628ZM81.2109 15.4838L87.0656 15.3592C87.0656 12.8556 86.6933 9.09451 84.5725 9.09451C82.4517 9.09451 81.335 12.595 81.2109 15.4838ZM107.642 8.84528C106.142 8.22221 104.156 7.84837 101.911 7.84837C97.2974 7.84837 94.4321 10.6012 94.4321 13.8638C94.4321 17.1264 96.5528 18.4972 99.5423 19.4941C102.656 20.6156 103.536 21.4992 103.536 22.9946C103.536 24.49 102.408 25.8721 100.422 25.8721C98.0532 25.8721 96.3046 24.49 94.9397 20.7402L94.0711 20.9895L94.1951 26.4951C95.6955 27.1182 98.4367 27.628 100.806 27.628C105.668 27.628 108.781 25.1244 108.781 21.2387C108.781 18.6105 107.405 17.1038 104.167 15.8576C100.67 14.4756 99.4295 13.6033 99.4295 11.972C99.4295 10.3406 100.558 9.21912 102.047 9.21912C104.292 9.21912 105.781 10.6012 106.909 13.9771L107.777 13.7279L107.653 8.84528H107.642ZM54.9039 8.34682C52.7831 7.10069 49.0492 7.72375 47.0524 12.2325L47.1766 7.84837L38.8287 9.47968V10.2274L39.6973 10.352C40.8254 10.4766 41.3218 11.0997 41.4459 12.731C41.694 15.733 41.5699 21.0008 41.4459 23.629C41.3218 25.1357 40.8254 25.8834 39.6973 26.008L38.8287 26.1326V27.1295H50.4254V26.1326L48.9251 26.008C47.6842 25.8834 47.3006 25.1357 47.1766 23.629C46.9284 21.25 46.9284 16.492 47.0524 13.49C47.6729 12.6177 50.4142 11.8587 52.9072 13.49L54.9039 8.35815V8.34682Z" fill="white"/>
</svg>
