<svg width="157" height="26" viewBox="0 0 157 26" fill="none" xmlns="http://www.w3.org/2000/svg">
<path d="M20.6681 24.5888H13.2002V12.9091C13.2002 11.6856 12.3202 10.8926 11.2486 10.8926C10.1769 10.8926 9.01496 11.697 9.01496 12.9091V24.5888H2.30285V5.98738L0.148205 4.46936C2.61871 3.66504 6.75879 1.88646 9.01496 0.651649V10.4168C9.89486 9.31797 12.1059 7.91323 14.8697 7.91323C18.3781 7.91323 19.9123 10.2129 19.9123 12.9544V22.8329C19.9123 23.0935 20.1492 23.6939 20.6681 24.5775V24.5888ZM97.6599 24.5888H90.192V12.9091C90.192 11.6856 89.3121 10.8926 88.2404 10.8926C87.1687 10.8926 85.9729 11.697 85.9729 12.9091V24.5888H79.2608V5.98738L77.1062 4.46936C79.5767 3.66504 83.7168 1.88646 85.9729 0.651649V10.4168C86.8528 9.31797 89.0639 7.91323 91.8277 7.91323C95.336 7.91323 96.8477 10.2129 96.8477 12.9544V22.8329C96.8702 23.0935 97.1297 23.6939 97.6486 24.5775L97.6599 24.5888ZM37.0028 21.8247V23.0028C35.525 24.2603 33.878 25.3025 30.3471 25.3025C24.7856 25.3025 21.3788 21.6208 21.3788 17.078C21.3788 11.6743 24.8871 7.95855 30.0086 7.95855C35.1301 7.95855 37.0028 11.3798 37.0028 15.7186H27.7186C28.1134 20.7031 30.9449 22.9575 33.4944 22.9575C34.7466 22.9575 36.1228 22.5384 37.0028 21.836V21.8247ZM29.6702 14.7217C31.148 14.7217 31.3398 14.3025 31.3398 13.079C31.3398 12.1388 31.1593 9.81643 29.6702 9.81643C28.1811 9.81643 28.0006 12.1388 28.0006 13.079C28.0006 14.3025 28.1811 14.7217 29.6702 14.7217ZM156.208 21.802V22.9802C154.73 24.2376 153.083 25.2799 149.552 25.2799C143.99 25.2799 140.584 21.5981 140.584 17.0554C140.584 11.6516 144.092 7.93589 149.213 7.93589C154.335 7.93589 156.208 11.3571 156.208 15.6959H146.923C147.318 20.6805 150.15 22.9349 152.699 22.9349C153.951 22.9575 155.35 22.5384 156.208 21.8133V21.802ZM148.898 14.7217C150.375 14.7217 150.567 14.3025 150.567 13.079C150.567 12.1388 150.387 9.81643 148.898 9.81643C147.408 9.81643 147.228 12.1388 147.228 13.079C147.228 14.3025 147.386 14.7217 148.898 14.7217ZM55.9433 21.6661L56.6766 21.8247C56.3381 23.1841 55.3454 25.2685 52.1755 25.2685C49.5245 25.2685 48.7687 23.6486 48.2272 21.9493C47.7534 23.5126 45.9372 25.2685 42.474 25.2685C39.383 25.2685 37.6909 23.9091 37.6909 21.3489C37.6909 18.5054 40.4998 16.4436 47.4939 14.3705V11.3684C47.4939 9.82775 46.6592 9.28399 45.7229 9.28399C44.8881 9.28399 43.5682 10.1676 43.5682 11.561C43.5682 12.2181 43.7036 12.7392 43.7713 13.3849C43.7713 14.2459 42.7785 15.526 41.2782 15.526C39.6086 15.526 38.8077 14.3252 38.8077 12.9431C38.8077 10.6661 40.9398 7.90191 46.5351 7.90191C52.1304 7.90191 54.1835 10.9266 54.1835 13.8267V21.5075C54.1835 21.9833 54.364 22.4477 54.8829 22.4477C55.4018 22.5044 55.7177 22.2438 55.9546 21.6661H55.9433ZM47.5391 21.0883V15.3674C45.1927 16.3077 44.3692 18.63 44.3692 20.4086C44.3692 21.8473 44.8091 22.493 45.9034 22.493C46.8622 22.5157 47.5391 21.9153 47.5391 21.077V21.0883ZM65.532 24.5888H57.8385V5.98738L55.7854 4.46936C58.1318 3.66504 62.4411 1.88646 64.607 0.651649V22.7989C64.5844 23.0595 64.889 23.6599 65.5433 24.5775L65.532 24.5888ZM107.768 24.5888H100.074V5.98738L98.0209 4.46936C100.367 3.66504 104.677 1.88646 106.843 0.651649V22.7989C106.82 23.0595 107.158 23.6599 107.779 24.5775L107.768 24.5888ZM77.1062 22.6516V23.8298C75.9894 24.7701 74.1168 25.2912 72.1088 25.2912C68.8035 25.2912 67.6303 22.8669 67.6303 20.8278V9.8844H66.0397L74.4439 2.62281V8.60427H77.0949V9.8844H74.4439V21.7454C74.4439 22.6856 75.0192 23.1274 75.6961 23.1274C76.0909 23.1048 76.8129 22.9235 77.1062 22.6516ZM114.198 7.68666C112.302 7.68666 110.768 6.12333 110.768 4.16349C110.768 2.20366 112.28 0.64032 114.198 0.64032C116.115 0.64032 117.627 2.20366 117.627 4.16349C117.627 6.12333 116.093 7.68666 114.198 7.68666ZM118.699 24.5888H110.813V12.8638L108.659 11.3458C111.129 10.5415 115.292 8.76287 117.559 7.52806V22.7763C117.559 23.0935 117.954 23.6939 118.699 24.5775V24.5888ZM140.053 24.5888H132.36V12.8638C132.36 11.6403 131.48 10.8473 130.408 10.8473C129.337 10.8473 128.175 11.6516 128.175 12.8638V24.5888H121.463V12.8638L119.308 11.3458C121.778 10.5415 125.727 8.76287 127.994 7.52806V10.7454C129.111 9.28399 131.243 7.84526 134.029 7.84526C137.538 7.84526 139.049 10.145 139.049 12.8865V22.7876C139.072 23.0708 139.41 23.6712 140.065 24.5888H140.053Z" fill="white"/>
</svg>
