<svg width="102" height="30" viewBox="0 0 102 30" fill="none" xmlns="http://www.w3.org/2000/svg">
<path d="M67.2084 0.83905H62.1884V28.5939H67.2084V0.83905Z" fill="white"/>
<path fill-rule="evenodd" clip-rule="evenodd" d="M82.4939 28.2428C81.5011 28.56 79.7527 28.8658 78.4554 28.8658C74.1122 28.8658 72.2735 26.872 72.2735 22.8504V11.8844H68.8553V7.74945H72.2735V0.83905H77.2934V7.74945H82.3472V11.8844H77.2934V21.8421C77.2934 23.5981 77.9027 24.4024 79.4933 24.4024C80.4747 24.4024 81.7042 24.1532 82.4939 23.8473V28.2428Z" fill="white"/>
<path fill-rule="evenodd" clip-rule="evenodd" d="M5.82916 11.9184H16.0158V0.83905H21.4757V28.5939H16.0158V17.0275H5.82916V28.5939H0.369263V0.83905H5.82916V11.9184Z" fill="white"/>
<path fill-rule="evenodd" clip-rule="evenodd" d="M41.5557 17.5373C41.5557 12.111 39.1867 7.23969 32.6777 7.23969C26.5522 7.23969 23.3258 11.9637 23.3258 18.1717C23.3258 24.7989 26.9356 29.1037 33.4334 29.1037C36.0618 29.1037 39.0626 28.6279 40.8337 27.7103V23.2016C39.0965 24.1305 36.5807 24.8102 34.2569 24.8102C30.9742 24.8102 28.9098 23.2582 28.5037 19.7011H41.488C41.5444 18.9874 41.5669 18.2397 41.5669 17.5486M28.4698 16.1439C28.8195 12.6887 30.3538 11.3293 32.7679 11.3293C35.182 11.3293 36.6034 13.3004 36.5808 16.1439H28.4698Z" fill="white"/>
<path fill-rule="evenodd" clip-rule="evenodd" d="M51.4715 7.23966C48.7077 7.23966 46.3952 7.70413 44.5902 8.49713V13.0285C46.4065 12.1109 48.6627 11.6125 50.8286 11.6125C54.1339 11.6125 54.8445 13.3231 54.8558 16.0986C53.6713 15.7587 52.2048 15.5548 50.7608 15.5548C46.1695 15.5548 42.774 18.0357 42.774 22.4879C42.774 26.5321 45.4024 29.0924 49.4974 29.0924C51.8664 29.0924 53.6826 28.3107 55.025 26.7021V28.5826H59.8983V15.2036C59.8983 10.389 57.3263 7.22833 51.4715 7.22833M50.7045 25.2633C48.7981 25.2633 47.636 24.2778 47.636 22.2953C47.636 20.3128 48.7529 19.0327 51.6182 19.0327C52.7463 19.0327 53.8969 19.2139 54.8671 19.4858V20.5394C54.8671 23.4734 52.972 25.252 50.7045 25.252" fill="white"/>
<path fill-rule="evenodd" clip-rule="evenodd" d="M95.106 7.23967C92.7821 7.23967 90.7741 8.21392 89.5445 9.66397V0.83905H84.502V28.5939H89.5445V17.0842C89.5445 13.7083 90.8418 11.7031 93.5266 11.7031C95.7038 11.7031 96.7981 13.1758 96.7981 16.0533V28.6053H101.841V15.079C101.841 10.7062 100.16 7.251 95.106 7.251" fill="white"/>
<path d="M100.464 2.30045C100.464 2.49304 100.352 2.61765 100.137 2.61765H99.5505V1.98326H100.148C100.352 1.98326 100.464 2.10787 100.464 2.30045ZM100.306 2.84422C100.566 2.79891 100.758 2.56101 100.758 2.28913C100.758 1.94927 100.555 1.7227 100.137 1.7227H99.2685V3.64855H99.5505V2.86688H100.013L100.487 3.64855H100.791L100.306 2.84422ZM101.626 2.70828C101.626 3.63722 100.972 4.3849 99.9905 4.3849C99.0091 4.3849 98.3436 3.63722 98.3436 2.70828C98.3436 1.77934 98.9865 1.04299 99.9792 1.04299C100.972 1.04299 101.637 1.79067 101.637 2.71961M101.852 2.71961C101.852 1.67738 101.073 0.850403 99.9792 0.850403C98.885 0.850403 98.1292 1.67738 98.1292 2.71961C98.1292 3.76183 98.9188 4.60015 100.002 4.60015C101.085 4.60015 101.852 3.77316 101.852 2.73094" fill="white"/>
</svg>
