<svg width="131" height="34" viewBox="0 0 131 34" fill="none" xmlns="http://www.w3.org/2000/svg">
<path d="M0.20752 33.4601V0.414795H0.410567C11.4884 0.414795 22.5549 0.414795 33.6327 0.414795C33.847 0.414795 33.9034 0.471438 33.9034 0.68668C33.9034 11.5394 33.9034 22.3808 33.9034 33.2335C33.9034 33.3015 33.9034 33.3808 33.9034 33.4601H0.20752ZM31.0832 31.8288C31.0719 31.6929 31.0607 31.5682 31.0381 31.4436C30.993 31.0358 30.9591 30.6393 30.914 30.2315C30.8576 29.7217 30.7786 29.2232 30.7222 28.7135C30.6658 28.2037 30.6207 27.6826 30.553 27.1728C30.4628 26.4704 30.3612 25.7794 30.2823 25.077C30.2033 24.4539 30.1469 23.8309 30.0792 23.2078C30.0115 22.5734 29.9213 21.9503 29.8423 21.3159C29.7859 20.8515 29.7408 20.3757 29.6731 19.9112C29.5941 19.3334 29.5152 18.7444 29.4475 18.1666C29.3911 17.6681 29.346 17.1697 29.2783 16.6599C29.188 15.9122 29.0978 15.1532 29.0075 14.4055C28.9399 13.8391 28.8722 13.2727 28.8045 12.7062C28.7142 12.0039 28.624 11.2902 28.5337 10.5878C28.4661 10.0101 28.3984 9.4323 28.3307 8.85455C28.263 8.28812 28.1728 7.7217 28.0938 7.14394C28.0035 6.43024 27.9359 5.71655 27.8456 5.00285C27.7441 4.16454 27.6313 3.3149 27.5298 2.47659C27.4846 2.11407 27.4959 2.11407 27.1236 2.11407C24.8336 2.11407 22.5436 2.11407 20.2536 2.11407H20.0505C18.4599 12.0265 16.8693 21.9277 15.2787 31.8288C16.7227 31.8288 18.1892 31.8288 19.6444 31.8288C19.6896 31.8288 19.7798 31.7495 19.7911 31.6929C19.8588 31.3757 19.9039 31.0698 19.9603 30.7526C20.0505 30.1975 20.1408 29.6311 20.231 29.076C20.3213 28.5209 20.4003 27.9658 20.4792 27.4107C20.5695 26.8329 20.6484 26.2552 20.7274 25.6661H20.9192C22.2729 25.6661 23.6379 25.6661 24.9916 25.6661C25.1721 25.6661 25.2172 25.7454 25.2397 25.904C25.2848 26.4478 25.3413 26.9915 25.3977 27.524C25.4879 28.2716 25.5894 29.008 25.6684 29.7557C25.7474 30.4467 25.8038 31.1378 25.8715 31.8288H31.0719H31.0832ZM2.53137 2.11407V31.8175H14.6019V27.3654H8.09283V2.1254H2.52008L2.53137 2.11407Z" fill="white"/>
<path d="M53.5998 18.767C54.412 12.661 55.2242 6.55488 56.0365 0.426147H60.075C58.5972 11.4488 57.1194 22.4488 55.6303 33.4715C55.5514 33.4715 55.4837 33.4715 55.4047 33.4715C53.9721 33.4715 52.5507 33.4715 51.118 33.4715C50.9601 33.4715 50.8698 33.4715 50.8585 33.2562C50.8134 32.7578 50.7345 32.2706 50.6668 31.7835C50.5878 31.2284 50.5201 30.6733 50.4412 30.1182C50.3735 29.5858 50.2945 29.042 50.2268 28.5096C50.1479 27.9431 50.0689 27.3654 50.0012 26.799C49.9335 26.2665 49.8658 25.7227 49.7981 25.1903C49.7079 24.5446 49.6177 23.8989 49.5274 23.2531C49.4597 22.7207 49.392 22.1769 49.3243 21.6445C49.2567 21.0894 49.1664 20.5456 49.0987 20.0018C49.031 19.4581 48.9634 18.9143 48.8957 18.3705C48.8054 17.7248 48.7152 17.0791 48.6362 16.4334C48.5685 15.9236 48.5008 15.4138 48.4219 14.904C48.3429 14.3602 48.2639 13.8165 48.1963 13.2727C48.1624 13.0235 48.1399 12.7856 48.0722 12.525C48.0383 12.8082 47.9932 13.0914 47.9594 13.3747C47.8804 13.9411 47.8127 14.4962 47.7337 15.0626C47.6661 15.5837 47.5984 16.0935 47.5194 16.6146C47.4404 17.1584 47.3615 17.7135 47.2938 18.2572C47.2261 18.7897 47.1584 19.3335 47.0907 19.8659C47.0231 20.3983 46.9328 20.9421 46.8651 21.4746C46.7862 22.0296 46.7298 22.5847 46.6621 23.1512C46.6057 23.5703 46.5493 23.9782 46.4929 24.3973C46.4252 24.8731 46.3688 25.3602 46.3124 25.836C46.2334 26.4025 46.1657 26.9576 46.0867 27.524C46.0303 27.9885 45.9739 28.4416 45.9175 28.9061C45.8386 29.4725 45.7596 30.0389 45.6806 30.6167C45.6017 31.2397 45.5227 31.8741 45.4325 32.4972C45.3986 32.7804 45.3648 33.0523 45.3084 33.3242C45.2971 33.3922 45.1843 33.4715 45.1166 33.4715C43.5711 33.4715 42.0256 33.4715 40.4802 33.4828C40.3109 33.4828 40.2658 33.4035 40.2545 33.2789C40.1981 32.8144 40.1417 32.3613 40.0853 31.8968C40.0176 31.319 39.9274 30.73 39.8597 30.1522C39.792 29.6084 39.7244 29.0647 39.6567 28.5209C39.589 27.9658 39.51 27.4107 39.431 26.8556C39.3633 26.3345 39.2957 25.802 39.2167 25.2809C39.1377 24.7372 39.0588 24.1934 38.9911 23.6496C38.9347 23.1965 38.8896 22.7433 38.8219 22.2902C38.7429 21.7351 38.6639 21.18 38.585 20.6249C38.506 20.0018 38.427 19.3674 38.3368 18.7444C38.2691 18.2346 38.1789 17.7248 38.1112 17.215C38.0322 16.6939 37.9758 16.1615 37.8968 15.6404C37.8066 15.0173 37.7164 14.4056 37.6261 13.7825C37.5697 13.3407 37.5246 12.8875 37.4569 12.4457C37.3666 11.8113 37.2764 11.1769 37.1862 10.5425C37.0846 9.8175 37.0057 9.09247 36.9041 8.36744C36.8026 7.64242 36.6898 6.91739 36.5883 6.19237C36.498 5.5693 36.4303 4.9349 36.3401 4.31183C36.216 3.45086 36.0806 2.57857 35.9565 1.7176C35.9001 1.29844 35.8437 0.86796 35.7873 0.426147C35.8776 0.426147 35.9453 0.426147 36.0017 0.426147C37.581 0.426147 39.1603 0.426147 40.7396 0.426147C40.9088 0.426147 40.9652 0.48279 40.9878 0.64139C41.1119 1.50236 41.2585 2.36333 41.3826 3.23562C41.4729 3.90401 41.5406 4.57239 41.6308 5.24077C41.7436 6.11307 41.8677 6.98536 41.9805 7.85766C42.082 8.628 42.161 9.39834 42.2625 10.1687C42.3528 10.8597 42.4769 11.5621 42.5671 12.2531C42.6574 12.8875 42.725 13.5219 42.8153 14.1563C42.9168 14.904 43.0296 15.6404 43.1312 16.388C43.1988 16.8978 43.2665 17.4076 43.3342 17.9174C43.4019 18.4725 43.4809 19.0276 43.5824 19.594C43.6162 19.3788 43.6614 19.1635 43.6952 18.9483C43.808 18.2119 43.9095 17.4756 44.0111 16.7392C44.1013 16.0935 44.169 15.4591 44.2592 14.8134C44.3608 14.077 44.4736 13.3407 44.5751 12.6043C44.6541 12.0605 44.7105 11.5168 44.7782 10.973C44.8459 10.4519 44.9248 9.93078 45.0038 9.39834C45.0827 8.8659 45.1504 8.32213 45.2181 7.78969C45.2971 7.22326 45.376 6.65684 45.4437 6.07908C45.5114 5.54664 45.5791 5.00287 45.6468 4.47043C45.737 3.81338 45.8273 3.15632 45.9175 2.48794C45.9852 2.00081 46.0303 1.51369 46.0867 1.02656C46.1093 0.86796 46.098 0.70936 46.1319 0.56209C46.1431 0.505447 46.2334 0.426147 46.2898 0.426147C47.8691 0.426147 49.4484 0.426147 51.0278 0.426147C51.0842 0.426147 51.1857 0.505447 51.1857 0.56209C51.2872 1.27579 51.3775 2.00081 51.4677 2.71451C51.5692 3.47352 51.6821 4.24386 51.7836 5.00287C51.8738 5.65993 51.9415 6.31698 52.0317 6.96271C52.1333 7.71039 52.2461 8.45807 52.3476 9.21708C52.4153 9.76085 52.483 10.3046 52.5507 10.8484C52.6296 11.4148 52.7086 11.9812 52.7876 12.559C52.8553 13.1141 52.9117 13.6805 52.9906 14.2356C53.0696 14.7907 53.1598 15.3571 53.2388 15.9122C53.2839 16.2294 53.3065 16.558 53.3403 16.8752C53.4193 17.4982 53.4983 18.1326 53.5772 18.7557C53.5998 18.7557 53.6111 18.7557 53.6336 18.7557L53.5998 18.767Z" fill="white"/>
<path d="M88.9765 0.505408H94.1432V13.4539C94.1432 13.4539 94.177 13.4539 94.1996 13.4652C94.3124 13.2047 94.4252 12.9441 94.538 12.6722C94.9779 11.6074 95.4179 10.5425 95.8579 9.4776C96.4106 8.12951 96.9521 6.79274 97.5049 5.44465C98.1591 3.85865 98.8022 2.27266 99.4565 0.697993C99.5129 0.562051 99.5918 0.49408 99.761 0.49408C101.16 0.49408 102.547 0.49408 103.946 0.49408C104.014 0.49408 104.082 0.49408 104.183 0.49408C104.082 0.754636 103.991 0.992535 103.89 1.23043C103.236 2.81643 102.581 4.39109 101.927 5.97709C101.171 7.80098 100.415 9.62487 99.6595 11.4488C99.4113 12.0492 99.1519 12.6383 98.915 13.2387C98.8698 13.3633 98.8811 13.5332 98.915 13.6578C99.3098 14.8587 99.7497 16.0368 100.122 17.249C100.618 18.8123 101.058 20.3983 101.532 21.973C101.78 22.7773 102.062 23.5816 102.322 24.3859C102.739 25.6774 103.145 26.9688 103.563 28.249C104.127 29.9482 104.691 31.6475 105.266 33.3468C105.289 33.4035 105.3 33.4601 105.323 33.5281H103.653C102.604 33.5281 101.566 33.5281 100.517 33.5281C100.336 33.5281 100.269 33.4488 100.212 33.3015C99.8287 32.1347 99.4452 30.9791 99.0616 29.8123C98.6329 28.4982 98.2155 27.1728 97.7869 25.8587C97.2115 24.0914 96.625 22.3355 96.0496 20.5682C96.0271 20.5116 96.0045 20.4663 95.9594 20.353C95.7789 20.8061 95.6097 21.1913 95.4518 21.5878C95.0457 22.5847 94.6282 23.5929 94.2221 24.5899C94.1883 24.6692 94.177 24.7711 94.177 24.8617C94.177 27.6599 94.177 30.4694 94.177 33.2675V33.5167H88.954V0.505408H88.9765Z" fill="white"/>
<path d="M74.977 0.460083H87.6454V5.30869H80.5272V14.7114H85.8969V19.2088H80.5272V29.008H87.9951V33.5054H74.977V0.460083Z" fill="white"/>
<path d="M60.7744 0.426147H73.3187V5.27476H66.1215V14.6774H71.6492V19.2202H71.4235C69.7201 19.2202 68.0167 19.2202 66.302 19.2202C66.1328 19.2202 66.0539 19.2542 66.0539 19.4467C66.0539 22.5734 66.0539 25.7001 66.0539 28.8268V29.0193H73.7361V33.5168H60.7519V0.426147H60.7744Z" fill="white"/>
<path d="M125.267 33.5054H119.83V33.2449C119.83 29.0194 119.83 24.7938 119.83 20.5569C119.83 19.8546 119.694 19.1975 119.503 18.5291C119.063 17.0338 118.656 15.5384 118.228 14.043C118.013 13.3067 117.777 12.593 117.573 11.8566C117.359 11.0976 117.167 10.3273 116.964 9.55694C116.637 8.34479 116.299 7.13264 115.972 5.92048C115.667 4.78763 115.362 3.64345 115.058 2.5106C114.889 1.8762 114.719 1.2418 114.539 0.607404C114.505 0.471461 114.528 0.426147 114.663 0.426147C116.197 0.426147 117.731 0.426147 119.266 0.426147C119.322 0.426147 119.401 0.516775 119.424 0.573418C119.615 1.28712 119.796 2.01214 119.976 2.72584C120.168 3.53016 120.349 4.33449 120.552 5.13881C120.89 6.52089 121.251 7.90298 121.601 9.27373C121.928 10.5425 122.244 11.8113 122.571 13.0688C122.582 13.1254 122.616 13.1707 122.661 13.2614C122.819 12.6496 122.966 12.0832 123.124 11.5168C123.417 10.4406 123.733 9.36436 124.026 8.28815C124.398 6.94005 124.748 5.59196 125.109 4.24386C125.436 3.03171 125.775 1.80823 126.113 0.596075C126.136 0.516775 126.26 0.426147 126.339 0.426147C127.58 0.426147 128.82 0.426147 130.073 0.426147C130.208 0.426147 130.276 0.426147 130.231 0.607404C129.949 1.67229 129.678 2.73717 129.396 3.79072C129.114 4.8556 128.809 5.90915 128.516 6.96271C128.144 8.29947 127.771 9.64757 127.41 10.9843C126.97 12.6156 126.542 14.2469 126.113 15.8896C125.842 16.9092 125.572 17.9401 125.323 18.9709C125.267 19.2088 125.267 19.4694 125.267 19.7186C125.267 24.2161 125.267 28.7248 125.267 33.2222V33.4828V33.5054Z" fill="white"/>
<path d="M118.747 33.5167H105.92V0.471436H111.177V29.0873H118.747V33.5054V33.5167Z" fill="white"/>
<path d="M21.4042 21.112C21.9908 17.0451 22.5662 12.9782 23.1415 8.92255C23.1753 8.92255 23.1979 8.92255 23.2317 8.92255C23.7732 12.9782 24.1906 17.0451 24.7095 21.1234H21.4042V21.112Z" fill="white"/>
</svg>
