<svg width="123" height="44" viewBox="0 0 123 44" fill="none" xmlns="http://www.w3.org/2000/svg">
<path d="M97.1536 0.0108027C97.2777 -0.0458399 97.289 0.135417 97.3454 0.203388L102.693 11.5999C104.058 14.5226 105.445 17.4228 106.787 20.3682C105.265 20.3682 103.73 20.3908 102.207 20.3682C101.835 19.4732 101.44 18.5669 101.057 17.6606C100.481 17.604 99.8949 17.6606 99.3196 17.638C97.3116 17.6606 95.2922 17.6153 93.273 17.6606C92.912 18.5556 92.5397 19.4506 92.1788 20.3568C91.6373 20.4248 91.0845 20.3568 90.5317 20.3795C89.5616 20.3568 88.6027 20.4135 87.6438 20.3568C90.825 13.5824 93.9724 6.80792 97.1423 0.0221313M97.1198 8.48454C96.3301 10.3991 95.4953 12.2909 94.7282 14.2168C96.3414 14.2394 97.9546 14.2168 99.579 14.2168L99.6241 14.1828C98.8006 12.2909 97.9771 10.3877 97.1762 8.47321H97.1198V8.48454ZM24.99 0.429958C27.1108 0.0901024 29.3219 0.463944 31.217 1.48351C33.2589 2.57105 34.8833 4.37229 35.7632 6.51338C36.8123 8.99433 36.8123 11.9058 35.8309 14.4094C35.0525 16.4032 33.5973 18.1251 31.7698 19.2353C29.852 20.4135 27.5282 20.8553 25.2946 20.5947C23.1512 20.3568 21.0868 19.3826 19.5413 17.8646C17.8492 16.2106 16.7888 13.9336 16.5857 11.5659C16.3601 9.24355 16.9241 6.84191 18.1876 4.8934C19.6992 2.53707 22.2262 0.860442 24.9787 0.452615M25.3284 4.4969C23.7604 4.83676 22.3841 5.86765 21.5719 7.2384C20.8386 8.45056 20.5228 9.91194 20.7033 11.3167C20.8838 12.7554 21.5719 14.1261 22.6436 15.1117C23.5799 15.9727 24.7982 16.5278 26.0729 16.6184C27.4492 16.7317 28.8706 16.3239 29.9648 15.4856C31.138 14.6133 31.9615 13.2992 32.2774 11.8604C32.582 10.501 32.4015 9.03964 31.7811 7.78217C31.1606 6.51338 30.1002 5.4485 28.8029 4.87074C27.72 4.37229 26.4903 4.259 25.3397 4.4969H25.3284ZM0.78125 0.622543C3.09383 0.588558 5.39515 0.622543 7.719 0.622543C8.50866 0.599886 9.30962 0.690514 10.0654 0.939742C11.3515 1.34757 12.5021 2.18588 13.2579 3.28475C14.2506 4.68948 14.6229 6.44541 14.4988 8.14469C14.386 9.96858 13.6528 11.7811 12.3216 13.0499C11.2161 14.1261 9.69317 14.7605 8.15897 14.7832C7.07601 14.7832 6.00427 14.7832 4.9213 14.7832C4.89874 16.6637 4.9213 18.5443 4.9213 20.4135C3.54504 20.4135 2.16881 20.4135 0.792542 20.4135V0.588558M4.94389 4.51956L4.9213 4.5762C4.9213 6.60401 4.9213 8.63181 4.9213 10.6709C4.9213 10.8069 4.89876 10.9542 4.94389 11.0901C5.89148 11.0674 6.83909 11.0901 7.78669 11.0674C8.45226 11.0448 9.09524 10.6936 9.52391 10.1838C10.1105 9.49278 10.3925 8.57517 10.4264 7.66889C10.4489 6.85323 10.212 5.98094 9.64799 5.38053C9.16291 4.84808 8.44098 4.54221 7.719 4.53089C6.79397 4.53089 5.86892 4.53089 4.94389 4.53089V4.51956ZM39.3844 2.46909C39.4069 1.8347 39.3505 1.2003 39.4069 0.577229C41.8097 0.577229 44.2238 0.577229 46.6267 0.577229C48.1947 0.577229 49.7627 1.121 50.9247 2.18588C52.0979 3.2281 52.8086 4.71214 53.0342 6.25282C53.2936 8.05406 52.9891 9.94592 52.064 11.5206C51.4098 12.6648 50.3945 13.6277 49.1874 14.1715C48.3414 14.5566 47.3825 14.7492 46.4462 14.7266C45.4648 14.7266 44.4833 14.7039 43.4906 14.7266C43.4906 16.6071 43.5131 18.4763 43.4906 20.3455C42.1256 20.3455 40.7719 20.3455 39.4069 20.3455L39.3618 20.3115C39.3843 14.3527 39.3618 8.39391 39.3618 2.44644M43.4906 4.50823C43.4906 6.68331 43.4906 8.85838 43.4906 11.0448C44.4156 11.0674 45.3294 11.0448 46.2657 11.0448C46.92 11.0448 47.5517 10.7502 47.9917 10.2744C48.6347 9.59474 48.9505 8.65447 48.9956 7.72553C49.0407 6.89855 48.8152 6.01492 48.2511 5.38053C47.7547 4.8141 46.9989 4.50823 46.2544 4.50823H43.4906ZM55.6401 0.554572C57.0163 0.531915 58.4039 0.554572 59.7914 0.554572L59.8478 0.599886V11.9737C59.8478 12.5062 59.8252 13.0273 59.9268 13.5484C60.096 14.4773 60.5924 15.361 61.3707 15.9047C62.3409 16.6184 63.6607 16.7544 64.7888 16.3805C65.5785 16.12 66.2667 15.5649 66.6728 14.8512C67.0676 14.1941 67.2368 13.4351 67.2368 12.6874V0.588558C68.6131 0.554572 70.0006 0.588558 71.3769 0.565901L71.4333 0.611215V11.7245C71.4333 12.5175 71.4671 13.3332 71.3318 14.1148C71.0272 16.052 69.9442 17.8532 68.3761 19.0314C65.7477 21.0479 61.8671 21.1725 59.1146 19.3373C56.9938 17.9665 55.6513 15.4856 55.6401 12.948C55.6401 8.8244 55.6401 4.68949 55.6401 0.565901V0.554572ZM74.7724 0.554572C76.1374 0.554572 77.4798 0.554572 78.8448 0.554572L78.8899 0.611215C78.8899 5.92429 78.8899 11.2487 78.8899 16.5844H86.0871C86.1435 17.8306 86.1096 19.0994 86.1096 20.3455H74.7611C74.7611 13.7523 74.7386 7.1591 74.7611 0.554572H74.7724ZM108.48 0.554572C110.882 0.554572 113.297 0.554572 115.711 0.554572C117.234 0.554572 118.79 1.0417 119.964 2.04994C121.25 3.12615 122.005 4.74613 122.163 6.40009C122.378 8.40524 121.881 10.5463 120.573 12.0983C120.031 12.7667 119.32 13.2878 118.587 13.7183C118.7 14.0242 118.926 14.2847 119.072 14.568C120.133 16.3352 121.193 18.0911 122.265 19.8471C122.332 20.0057 122.502 20.1416 122.468 20.3342C121.035 20.3342 119.591 20.3568 118.17 20.3115C117.121 18.3404 116.049 16.3919 115 14.4207C114.222 14.364 113.409 14.398 112.62 14.398C112.597 16.3692 112.597 18.3404 112.62 20.3002C111.255 20.3455 109.867 20.3002 108.491 20.3229C108.491 13.7297 108.491 7.13645 108.491 0.531915M112.665 4.48557L112.62 4.53089C112.62 6.59268 112.597 8.65447 112.62 10.7163C113.533 10.7163 114.447 10.7163 115.361 10.7163C116.072 10.7163 116.771 10.4104 117.245 9.87795C117.91 9.13027 118.181 8.08804 118.125 7.10246C118.08 6.30946 117.73 5.49381 117.076 5.01801C116.557 4.64417 115.902 4.48557 115.271 4.48557H112.653H112.665ZM64.3714 22.9058L64.4278 22.8831C68.1731 26.2817 71.907 29.6689 75.6523 33.0561C76.1035 33.4413 76.5209 33.8831 76.9834 34.2456C76.9608 30.6885 76.9834 27.1426 76.9834 23.5855L77.0173 23.5175C78.3823 23.5175 79.7473 23.5175 81.1122 23.5175C81.0897 30.3259 81.0558 37.1457 81.0107 43.9428H80.9882C80.9882 43.9428 80.9317 43.8749 80.8979 43.8409L68.7033 32.4444C68.6018 32.3537 68.5228 32.2291 68.3874 32.1838C68.41 35.8883 68.4664 39.5927 68.4777 43.2971C67.1127 43.2971 65.759 43.2971 64.394 43.2971C64.3714 36.4887 64.394 29.6915 64.394 22.8944L64.3714 22.9058ZM8.02354 23.9593C9.37724 23.3023 10.9115 23.1437 12.3893 23.2909C14.3522 23.4722 16.2135 24.3558 17.6348 25.7266C17.6348 25.7492 17.6348 25.8172 17.6348 25.8398C16.9693 26.7914 16.2812 27.7317 15.6269 28.6833H15.5592C14.386 27.5618 12.8067 26.8594 11.1709 26.8707C10.4828 26.8707 9.72699 27.086 9.26447 27.6411C8.90349 28.0602 8.80197 28.672 8.99375 29.1931C9.1968 29.7369 9.64804 30.1334 10.1218 30.4506C10.9341 30.983 11.8478 31.3342 12.7277 31.7194C14.025 32.2971 15.2998 33.0108 16.2699 34.0757C17.0821 34.9706 17.5784 36.1375 17.6236 37.3496C17.7138 38.8563 17.1159 40.3743 16.0894 41.4732C15.0064 42.6514 13.461 43.3424 11.8816 43.5237C9.26448 43.8069 6.43298 43.0705 4.53779 41.19C4.43627 41.0654 4.26702 40.9748 4.2219 40.8048C4.85362 39.7966 5.47412 38.7884 6.10585 37.7914C6.12841 37.7914 6.18479 37.8254 6.21863 37.8368C7.31287 38.777 8.58763 39.604 10.0429 39.8079C10.8776 39.9099 11.8139 39.9212 12.5359 39.4114C13.2353 38.9243 13.4271 37.8934 13.0322 37.157C12.7502 36.6246 12.2539 36.2281 11.7463 35.8996C10.652 35.2085 9.38856 34.8574 8.27175 34.2116C7.08726 33.5546 5.98173 32.637 5.37257 31.3908C4.63931 29.9068 4.68446 28.0942 5.39515 26.6102C5.93663 25.466 6.90676 24.5257 8.04612 23.982L8.02354 23.9593ZM26.0617 23.8347C27.9681 23.1437 30.0777 23.0644 32.0518 23.5288C33.5747 23.8913 34.9397 24.6957 36.1129 25.6926L36.1468 25.7605C35.3797 26.8141 34.6577 27.879 33.8906 28.9212C33.3604 28.5021 32.8301 28.0489 32.2097 27.743C30.7996 27.0067 29.0849 26.9387 27.5959 27.4825C26.3098 27.9583 25.2043 28.9325 24.5613 30.156C23.8168 31.5041 23.625 33.1128 23.8619 34.6308C24.0424 35.9449 24.6177 37.225 25.5991 38.1313C26.7949 39.2641 28.4983 39.7399 30.1002 39.6267C31.6795 39.4681 33.1686 38.6524 34.2403 37.5082C34.9284 38.4258 35.6053 39.3548 36.2821 40.2724C36.3385 40.363 36.44 40.4423 36.44 40.5556C35.1766 41.8244 33.5972 42.7986 31.86 43.2405C28.7126 44.0788 25.193 43.1612 22.7789 40.9861C21.0078 39.4114 19.7895 37.2024 19.4623 34.846C19.1465 32.7276 19.5075 30.5185 20.5115 28.6267C21.6847 26.4063 23.704 24.6504 26.0617 23.812V23.8347ZM92.3592 23.3816C94.5026 23.0304 96.7926 23.2796 98.7216 24.3218C99.4436 24.6957 100.109 25.1715 100.718 25.7039C100.741 25.8172 100.628 25.8965 100.583 25.9871C99.9851 26.8368 99.3872 27.6751 98.7893 28.5134C98.6765 28.6493 98.6088 28.8419 98.4509 28.9325C97.6725 28.1735 96.7137 27.5844 95.6533 27.3126C93.5663 26.7688 91.1747 27.5051 89.8097 29.2044C88.8847 30.3146 88.3997 31.7533 88.3658 33.1921C88.332 34.3929 88.5463 35.605 89.0878 36.6699C89.539 37.5422 90.2159 38.2899 91.062 38.7997C92.1224 39.4567 93.4084 39.706 94.6493 39.638C96.2512 39.5021 97.7628 38.6637 98.857 37.5082C99.4323 38.3239 100.03 39.1055 100.606 39.9099C100.741 40.1251 100.944 40.329 101.045 40.5669C99.8497 41.7791 98.3719 42.708 96.7362 43.1952C94.4688 43.8635 91.9644 43.6256 89.8323 42.6174C87.5649 41.5638 85.7148 39.6493 84.7446 37.3383C83.594 34.6534 83.6956 31.4701 85.0042 28.8646C86.4143 25.9984 89.2232 23.8913 92.3705 23.3816H92.3592ZM39.2715 23.5062C40.6591 23.5062 42.0466 23.5062 43.4342 23.5062C43.4342 30.0994 43.4342 36.6926 43.4342 43.2971H39.2941C39.2715 36.7039 39.2941 30.0994 39.2941 23.5062H39.2715ZM47.2358 23.5062C51.8046 23.5062 56.362 23.5062 60.9195 23.5062L60.9421 23.5628C60.9421 24.7976 60.9421 26.0324 60.9421 27.2672C57.7496 27.2672 54.5458 27.2672 51.3533 27.2672C51.3533 28.6267 51.3533 29.9861 51.3533 31.3455C53.9931 31.3455 56.6328 31.3455 59.2725 31.3455L59.295 31.4135C59.295 32.6483 59.295 33.8944 59.295 35.1292C56.6553 35.1292 54.0156 35.1292 51.3759 35.1292C51.3195 36.5793 51.3533 38.052 51.3533 39.5247C54.5458 39.5247 57.7496 39.5247 60.9421 39.5247C60.9421 40.6462 60.9421 41.7564 60.9421 42.8779C60.9421 43.0139 60.9646 43.1725 60.9195 43.2971C56.3733 43.2745 51.8159 43.2971 47.2697 43.2971L47.2245 43.2405C47.2245 38.2106 47.2245 33.1807 47.2245 28.1509C47.2471 26.5989 47.202 25.0355 47.2471 23.4948L47.2358 23.5062ZM104.069 23.5062C108.649 23.4835 113.229 23.5062 117.798 23.5062C117.798 24.7523 117.798 25.9984 117.798 27.2559C114.616 27.2899 111.435 27.2559 108.243 27.2786L108.186 27.3012C108.209 28.638 108.186 29.9634 108.186 31.3002L108.243 31.3455C110.871 31.3455 113.5 31.3455 116.139 31.3455C116.162 32.603 116.139 33.8718 116.139 35.1292C113.5 35.1632 110.837 35.1292 108.198 35.1519C108.198 36.6019 108.198 38.052 108.198 39.502C108.762 39.5587 109.348 39.502 109.924 39.5247H117.662C117.662 39.5247 117.764 39.5247 117.798 39.5474C117.798 40.7935 117.798 42.0396 117.798 43.2858C113.229 43.3084 108.66 43.2858 104.08 43.2858C104.08 36.6926 104.08 30.0994 104.08 23.4948L104.069 23.5062Z" fill="white"/>
</svg>
