<svg width="112" height="32" viewBox="0 0 112 32" fill="none" xmlns="http://www.w3.org/2000/svg">
<path d="M0.244568 27.6377C0.458904 27.2073 0.684518 26.7881 0.876293 26.3463C1.226 25.5873 1.55314 24.8169 1.89156 24.0466C1.92541 23.9673 1.97053 23.8993 2.03822 23.7747C2.37665 24.0466 2.68124 24.2958 2.9971 24.5451C4.23799 25.508 5.58042 26.2897 7.1259 26.6522C8.42319 26.958 9.70919 26.8447 10.9501 26.3803C12.1459 25.9271 12.8115 24.8509 12.631 23.4462C12.4956 22.404 12.0105 21.5657 11.3111 20.818C10.2507 19.6851 9.04363 18.7222 7.85915 17.7366C6.30239 16.4452 4.71177 15.2104 3.29038 13.7716C2.53456 13.0126 1.85772 12.1856 1.3952 11.2114C0.740913 9.81797 0.582996 8.36792 0.740928 6.8499C0.853737 5.7397 1.25986 4.75412 1.91415 3.85917C2.83918 2.59037 4.11389 1.82003 5.59168 1.36689C7.15972 0.879765 8.75035 0.834451 10.3748 1.01571C11.6157 1.15165 12.8114 1.45752 13.9508 1.97863C14.763 2.35247 15.5075 2.85093 16.2295 3.48533C15.7219 4.85608 15.124 6.20417 14.56 7.62024C14.3795 7.50695 14.2328 7.41632 14.0975 7.31437C13.0032 6.47606 11.8075 5.83033 10.4763 5.45649C9.31438 5.13929 8.15245 5.11663 7.01308 5.47915C5.86243 5.84166 5.39991 6.72528 5.49016 7.98275C5.54656 8.71911 5.9414 9.29686 6.38136 9.85196C7.13717 10.8036 8.05091 11.6079 8.97594 12.3895C10.3409 13.5451 11.7398 14.6666 13.116 15.7994C14.3118 16.785 15.4173 17.8612 16.2408 19.198C16.8725 20.2289 17.2448 21.3391 17.3802 22.5512C17.4817 23.4462 17.5043 24.3411 17.3125 25.2248C16.9064 27.026 15.9024 28.4194 14.3682 29.4163C13.2288 30.164 11.9766 30.6398 10.6229 30.8211C10.1943 30.8777 9.7769 30.957 9.34823 31.025H7.76888C7.67863 30.991 7.5771 30.957 7.48686 30.9343C6.95666 30.855 6.4152 30.7984 5.885 30.7078C4.49745 30.4699 3.21142 29.9374 2.02693 29.1898C1.42904 28.8159 0.865013 28.3741 0.278409 27.9549C0.278409 27.853 0.278409 27.7397 0.278409 27.6377H0.244568Z" fill="white"/>
<path d="M36.0274 18.1331H27.0366C27.0366 18.3371 27.0253 18.541 27.0253 18.7449C27.0253 22.5286 27.0253 26.3123 27.0253 30.1074C27.0253 30.3113 27.0253 30.5152 27.0253 30.7078C26.5628 30.8098 22.7273 30.8211 22.1971 30.7418C22.1858 30.7305 22.1745 30.7191 22.1633 30.7078C22.1633 30.6965 22.1407 30.6738 22.1407 30.6625C22.1407 20.9766 22.1294 11.2907 22.1181 1.61615C22.1181 1.49153 22.1294 1.36692 22.1407 1.25363C22.5017 1.12902 26.3598 1.09503 27.0141 1.21965C27.0592 2.55641 27.0253 3.90451 27.0366 5.2526C27.0366 6.62336 27.0366 7.99411 27.0366 9.37619C27.0366 10.7583 27.0366 12.0837 27.0366 13.4658H36.0162V1.21965C36.4335 1.11769 40.1224 1.09503 40.8331 1.17433C40.9233 1.54817 40.9572 30.0961 40.8557 30.7531H36.05V18.1218L36.0274 18.1331Z" fill="white"/>
<path d="M79.0413 22.2794V30.7644H74.2808C74.1793 30.3793 74.1342 2.25054 74.2357 1.17433C74.3598 1.16301 74.4952 1.14035 74.6305 1.14035C76.3227 1.14035 78.0035 1.10636 79.6956 1.14035C81.6585 1.18566 83.6101 1.41223 85.4489 2.15992C87.1748 2.86228 88.6526 3.88185 89.7356 5.42253C90.4914 6.49874 90.9878 7.68824 91.2698 8.96836C91.518 10.1125 91.5744 11.2794 91.4841 12.4349C91.3262 14.3947 90.6606 16.196 89.4761 17.7706C87.8404 19.9457 85.6519 21.2825 83.0235 21.9282C82.0308 22.1661 81.0268 22.2907 80.0002 22.2794C79.7069 22.2794 79.4136 22.2794 79.0301 22.2794H79.0413ZM79.0639 17.9519C79.6731 17.9066 80.2258 17.8726 80.7786 17.8159C81.8164 17.7253 82.8091 17.4648 83.7229 16.9663C84.7946 16.3659 85.5842 15.5049 86.0242 14.3381C86.5318 12.99 86.6559 11.6192 86.4303 10.2032C86.0693 8.02809 84.8623 6.6007 82.7302 5.95497C81.6472 5.62645 80.5417 5.50183 79.4136 5.53582C79.3008 5.53582 79.188 5.5698 79.0639 5.58113V17.9519Z" fill="white"/>
<path d="M68.6178 30.7644H63.7219C63.2143 29.1784 62.7067 27.5924 62.1877 25.9725H52.6892C52.1365 27.5245 51.6852 29.1444 51.1325 30.7531H46.4509C49.7337 20.8746 53.0164 11.0415 56.2991 1.17432H58.7471C62.0298 11.0188 65.3013 20.852 68.6065 30.7644H68.6178ZM57.3821 11.1547C56.2991 14.5873 55.2049 18.0085 54.1106 21.4864H60.755C59.6721 18.0085 58.5778 14.5986 57.3821 11.1547Z" fill="white"/>
<path d="M101.648 5.76235V13.5111H110.278C110.38 13.9642 110.402 17.3741 110.312 18.0198H101.659V26.2783H111.305V30.7757H96.8538C96.7523 30.3906 96.7072 2.22785 96.8087 1.23094C97.1923 1.14032 110.684 1.12899 111.305 1.21962V5.78501H101.648V5.76235Z" fill="white"/>
</svg>
