<svg width="121" height="34" viewBox="0 0 121 34" fill="none" xmlns="http://www.w3.org/2000/svg">
<path d="M112.423 0.329834L105.565 16.9601H113.224L120.083 0.329834H112.423ZM103.229 22.9302C103.229 25.2413 105.012 27.1445 107.426 27.1445C109.84 27.1445 111.769 25.162 111.769 22.783C111.769 20.404 109.987 18.5688 107.573 18.5688C105.159 18.5688 103.229 20.5852 103.229 22.9302ZM96.303 17.6512C96.303 15.6007 94.7689 13.9467 92.6593 13.9467C90.5498 13.9467 89.0156 15.5894 89.0156 17.6512C89.0156 19.7129 90.5498 21.3556 92.6593 21.3556C94.7689 21.3556 96.303 19.7129 96.303 17.6512ZM75.6591 17.6512C75.6591 15.6007 74.1249 13.9467 72.0154 13.9467C69.9059 13.9467 68.3717 15.5894 68.3717 17.6512C68.3717 19.7129 69.9059 21.3556 72.0154 21.3556C74.1249 21.3556 75.6591 19.7129 75.6591 17.6512ZM31.3817 21.4236C29.2271 21.4236 27.5914 19.7809 27.5914 17.6512C27.5914 15.5214 29.2271 13.8788 31.3817 13.8788C33.5364 13.8788 35.1383 15.5214 35.1383 17.6512C35.1383 19.7809 33.5025 21.4236 31.3817 21.4236ZM0.483452 8.45239L8.28985 26.9519L5.48093 33.613H12.3396L22.7293 8.45239H15.9044L11.6741 19.2258L7.4776 8.45239H0.472229H0.483452ZM81.7846 17.6512C81.7846 23.1455 77.5881 27.2804 72.0041 27.2804C66.4201 27.2804 62.2236 23.1455 62.2236 17.6512C62.2236 12.1568 66.4201 8.0219 72.0041 8.0219C77.5881 8.0219 81.7846 12.1568 81.7846 17.6512ZM102.429 17.6512C102.429 23.1455 98.2321 27.2804 92.648 27.2804C87.064 27.2804 82.8676 23.1455 82.8676 17.6512C82.8676 12.1568 87.064 8.0219 92.648 8.0219C98.2321 8.0219 102.429 12.1568 102.429 17.6512ZM43.3733 0.329834V26.8159H49.826V17.0394C49.826 15.1362 50.7397 14.0034 52.1949 14.0034C53.6501 14.0034 54.4172 14.989 54.4172 16.8242V26.8273H60.8699V15.2948C60.8699 10.8314 58.4671 8.04456 54.5977 8.04456C52.5221 8.04456 50.9089 8.84889 49.7808 10.2763V0.329834H43.362H43.3733ZM34.9803 8.46372V10.1857C33.9989 8.90553 32.1714 8.0219 30.0619 8.0219C25.0645 8.0219 21.3418 12.4514 21.3418 17.6512C21.3418 22.8509 25.0306 27.2804 30.0619 27.2804C32.1827 27.2804 33.9989 26.4421 34.9803 25.0827V26.8046H41.2187V8.45239H34.9803V8.46372Z" fill="white"/>
</svg>
