<svg width="72" height="46" viewBox="0 0 72 46" fill="none" xmlns="http://www.w3.org/2000/svg">
<path d="M69.979 9.59638V9.8292H69.4572V11.0745H69.1855V9.8292H68.6637V9.59638H69.979ZM71.5551 11.0745L71.4627 10.0566L71.0551 11.0583H70.854L70.4464 10.062L70.354 11.0745H70.0877L70.229 9.59638H70.5007L70.9573 10.6739L71.4029 9.59638H71.6856L71.816 11.0745H71.5551Z" fill="#004943"/>
<path d="M27.3255 25.6017C28.6353 26.69 30.1734 27.4534 31.9398 27.9028C33.7061 28.3468 35.4997 28.4389 37.3204 28.1736C40.3476 27.7621 42.614 26.6304 44.1195 24.7678C45.2826 23.3167 45.8043 21.6762 45.6848 19.8406C45.5815 18.2921 45.0489 16.9439 44.0869 15.7906C43.8423 15.4982 43.9293 15.065 44.2771 14.8972C44.6902 14.6968 45.0706 14.4207 45.413 14.0633C45.9565 13.4948 46.2772 12.8505 46.375 12.125C46.4946 11.2099 46.2663 10.4356 45.6848 9.80754C45.3967 9.4935 45.038 9.27692 44.6141 9.1578C44.3206 9.07117 44.0271 9.05493 43.739 9.09824C43.5597 9.12532 43.4836 9.32565 43.5651 9.48267C43.7173 9.7913 43.7227 10.1541 43.5814 10.571C43.4347 10.9825 43.1195 11.3669 42.6357 11.7297C41.8096 12.3578 40.402 12.8397 38.4019 13.1808C36.4019 13.5165 35.0159 13.9172 34.2388 14.3774C33.6083 14.7402 33.0811 15.2112 32.6572 15.7906C32.2333 16.3699 31.9724 16.9872 31.8745 17.6369C31.7767 18.3354 31.8745 19.0176 32.168 19.6836C32.4561 20.3496 32.8963 20.8586 33.4779 21.2213C34.0594 21.6058 34.7333 21.7682 35.4942 21.7086C36.2551 21.6491 36.8801 21.3784 37.3638 20.8965C37.6084 20.6528 37.6899 20.4362 37.6193 20.2467C37.2606 20.2738 36.9236 20.1601 36.6084 19.9002C36.3856 19.7161 36.2116 19.467 36.1138 19.1909C36.0051 18.8931 35.9725 18.6007 36.0214 18.3246C36.141 17.8643 36.4073 17.4853 36.8204 17.1821C37.2334 16.8789 37.6954 16.7056 38.2008 16.6569C39.0269 16.6082 39.777 16.8572 40.4563 17.3987C41.1357 17.9401 41.5596 18.6115 41.7281 19.4075C41.8966 20.1547 41.8259 20.9181 41.5107 21.687C41.1955 22.4613 40.7226 23.111 40.0922 23.6416C38.8802 24.6325 37.3421 25.1144 35.4779 25.0927C33.7822 25.0711 32.293 24.6325 31.005 23.7878C29.5973 22.8457 28.7277 21.6274 28.3853 20.133C28.0212 18.4653 28.3744 16.9493 29.4397 15.5686C30.2386 14.529 31.4995 13.5436 33.2224 12.6014C33.3909 12.504 33.6463 12.374 33.9833 12.2008C34.3203 12.0329 34.5757 11.8975 34.7442 11.8001C34.9127 11.7026 35.1083 11.5727 35.3257 11.3994C35.5431 11.2316 35.7171 11.0475 35.8529 10.858C35.9018 10.7876 35.9453 10.7118 35.9834 10.6305C36.0866 10.4086 35.9399 10.1487 35.6953 10.1216C34.6355 10.0025 33.9561 9.82379 33.6572 9.58555C33.1952 9.27151 32.9181 8.80586 32.8202 8.19402C32.7224 7.57677 32.8311 7.0299 33.1463 6.54801C33.4398 6.06612 33.8583 5.70335 34.4181 5.45969C34.9779 5.21604 35.5594 5.12399 36.1627 5.16731C36.8638 5.21604 37.4236 5.43262 37.8367 5.81705C38.3476 6.32601 38.4889 6.86747 38.2715 7.44682C38.1519 7.73379 37.9454 7.95578 37.6519 8.09656C37.3584 8.24275 37.0704 8.26441 36.7769 8.16695C36.8964 8.86542 37.3041 9.41228 37.9943 9.79671C38.6845 10.1811 39.3911 10.2894 40.1194 10.1216C40.7987 9.95374 41.3585 9.55306 41.8096 8.92498C42.2607 8.2969 42.4836 7.62008 42.4836 6.89454C42.4836 6.21772 42.3042 5.56257 41.9401 4.92366C41.5759 4.28474 41.0922 3.74871 40.4889 3.31013C39.3965 2.53586 38.016 2.09187 36.3475 1.97275C34.5051 1.82656 32.8963 2.11894 31.5158 2.84448C31.1517 3.03941 30.8093 3.26681 30.4778 3.53213C30.1517 3.79744 29.8582 4.08982 29.6082 4.40386C29.3527 4.7179 29.1353 5.05902 28.956 5.43803C28.7766 5.81164 28.6462 6.19065 28.5755 6.5805C28.407 7.37643 28.4831 8.17236 28.8092 8.9683C28.956 9.33107 29.1408 9.65052 29.3636 9.93208C29.7277 10.3923 29.5701 11.0637 29.0484 11.3399C27.6027 12.1087 26.4124 13.197 25.483 14.6156C24.3417 16.4024 23.9613 18.33 24.3363 20.3929C24.7113 22.4558 25.7113 24.1885 27.3364 25.5908L27.3255 25.6017Z" fill="#004943"/>
<path d="M0.797499 0.5C0.460532 0.5 0.18335 0.77614 0.18335 1.11725V35.7918C0.18335 36.1491 0.471402 36.4361 0.830109 36.4361H5.35742C5.71613 36.4361 6.00418 36.1491 6.00418 35.7918V25.0656C6.00418 24.7408 6.27049 24.4809 6.59116 24.4809H9.58038C9.95539 24.4809 10.3087 24.6216 10.5804 24.8707C11.6076 25.8237 14.2381 28.2385 15.4284 29.0453C15.8414 29.3539 16.4665 29.8575 17.3089 30.5614C18.1513 31.2653 18.8959 31.8771 19.5481 32.4077C20.2003 32.9383 20.8525 33.4256 21.5047 33.8696C24.8037 36.1979 28.2712 37.6869 31.9126 38.3366C33.3202 38.6073 34.7442 38.7319 36.1899 38.694C39.4617 38.6669 42.5107 37.9034 45.326 36.409C45.538 36.2953 45.6685 36.0733 45.6685 35.8405V30.6751C45.6685 30.1499 45.076 29.8466 44.6467 30.1499C44.4891 30.2582 44.3804 30.3285 44.3804 30.3285C41.9075 32.0395 39.1411 32.9113 36.0866 32.9492C33.8855 32.9817 31.6354 32.5539 29.3364 31.6659C27.4125 30.9133 25.3363 29.7005 23.1025 28.022C22.4503 27.5076 21.434 26.6683 20.0644 25.5096C18.6894 24.3455 18.222 23.9665 17.4665 23.4142C17.4502 23.398 17.3143 23.2951 17.1513 23.1651C16.8415 22.9269 16.8469 22.4558 17.1621 22.223L17.3795 22.1093C19.6133 20.707 20.7438 18.9906 21.6405 16.4078L21.7003 16.2346C22.5753 13.6789 22.5753 11.1449 21.7003 8.62718C21.0264 6.61298 19.8035 4.90741 18.0317 3.51588C16.2599 2.12435 14.1947 1.24179 11.8359 0.873601C10.325 0.586632 8.44447 0.5 6.1781 0.5H0.797499ZM15.9773 14.3828C15.548 15.6336 14.7979 16.5973 13.7381 17.285C12.3142 18.1892 9.94452 18.5736 6.6292 18.4437C6.2868 18.4274 6.01505 18.1459 6.01505 17.7994V7.18692C6.01505 6.84039 6.29223 6.54801 6.64551 6.54259C8.31404 6.51011 9.68364 6.5805 10.7543 6.76459C11.8902 6.97034 12.95 7.39809 13.9501 8.04783C14.9447 8.69757 15.6132 9.55306 15.961 10.6143C16.4067 11.8813 16.4175 13.1375 15.9882 14.3882L15.9773 14.3828Z" fill="#004943"/>
<path d="M65.5604 32.8355L71.691 43.9948C72.0606 44.6716 71.5714 45.5 70.7942 45.5H65.9517C65.5767 45.5 65.2343 45.2997 65.0549 44.9694L59.0928 34.1187C58.9134 33.7938 58.571 33.5989 58.2014 33.6097C57.8862 33.6206 57.5656 33.6314 57.2503 33.6314C56.8753 33.6314 56.4677 33.626 56.0383 33.6151C55.4894 33.5989 55.0329 34.0429 55.0329 34.5898V44.5579C55.0329 45.0777 54.6089 45.5 54.0872 45.5H49.886C49.3642 45.5 48.9403 45.0777 48.9403 44.5579V10.5223C48.9403 10.0025 49.3642 9.58014 49.886 9.58014H52.0871C52.4676 9.54765 53.4296 9.54765 54.9731 9.58014C57.6906 9.58014 59.6145 9.68301 60.7504 9.88876C63.1255 10.2678 65.2017 11.1666 66.9898 12.5852C68.7779 14.0092 70.0333 15.7256 70.7562 17.7506C71.2019 19.0176 71.4084 20.3171 71.3758 21.6545C71.3432 22.9919 71.1203 24.2589 70.7073 25.4555C70.2942 26.6575 69.6855 27.7783 68.8757 28.8233C68.0659 29.8683 67.1148 30.7509 66.0115 31.471C65.9789 31.4927 65.9408 31.5143 65.9082 31.536C65.4571 31.8067 65.2995 32.3806 65.5495 32.8355H65.5604ZM62.7722 26.3814C63.8375 25.6991 64.5875 24.7191 65.0169 23.4521C65.4462 22.1851 65.4354 20.9344 64.9897 19.6999C64.6093 18.6061 63.9299 17.729 62.9516 17.0792C61.9733 16.4295 60.8972 16.018 59.7287 15.8447C58.7504 15.6715 57.5003 15.5957 55.9677 15.6173C55.4514 15.6227 55.0329 16.0505 55.0329 16.5649V26.5925C55.0329 27.1069 55.4459 27.5292 55.9622 27.5401C59.12 27.6105 61.3863 27.2206 62.7668 26.3759L62.7722 26.3814Z" fill="#004943"/>
</svg>
