<?xml version="1.0" standalone="no"?>
<!DOCTYPE svg PUBLIC "-//W3C//DTD SVG 1.1//EN" "http://www.w3.org/Graphics/SVG/1.1/DTD/svg11.dtd" >
<svg xmlns="http://www.w3.org/2000/svg" xmlns:xlink="http://www.w3.org/1999/xlink" version="1.1">
<metadata>
Created by FontForge 20190801 at Thu Mar 17 15:20:15 2016
 By root
Copyright (c) 2016 The Monotype Corporation. All rights reserved.
</metadata>
<defs>
<font id="CenturyOldStyleStd-Regular" horiz-adv-x="500" >
  <font-face 
    font-family="Century Old Style Std"
    font-weight="400"
    font-stretch="normal"
    units-per-em="1000"
    panose-1="2 5 6 3 6 5 5 2 2 4"
    ascent="767"
    descent="-233"
    x-height="489"
    cap-height="732"
    bbox="-138 -250 1049 1006"
    underline-thickness="50"
    underline-position="-100"
    stemh="20"
    stemv="28"
    unicode-range="U+000D-FB02"
  />
<missing-glyph 
d="M0 700h500v-700h-500v700zM80 650l170 -255l170 255h-340zM50 605v-510l170 255zM450 95v510l-170 -255zM420 50l-170 255l-170 -255h340z" />
    <glyph glyph-name="fi" unicode="fi" horiz-adv-x="579" 
d="M104 489v52c0 146 81 202 196 202c60 0 189 -18 189 -96c0 -30 -23 -51 -53 -51c-26 0 -46 19 -46 44c0 14 7 25 7 35c0 25 -64 35 -86 35c-103 0 -119 -64 -119 -155v-66h189c40 0 74 4 105 16v-388c0 -77 7 -80 71 -88v-29h-226v29c61 8 67 12 67 88v265
c0 63 -6 74 -78 74h-128v-339c0 -84 8 -88 81 -88v-29h-264v29c69 1 95 -4 95 68v359h-93v33h93z" />
    <glyph glyph-name="fl" unicode="fl" horiz-adv-x="553" 
d="M478 758v-641c0 -77 7 -80 71 -88v-29h-226v29c61 8 67 12 67 88v461c0 25 0 62 -8 84c-12 32 -56 48 -86 48c-70 0 -110 -47 -110 -124v-97h117v-33h-117v-339c0 -84 8 -88 80 -88v-29h-263v29c71 2 95 -3 95 89v338h-94v33h94v34c0 119 44 220 192 220
c35 0 60 -4 82 -13z" />
    <glyph glyph-name=".notdef" 
d="M0 700h500v-700h-500v700zM80 650l170 -255l170 255h-340zM50 605v-510l170 255zM450 95v510l-170 -255zM420 50l-170 255l-170 -255h340z" />
    <glyph glyph-name="NULL" horiz-adv-x="0" 
 />
    <glyph glyph-name="NULL" horiz-adv-x="0" 
 />
    <glyph glyph-name="CR" unicode="&#xd;" horiz-adv-x="250" 
 />
    <glyph glyph-name="space" unicode=" " horiz-adv-x="250" 
 />
    <glyph glyph-name="exclam" unicode="!" horiz-adv-x="263" 
d="M76 675c0 37 22 68 61 68c40 0 61 -31 61 -68c0 -27 -10 -71 -25 -162c-11 -68 -19 -188 -20 -313h-32c-1 127 -11 253 -19 307c-13 83 -26 137 -26 168zM73 51c0 35 27 64 62 64c36 0 64 -29 64 -65c0 -33 -30 -61 -64 -61c-33 0 -62 28 -62 62z" />
    <glyph glyph-name="quotedbl" unicode="&#x22;" horiz-adv-x="396" 
d="M59 675c0 31 6 68 42 68c29 0 46 -24 46 -74c0 -12 -1 -25 -2 -32l-30 -269c-2 -18 -2 -41 -17 -41c-18 0 -15 30 -16 40l-21 268c0 7 -2 21 -2 40zM248 675c0 31 6 68 42 68c29 0 46 -24 46 -74c0 -12 -1 -26 -2 -33l-30 -268c-2 -18 -2 -41 -17 -41
c-18 0 -15 30 -16 40l-21 268c0 7 -2 21 -2 40z" />
    <glyph glyph-name="numbersign" unicode="#" 
d="M156 502l30 223h62l-30 -223h109l30 223h61l-30 -223h106v-58h-114l-20 -149h105v-58h-113l-32 -237h-61l32 237h-109l-32 -237h-62l32 237h-113v58h121l20 149h-109v58h117zM210 444l-20 -149h109l20 149h-109z" />
    <glyph glyph-name="dollar" unicode="$" 
d="M215 725v106h46v-106c85 -8 179 -64 179 -157c0 -35 -20 -57 -51 -57c-28 0 -52 24 -52 52c0 19 8 39 8 59c0 51 -56 70 -99 70c-74 0 -151 -49 -151 -132c0 -194 369 -121 369 -370c0 -115 -96 -189 -203 -201v-117h-46v117h-1c-91 8 -189 75 -189 170c0 36 19 70 57 70
c30 0 51 -23 51 -54s-24 -51 -24 -81c0 -51 74 -72 116 -72c77 0 170 46 170 135c0 64 -47 102 -100 127c-52 25 -108 39 -175 86c-49 35 -84 83 -84 153c0 104 76 187 179 202z" />
    <glyph glyph-name="percent" unicode="%" horiz-adv-x="579" 
d="M12 540c0 70 42 185 136 185c92 0 135 -112 135 -181c0 -71 -42 -187 -135 -187c-94 0 -136 114 -136 183zM74 0l379 714h52l-379 -714h-52zM148 698c-66 0 -68 -117 -68 -157c0 -42 0 -157 70 -157c55 0 65 104 65 156c0 72 -11 158 -67 158zM300 172
c0 69 42 185 137 185c91 0 134 -111 134 -181s-41 -187 -134 -187c-95 0 -137 114 -137 183zM436 330c-66 0 -68 -117 -68 -157c0 -42 0 -157 70 -157c55 0 65 104 65 156c0 72 -10 158 -67 158z" />
    <glyph glyph-name="ampersand" unicode="&#x26;" horiz-adv-x="790" 
d="M188 563c0 106 76 180 182 180c74 0 156 -46 156 -126c0 -96 -123 -154 -194 -190c55 -98 114 -205 190 -294c46 64 71 135 71 198c0 56 -38 68 -95 68v29h258v-29c-85 -3 -84 -28 -114 -101c-19 -46 -45 -119 -98 -189c20 -26 66 -56 103 -56c43 0 81 26 112 48l16 -19
c-45 -48 -111 -93 -181 -93c-54 0 -84 23 -125 58c-62 -36 -121 -58 -195 -58c-112 0 -242 68 -242 193c0 66 33 142 200 234c-23 47 -44 96 -44 147zM358 710c-54 0 -88 -47 -88 -101c0 -48 23 -112 46 -153c66 29 136 68 136 145c0 52 -31 109 -94 109zM246 386
c-64 -24 -109 -80 -109 -151c0 -105 86 -203 194 -203c42 0 87 11 118 39c-80 98 -146 204 -203 315z" />
    <glyph glyph-name="quoteright" unicode="&#x2019;" horiz-adv-x="210" 
d="M46 681c0 35 27 62 63 62c49 0 73 -48 73 -94c0 -72 -63 -134 -132 -179l-12 18c15 15 74 64 74 103c0 27 -26 25 -45 42c-11 10 -21 23 -21 48z" />
    <glyph glyph-name="parenleft" unicode="(" horiz-adv-x="395" 
d="M133 299c0 201 87 359 257 468l20 -27c-143 -97 -182 -275 -182 -446s51 -335 182 -429l-20 -28c-161 102 -257 267 -257 462z" />
    <glyph glyph-name="parenright" unicode=")" horiz-adv-x="395" 
d="M-8 740l21 27c173 -112 257 -271 257 -468c0 -196 -98 -361 -257 -462l-21 28c136 97 182 265 182 429c0 184 -45 353 -182 446z" />
    <glyph glyph-name="asterisk" unicode="*" 
d="M224 669c0 26 7 56 32 56s33 -31 33 -56c0 -37 -8 -76 -14 -107c35 17 95 51 127 51c15 0 35 -8 35 -26c0 -50 -115 -55 -148 -62c32 -32 89 -84 89 -119c0 -17 -8 -30 -25 -30c-42 0 -77 87 -96 125c-19 -31 -54 -125 -98 -125c-15 0 -25 13 -25 28c0 41 63 91 90 121
c-37 7 -150 12 -150 62c0 20 22 26 37 26c28 0 82 -27 126 -51c-5 31 -13 70 -13 107z" />
    <glyph glyph-name="plus" unicode="+" 
d="M220 299v201h58v-201h192v-58h-192v-201h-58v201h-191v58h191z" />
    <glyph glyph-name="comma" unicode="," horiz-adv-x="250" 
d="M61 53c0 35 28 62 62 62c51 0 74 -49 74 -94c0 -78 -71 -141 -132 -179l-12 17c25 23 74 68 74 104c0 21 -16 24 -32 33c-17 10 -34 25 -34 57z" />
    <glyph glyph-name="hyphen" unicode="-" horiz-adv-x="237" 
d="M0 293h225v-73h-225v73z" />
    <glyph glyph-name="period" unicode="." horiz-adv-x="250" 
d="M62 51c0 35 27 64 62 64c36 0 64 -29 64 -65c0 -33 -30 -61 -64 -61c-33 0 -62 28 -62 62z" />
    <glyph glyph-name="slash" unicode="/" horiz-adv-x="527" 
d="M430 767h67l-398 -866h-70z" />
    <glyph glyph-name="zero" unicode="0" 
d="M32 357c0 85 19 171 48 229c42 83 103 139 176 139c64 0 124 -46 167 -122c35 -62 57 -142 57 -239c0 -212 -104 -375 -224 -375c-70 0 -123 47 -163 118c-38 68 -61 148 -61 250zM255 692c-121 0 -128 -272 -128 -338c0 -142 24 -332 135 -332c99 0 123 215 123 333
c0 102 -15 337 -130 337z" />
    <glyph glyph-name="one" unicode="1" 
d="M82 639h11c74 0 145 30 188 86h31v-561c0 -47 3 -83 23 -103c23 -23 54 -28 109 -28v-33h-356v33c60 0 91 4 109 23c19 20 27 47 27 110v311c0 73 -9 101 -24 112c-21 15 -56 16 -118 17v33z" />
    <glyph glyph-name="two" unicode="2" 
d="M47 551c0 104 106 174 203 174c102 0 212 -71 212 -183c0 -58 -24 -101 -54 -139c-41 -51 -94 -89 -148 -133c-60 -49 -99 -93 -162 -192h122c134 0 163 9 211 117l29 -8l-44 -187h-382l-6 46c32 60 70 110 108 156c27 32 55 64 80 91c83 88 145 162 145 255
c0 73 -49 144 -126 144c-47 0 -100 -28 -100 -79c0 -33 27 -50 27 -83c0 -28 -24 -53 -53 -53c-39 0 -62 35 -62 74z" />
    <glyph glyph-name="three" unicode="3" 
d="M38 582c0 97 113 143 195 143c100 0 201 -63 201 -172c0 -85 -87 -150 -163 -170v-1c98 -14 191 -82 191 -190c0 -126 -121 -203 -237 -203c-80 0 -194 33 -194 132c0 33 15 66 52 66c36 0 55 -26 55 -59c0 -13 -5 -28 -5 -41c0 -47 53 -65 92 -65c99 0 132 99 132 181
c0 68 -29 159 -109 159c-23 0 -47 -9 -69 -9c-19 0 -35 8 -35 28s17 29 38 29c22 0 42 -8 60 -8c61 0 91 92 91 142c0 64 -30 148 -106 148c-39 0 -86 -23 -86 -66c0 -16 4 -33 4 -48c0 -29 -21 -54 -51 -54c-31 0 -56 27 -56 58z" />
    <glyph glyph-name="four" unicode="4" 
d="M25 224l297 501h44v-501h111v-46h-111v-30c0 -82 5 -115 71 -115h7v-33h-253v33c77 2 87 12 87 97v48h-253v46zM278 571l-204 -347h204v347z" />
    <glyph glyph-name="five" unicode="5" 
d="M100 714h334l-15 -71h-275l-16 -232c46 33 93 49 142 49c123 0 202 -111 202 -225c0 -132 -103 -246 -237 -246c-77 0 -191 52 -191 141c0 33 17 69 55 69c30 0 53 -25 53 -55c0 -19 -7 -37 -7 -56c0 -42 38 -66 79 -66c110 0 153 118 153 211c0 89 -41 184 -142 184
c-48 0 -90 -21 -123 -70l-34 15z" />
    <glyph glyph-name="six" unicode="6" 
d="M41 312c0 214 108 413 274 413c55 0 144 -38 144 -100c0 -32 -25 -56 -57 -56c-74 0 -21 123 -112 123c-118 0 -156 -261 -156 -345c45 52 99 102 173 102c109 0 179 -104 179 -205c0 -123 -87 -255 -219 -255c-145 0 -226 147 -226 323zM275 401
c-58 0 -114 -66 -139 -112c2 -246 84 -267 129 -267c102 0 126 132 126 210c0 91 -38 169 -116 169z" />
    <glyph glyph-name="seven" unicode="7" 
d="M79 714h389l6 -56c-28 -44 -53 -85 -75 -124c-118 -207 -143 -351 -143 -437c0 -26 0 -29 -1 -46c-2 -43 -21 -62 -52 -62c-37 0 -52 24 -52 62c0 158 156 408 223 520l46 77h-101c-34 0 -85 1 -102 1c-77 0 -118 -30 -150 -134l-29 7z" />
    <glyph glyph-name="eight" unicode="8" 
d="M71 528c0 115 86 197 199 197c87 0 185 -66 185 -160c0 -79 -64 -124 -124 -163c81 -39 150 -108 150 -200c0 -72 -59 -213 -232 -213c-109 0 -216 73 -216 189c0 92 92 154 166 184c-73 35 -128 88 -128 166zM261 692c-68 0 -121 -56 -121 -127c0 -72 95 -123 156 -147
c55 35 85 84 85 143c0 69 -42 131 -120 131zM229 348c-65 -34 -108 -96 -108 -167c0 -85 56 -159 144 -159c82 0 142 70 142 149c0 103 -105 133 -178 177z" />
    <glyph glyph-name="nine" unicode="9" 
d="M28 473c0 118 87 252 217 252c172 0 228 -185 228 -328c0 -129 -44 -266 -121 -342c-42 -41 -94 -66 -149 -66c-56 0 -146 35 -146 101c0 33 23 54 56 54c31 0 38 -17 43 -38c8 -36 15 -84 65 -84c108 0 158 222 158 326c0 3 0 14 -1 21c-44 -55 -96 -103 -174 -103
c-110 0 -176 106 -176 207zM247 692c-99 0 -124 -117 -124 -206c0 -79 28 -172 117 -172c62 0 106 63 138 113c-4 107 -11 265 -131 265z" />
    <glyph glyph-name="colon" unicode=":" horiz-adv-x="250" 
d="M62 436c0 35 27 64 62 64c36 0 64 -29 64 -65c0 -33 -30 -61 -64 -61c-33 0 -62 28 -62 62zM62 51c0 35 27 64 62 64c36 0 64 -29 64 -65c0 -33 -30 -61 -64 -61c-33 0 -62 28 -62 62z" />
    <glyph glyph-name="semicolon" unicode=";" horiz-adv-x="250" 
d="M64 436c0 35 27 64 62 64c36 0 64 -29 64 -65c0 -33 -30 -61 -64 -61c-33 0 -62 28 -62 62zM61 58c0 35 28 62 62 62c51 0 74 -49 74 -94c0 -78 -71 -141 -132 -179l-12 17c25 24 74 68 74 104c0 21 -16 24 -32 33c-17 10 -34 25 -34 57z" />
    <glyph glyph-name="less" unicode="&#x3c;" 
d="M35 295l430 205v-54l-373 -176l373 -176v-54l-430 205v50z" />
    <glyph glyph-name="equal" unicode="=" 
d="M39 367h421v-58h-421v58zM39 231h421v-58h-421v58z" />
    <glyph glyph-name="greater" unicode="&#x3e;" 
d="M35 500l430 -205v-50l-430 -205v54l373 176l-373 176v54z" />
    <glyph glyph-name="question" unicode="?" horiz-adv-x="395" 
d="M47 663c0 56 65 80 114 80c112 0 199 -103 199 -213c0 -118 -80 -193 -201 -194v-136h-42v215h29c109 0 140 78 140 142c0 44 -19 128 -75 128c-63 0 -53 -72 -112 -72c-29 0 -52 18 -52 50zM81 51c0 35 27 64 62 64c36 0 64 -29 64 -65c0 -33 -30 -61 -64 -61
c-33 0 -62 28 -62 62z" />
    <glyph glyph-name="at" unicode="@" horiz-adv-x="851" 
d="M75 368c0 204 161 375 364 375c178 0 337 -123 337 -315c0 -176 -141 -284 -241 -284c-35 0 -76 20 -82 58c-36 -37 -81 -57 -121 -57c-77 0 -120 67 -120 140c0 129 87 303 231 303c41 0 89 -17 100 -60l16 47h83l-92 -273c-2 -6 -27 -84 -27 -103c0 -13 9 -21 25 -21
c65 0 185 91 185 254c0 154 -141 268 -288 268c-179 0 -326 -144 -326 -328c0 -188 137 -339 324 -339c114 0 226 66 280 169h44c-50 -131 -190 -213 -326 -213c-206 0 -366 170 -366 379zM464 559c-104 0 -175 -241 -175 -324c0 -37 24 -61 58 -61c83 0 118 130 124 148
l44 130c2 6 8 18 8 34c0 33 -15 73 -59 73z" />
    <glyph glyph-name="A" unicode="A" horiz-adv-x="658" 
d="M289 732l94 25l177 -529c52 -156 63 -184 136 -195v-33h-294v33h1c34 3 96 -7 96 45c0 14 -5 28 -17 65l-41 122h-255c-20 -61 -53 -142 -53 -174c0 -53 57 -58 94 -58v-33h-256v33c86 1 113 84 136 153zM315 647l-113 -336h225z" />
    <glyph glyph-name="B" unicode="B" horiz-adv-x="685" 
d="M33 732h265c168 0 302 -32 302 -171c0 -118 -95 -159 -213 -175v-3c114 -3 255 -56 255 -185c0 -168 -195 -198 -284 -198h-325v33c74 0 92 21 92 129v408c0 107 -18 129 -92 129v33zM224 602v-199h64c148 0 207 52 207 153s-85 143 -182 143c-70 0 -89 -28 -89 -97z
M224 370v-242c0 -75 28 -95 95 -95c122 0 208 47 208 161c0 157 -134 176 -255 176h-48z" />
    <glyph glyph-name="C" unicode="C" horiz-adv-x="685" 
d="M46 339c0 107 41 212 106 292c54 67 127 112 210 112c70 0 99 -31 147 -31c25 0 45 9 68 21l67 -181l-25 -12c-54 71 -151 162 -245 162c-166 0 -213 -179 -213 -313c0 -145 74 -339 245 -339c107 0 178 74 229 160l21 -12c-52 -114 -151 -209 -288 -209
c-197 0 -322 163 -322 350z" />
    <glyph glyph-name="D" unicode="D" horiz-adv-x="764" 
d="M32 732h292c117 0 187 -29 247 -72c90 -65 134 -164 134 -283c0 -259 -184 -377 -395 -377h-278v33c75 0 94 22 94 129v408c0 106 -19 129 -94 129v33zM225 594v-444c0 -98 28 -117 97 -117c196 0 268 152 268 340c0 215 -88 326 -270 326c-77 0 -95 -20 -95 -105z" />
    <glyph glyph-name="E" unicode="E" horiz-adv-x="658" 
d="M33 732h523l70 -171l-25 -15c-88 118 -122 153 -268 153c-96 0 -108 -13 -108 -104v-197h27c100 0 171 9 179 125h28v-287h-29c0 92 -40 130 -132 130c-27 0 -16 -1 -73 -1v-238c0 -78 18 -94 103 -94c159 0 190 39 291 167l24 -10l-74 -190h-536v33c74 0 93 22 93 129
v408c0 106 -19 129 -93 129v33z" />
    <glyph glyph-name="F" unicode="F" horiz-adv-x="606" 
d="M32 732h528l66 -173l-24 -16c-88 118 -126 156 -281 156c-85 0 -96 -29 -96 -123v-182h26c100 0 173 9 180 125h28v-287h-29c0 92 -40 130 -132 130c-27 0 -16 -1 -73 -1v-199c0 -110 22 -128 110 -129v-33h-303v33c75 0 94 22 94 129v408c0 106 -19 129 -94 129v33z" />
    <glyph glyph-name="G" unicode="G" horiz-adv-x="737" 
d="M505 725c28 0 50 9 76 23l67 -188l-29 -13c-67 108 -145 163 -229 163c-174 0 -225 -233 -225 -370c0 -134 72 -318 232 -318c110 0 146 68 146 176c0 86 -27 96 -111 96v33h285v-33c-76 -3 -86 -42 -86 -113v-163c-19 6 -30 8 -43 8c-67 0 -128 -37 -212 -37
c-210 0 -326 163 -326 360c0 184 116 394 320 394c56 0 98 -18 135 -18z" />
    <glyph glyph-name="H" unicode="H" horiz-adv-x="764" 
d="M33 732h285v-33c-74 0 -93 -23 -93 -129v-171h311v171c0 107 -18 129 -92 129v33h286v-33c-77 0 -95 -23 -95 -129v-408c0 -107 18 -129 95 -129v-33h-286v33c74 0 92 21 92 129v191h-311v-191c0 -107 19 -129 93 -129v-33h-285v33c74 0 93 22 93 129v408
c0 106 -19 129 -93 129v33z" />
    <glyph glyph-name="I" unicode="I" horiz-adv-x="342" 
d="M32 732h288v-33c-76 0 -95 -23 -95 -129v-408c0 -106 19 -129 95 -129v-33h-288v33c75 0 94 22 94 129v408c0 106 -19 129 -94 129v33z" />
    <glyph glyph-name="J" unicode="J" horiz-adv-x="395" 
d="M66 732h295v-33c-77 -1 -96 -21 -96 -129v-427c0 -112 -22 -162 -59 -201c-58 -61 -123 -75 -160 -75c-43 0 -89 25 -89 72c0 37 26 61 61 61c68 0 57 -80 101 -80c17 0 32 12 37 31c6 22 10 53 10 108v511c0 109 -20 128 -100 129v33z" />
    <glyph glyph-name="K" unicode="K" horiz-adv-x="711" 
d="M33 732h287v-33c-74 0 -93 -22 -93 -129v-222l223 225c23 23 65 61 65 86c0 41 -49 39 -79 40v33h278v-33c-100 -2 -178 -95 -233 -151l-90 -91l188 -287c43 -65 83 -137 161 -137h11v-33h-308v33h24c25 0 59 2 59 28c0 20 -30 58 -34 64l-172 260l-93 -95v-128
c0 -108 19 -129 93 -129v-33h-287v33c77 0 95 22 95 129v408c0 107 -19 129 -95 129v33z" />
    <glyph glyph-name="L" unicode="L" horiz-adv-x="579" 
d="M34 732h290v-33c-77 -1 -96 -21 -96 -129v-428c0 -85 15 -109 107 -109c133 0 192 50 259 163l27 -12l-69 -184h-518v33c77 0 95 22 95 129v408c0 107 -19 129 -95 129v33z" />
    <glyph glyph-name="M" unicode="M" horiz-adv-x="948" 
d="M34 732h216l219 -582l220 582h217v-33c-76 0 -95 -23 -95 -129v-408c0 -106 19 -129 95 -129v-33h-289v33c76 0 95 23 95 129v492h-3l-248 -654h-38l-246 658h-3v-496c0 -108 19 -129 93 -129v-33h-233v33c76 0 94 22 94 129v408c0 107 -19 129 -94 129v33z" />
    <glyph glyph-name="N" unicode="N" horiz-adv-x="764" 
d="M33 732h174l387 -545v383c0 107 -18 129 -93 129v33h232v-33c-74 0 -93 -23 -93 -129v-570h-34l-433 609v-447c0 -108 19 -129 93 -129v-33h-233v33c75 0 94 22 94 129v408c0 106 -19 129 -94 129v33z" />
    <glyph glyph-name="O" unicode="O" horiz-adv-x="764" 
d="M51 366c0 190 120 377 326 377c209 0 324 -193 324 -383c0 -194 -120 -371 -327 -371c-210 0 -323 188 -323 377zM376 710c-161 0 -210 -204 -210 -340c0 -124 44 -348 208 -348c172 0 212 213 212 346c0 124 -40 342 -210 342z" />
    <glyph glyph-name="P" unicode="P" horiz-adv-x="606" 
d="M34 732h351c88 0 221 -45 221 -190c0 -129 -98 -198 -284 -198h-94v-182c0 -107 18 -129 94 -129v-33h-288v33c77 0 95 22 95 129v408c0 107 -19 129 -95 129v33zM228 586v-209h26c135 0 247 20 247 171c0 100 -63 151 -175 151c-86 0 -98 -34 -98 -113z" />
    <glyph glyph-name="Q" unicode="Q" horiz-adv-x="764" 
d="M51 357c0 189 110 386 323 386c209 0 327 -186 327 -379c0 -142 -51 -249 -155 -326c13 -41 63 -99 110 -99c14 0 32 5 53 15l14 -21c-38 -30 -85 -55 -131 -55c-64 0 -106 53 -129 123c-30 -9 -60 -12 -89 -12c-200 0 -323 181 -323 368zM373 710
c-163 0 -207 -213 -207 -350c0 -76 12 -166 49 -232c9 54 55 80 107 80c75 0 145 -57 185 -120c59 63 79 183 79 272c0 127 -35 350 -213 350zM322 175c-35 0 -74 -22 -74 -63c0 -58 70 -90 123 -90c27 0 54 5 77 16c-21 79 -62 137 -126 137z" />
    <glyph glyph-name="R" unicode="R" horiz-adv-x="632" 
d="M33 732h299c81 0 262 -26 262 -183c0 -102 -92 -171 -188 -183l126 -224c47 -83 52 -109 130 -109h5v-33h-166l-205 357h-71v-195c0 -107 19 -129 93 -129v-33h-285v33c74 0 93 22 93 129v432c0 73 -18 104 -93 105v33zM225 602v-212h73c97 0 191 53 191 159
c0 96 -84 150 -179 150c-75 0 -85 -28 -85 -97z" />
    <glyph glyph-name="S" unicode="S" horiz-adv-x="553" 
d="M49 539c0 127 89 204 212 204c63 0 88 -29 134 -29c21 0 39 7 49 19l66 -176l-29 -14c-69 110 -145 167 -225 167c-76 0 -133 -59 -133 -133c0 -53 35 -89 83 -113c120 -60 334 -58 334 -262c0 -130 -102 -213 -224 -213c-64 0 -116 29 -157 29c-22 0 -45 -14 -61 -29
l-73 195l30 14c58 -76 148 -176 255 -176c76 0 148 51 148 135c0 231 -409 115 -409 382z" />
    <glyph glyph-name="T" unicode="T" horiz-adv-x="632" 
d="M32 732h577l70 -185l-25 -11c-56 110 -154 163 -231 163c-47 0 -55 -31 -55 -69c0 -13 1 -26 1 -39v-429c0 -110 20 -128 105 -129v-33h-308v33c84 1 104 19 104 129v429c0 13 1 26 1 39c0 41 -10 69 -56 69c-97 0 -181 -71 -228 -163l-27 11z" />
    <glyph glyph-name="U" unicode="U" horiz-adv-x="737" 
d="M28 732h283v-33c-77 -1 -96 -21 -96 -129v-296c0 -182 66 -244 183 -244c146 0 184 91 184 250v290c0 107 -18 129 -90 129v33h229v-33c-74 0 -93 -22 -93 -129v-320c0 -174 -82 -261 -259 -261c-176 0 -253 105 -253 231v350c0 106 -18 129 -88 129v33z" />
    <glyph glyph-name="V" unicode="V" horiz-adv-x="658" 
d="M-22 732h305v-33h-12c-31 0 -71 -2 -71 -41c0 -26 20 -74 24 -86l140 -409l125 356c6 19 35 98 35 132c0 48 -47 42 -84 48v33h249v-33c-12 -1 -25 -1 -35 -3c-35 -6 -51 -22 -71 -59c-18 -33 -36 -90 -40 -102l-191 -535h-33l-203 586c-28 80 -29 113 -124 113h-14v33z
" />
    <glyph glyph-name="W" unicode="W" horiz-adv-x="948" 
d="M-22 732h286v-33c-28 -2 -74 1 -74 -37c0 -24 16 -67 16 -68l114 -407l124 423c-14 57 -44 89 -92 89h-9v33h287v-33h-14c-33 0 -74 -2 -74 -41c0 -11 5 -35 7 -43l120 -428l102 349c16 56 25 90 25 114c0 50 -51 46 -86 49v33h260v-33h-9c-100 0 -119 -83 -143 -162
l-164 -537h-32l-156 542l-160 -542h-32l-158 559c-20 73 -34 140 -125 140h-13v33z" />
    <glyph glyph-name="X" unicode="X" horiz-adv-x="632" 
d="M-22 732h296v-33h-1c-20 -2 -69 3 -69 -27c0 -26 24 -61 40 -88l81 -135l78 122c31 49 46 75 46 91c0 38 -47 33 -72 37v33h246v-33h-4c-78 0 -106 -40 -149 -107l-119 -185l154 -263c30 -52 66 -111 138 -111h7v-33h-294v33c22 1 75 -4 75 34c0 20 -24 57 -34 73
l-104 175l-64 -98c-42 -66 -72 -113 -72 -141c0 -40 49 -43 75 -43v-33h-254v33c95 0 115 48 155 111l134 212l-117 196c-55 91 -73 147 -172 147v33z" />
    <glyph glyph-name="Y" unicode="Y" horiz-adv-x="632" 
d="M-22 732h292v-33h-14c-24 0 -73 0 -73 -35c0 -15 20 -50 29 -66l141 -242l101 189c20 37 49 80 49 111c0 47 -50 40 -83 43h-1v33h248v-33h-9c-76 0 -102 -63 -133 -120l-144 -264v-153c0 -107 18 -129 95 -129v-33h-290v33c78 0 96 22 96 129v120l-161 285
c-30 54 -63 132 -138 132h-5v33z" />
    <glyph glyph-name="Z" unicode="Z" horiz-adv-x="579" 
d="M111 732h470l-441 -699h131c111 0 214 61 269 163l33 -13l-72 -183h-497l444 699h-71c-154 0 -226 -34 -301 -157l-30 13z" />
    <glyph glyph-name="bracketleft" unicode="[" horiz-adv-x="395" 
d="M142 767h185v-39h-102v-808h102v-40h-185v887z" />
    <glyph glyph-name="backslash" unicode="\" horiz-adv-x="250" 
d="M-83 739h72l343 -739h-70z" />
    <glyph glyph-name="bracketright" unicode="]" horiz-adv-x="395" 
d="M76 767h185v-887h-185v40h102v808h-102v39z" />
    <glyph glyph-name="asciicircum" unicode="^" 
d="M15 302l215 430h47l208 -430h-54l-176 373l-186 -373h-54z" />
    <glyph glyph-name="underscore" unicode="_" 
d="M0 -75h500v-50h-500v50z" />
    <glyph glyph-name="quoteleft" unicode="&#x2018;" horiz-adv-x="210" 
d="M174 532c0 -35 -27 -62 -63 -62c-49 0 -73 49 -73 94c0 73 63 136 132 179l12 -17c-15 -15 -74 -64 -74 -104c0 -26 26 -25 45 -42c11 -10 21 -22 21 -48z" />
    <glyph glyph-name="a" unicode="a" horiz-adv-x="474" 
d="M53 385c0 82 114 115 183 115c66 0 109 -18 131 -39c30 -29 31 -71 31 -98v-248c0 -54 18 -60 30 -60c18 0 30 13 41 25l13 -21c-24 -36 -54 -70 -102 -70c-41 0 -64 31 -68 70c-50 -40 -103 -70 -160 -70c-70 0 -118 48 -118 119c0 133 173 167 276 187v70
c0 67 -23 102 -70 102c-56 0 -72 -40 -82 -76c-8 -27 -20 -50 -58 -50c-28 0 -47 17 -47 44zM310 262c-72 -12 -181 -60 -181 -143c0 -47 33 -77 73 -77c36 0 82 28 108 57v163z" />
    <glyph glyph-name="b" unicode="b" horiz-adv-x="553" 
d="M180 767v-333c36 35 89 66 140 66c125 0 191 -134 191 -243c0 -116 -72 -268 -204 -268c-42 0 -87 22 -134 74l-69 -68h-12v604c0 82 -18 77 -84 82h-1v29zM278 447c-39 0 -72 -27 -97 -54v-301c30 -24 60 -50 100 -50c100 0 135 130 135 211c0 79 -39 194 -138 194z" />
    <glyph glyph-name="c" unicode="c" horiz-adv-x="474" 
d="M28 232c0 149 102 268 254 268c60 0 165 -36 165 -105c0 -29 -25 -50 -54 -50c-74 0 -45 122 -141 122c-104 0 -123 -138 -123 -212c0 -98 54 -213 164 -213c68 0 112 44 155 91l15 -14c-50 -76 -123 -130 -211 -130c-131 0 -224 119 -224 243z" />
    <glyph glyph-name="d" unicode="d" horiz-adv-x="553" 
d="M460 767v-650c0 -77 7 -80 68 -88v-29h-156v57c-38 -38 -85 -68 -137 -68c-133 0 -194 136 -194 253c0 193 115 258 187 258c58 0 104 -31 144 -65v164c0 82 -18 77 -84 82h-1v29zM260 457c-94 0 -124 -132 -124 -213c0 -80 26 -212 125 -212c40 0 82 31 111 62v300
c-23 24 -66 63 -112 63z" />
    <glyph glyph-name="e" unicode="e" 
d="M32 240c0 128 89 260 229 260c125 0 211 -107 211 -225h-339c0 -104 31 -243 154 -243c65 0 123 35 164 91l17 -16c-41 -67 -110 -118 -194 -118c-140 0 -242 114 -242 251zM259 467c-76 0 -118 -73 -121 -154h233c0 6 1 11 1 17c0 57 -27 137 -113 137z" />
    <glyph glyph-name="f" unicode="f" horiz-adv-x="289" 
d="M99 489c1 60 9 108 29 145c40 76 105 109 151 109c33 0 68 -18 68 -53c0 -26 -22 -44 -47 -44c-33 0 -44 37 -77 37c-19 0 -36 -11 -36 -65v-129h119v-33h-119v-339c0 -72 5 -88 78 -88h25v-29h-286v29h22c72 0 73 23 73 90v337h-95v33h95z" />
    <glyph glyph-name="g" unicode="g" horiz-adv-x="553" 
d="M394 452c41 40 76 53 103 53c31 0 51 -25 51 -54c0 -24 -17 -48 -41 -48c-37 0 -41 40 -76 40c-5 0 -11 -2 -19 -9c29 -29 40 -79 40 -115c0 -106 -100 -175 -196 -175c-24 0 -59 5 -83 15c-10 -4 -29 -10 -29 -25c0 -24 50 -36 84 -44l79 -19c77 -18 186 -37 186 -124
c0 -111 -156 -123 -237 -123c-78 0 -248 12 -248 100c0 71 100 88 151 105c-36 13 -104 30 -104 71c0 40 50 64 89 73c-55 32 -85 90 -85 152c0 109 100 175 201 175c48 0 98 -14 134 -48zM257 467c-72 0 -103 -81 -103 -149c0 -66 30 -141 106 -141s97 78 97 138
c0 55 -24 152 -100 152zM344 -21l-134 38c-24 -8 -114 -30 -114 -89c0 -62 107 -71 170 -71c61 0 152 10 152 63c0 19 -9 41 -74 59z" />
    <glyph glyph-name="h" unicode="h" horiz-adv-x="579" 
d="M184 767v-345c44 40 115 78 177 78c84 0 126 -47 126 -174v-209c0 -76 7 -81 67 -88v-29h-222v29c61 8 67 12 67 88v208c0 103 -41 122 -81 122c-51 0 -96 -33 -134 -67v-263c0 -77 7 -80 68 -88v-29h-223v29c60 7 67 12 67 88v482c0 82 -18 77 -84 82h-1v29z" />
    <glyph glyph-name="i" unicode="i" horiz-adv-x="263" 
d="M54 676c0 37 29 67 66 67s67 -30 67 -67c0 -36 -30 -66 -66 -66c-37 0 -67 29 -67 66zM178 507v-390c0 -77 7 -80 68 -88v-29h-224v30c61 8 68 12 68 88v234c-3 55 -5 72 -65 72v24z" />
    <glyph glyph-name="j" unicode="j" horiz-adv-x="237" 
d="M48 676c0 37 28 67 65 67s68 -30 68 -67c0 -36 -31 -66 -66 -66c-37 0 -67 29 -67 66zM176 507v-474c0 -65 -5 -112 -27 -145c-39 -58 -95 -75 -127 -75c-35 0 -73 19 -73 60c0 28 26 52 54 52c52 0 36 -64 66 -64c17 0 20 19 20 35l-1 19v438c0 60 -13 70 -64 71v24z
" />
    <glyph glyph-name="k" unicode="k" horiz-adv-x="553" 
d="M180 767v-535l109 110c31 32 60 56 60 83c0 29 -25 34 -51 35v29h233v-29c-62 -2 -95 -31 -146 -79l-78 -74l140 -201c27 -39 49 -77 108 -77v-29h-239v29c20 0 54 2 54 29c0 18 -25 52 -33 64l-91 128l-66 -62v-71c0 -76 7 -81 69 -88v-29h-225v29c61 8 68 11 68 88v482
c0 82 -18 77 -84 82h-1v29z" />
    <glyph glyph-name="l" unicode="l" horiz-adv-x="263" 
d="M184 767v-650c0 -76 7 -81 69 -88v-29h-224v29c60 8 67 11 67 88v482c0 82 -18 77 -85 82v29z" />
    <glyph glyph-name="m" unicode="m" horiz-adv-x="843" 
d="M178 507v-99c40 52 101 92 166 92c58 0 100 -41 119 -92c49 48 101 92 171 92c45 0 80 -17 99 -43c23 -31 29 -70 29 -127v-213c0 -76 7 -81 67 -88v-29h-223v29c61 8 68 11 68 88v214c0 63 -11 116 -73 116c-50 0 -96 -35 -131 -73v-257c0 -77 7 -80 68 -88v-29h-223v29
c60 8 67 11 67 88v208c0 66 -13 122 -76 122c-47 0 -92 -30 -128 -73v-257c0 -77 7 -80 68 -88v-29h-224v29c61 8 68 11 68 88v235c-3 55 -5 72 -65 72v24z" />
    <glyph glyph-name="n" unicode="n" horiz-adv-x="553" 
d="M178 507v-85c40 43 102 78 157 78c37 0 71 -15 94 -38c25 -25 35 -64 35 -120v-225c0 -76 7 -81 67 -88v-29h-224v29c62 7 69 12 69 88v203c0 69 -14 127 -83 127c-38 0 -75 -26 -115 -66v-264c0 -76 7 -81 67 -88v-29h-223v29c61 8 68 11 68 88v228c0 73 -15 78 -65 79
v24z" />
    <glyph glyph-name="o" unicode="o" horiz-adv-x="527" 
d="M37 236c0 130 86 264 227 264c139 0 222 -136 222 -263c0 -128 -95 -248 -228 -248c-128 0 -221 124 -221 247zM263 467c-97 0 -125 -126 -125 -209c0 -72 23 -236 120 -236c103 0 127 155 127 234c0 68 -21 211 -122 211z" />
    <glyph glyph-name="p" unicode="p" horiz-adv-x="527" 
d="M170 507v-71c43 37 87 64 142 64c119 0 190 -124 190 -244c0 -135 -68 -267 -204 -267c-48 0 -93 25 -128 61v-108c0 -77 7 -80 67 -89v-29h-223v29c61 9 68 12 68 89v410c0 66 -19 71 -66 72v24zM170 397v-307c36 -34 69 -58 107 -58c108 0 130 135 130 222
s-27 203 -132 203c-32 0 -78 -29 -105 -60z" />
    <glyph glyph-name="q" unicode="q" horiz-adv-x="553" 
d="M381 435l78 86h10v-579c0 -77 7 -81 70 -89v-29h-229v29c64 9 71 14 71 90v111c-49 -44 -96 -65 -144 -65c-132 0 -200 140 -200 256c0 117 75 255 205 255c50 0 99 -24 139 -65zM273 447c-99 0 -141 -103 -141 -198c0 -86 27 -217 134 -217c51 0 82 33 115 60v306
c-29 27 -69 49 -108 49z" />
    <glyph glyph-name="r" unicode="r" horiz-adv-x="395" 
d="M175 507v-118c35 43 97 118 164 118c33 0 62 -23 62 -58c0 -31 -21 -56 -54 -56c-35 0 -48 26 -80 26c-35 0 -75 -46 -92 -74v-228c0 -76 6 -80 67 -88v-29h-221v29c60 7 66 12 66 88v235c-3 55 -5 72 -65 72v24z" />
    <glyph glyph-name="s" unicode="s" horiz-adv-x="448" 
d="M303 484c17 0 31 7 45 23l58 -163l-24 -13c-46 59 -107 136 -190 136c-39 0 -79 -27 -79 -68c0 -122 314 -76 314 -259c0 -86 -83 -151 -163 -151c-43 0 -77 23 -103 23c-21 0 -42 -10 -58 -23l-62 170l22 11c38 -63 132 -148 207 -148c46 0 88 35 88 82
c0 129 -311 73 -311 254c0 86 79 142 157 142c36 0 71 -16 99 -16z" />
    <glyph glyph-name="t" unicode="t" horiz-adv-x="309" 
d="M9 480c74 31 119 108 128 184h33v-175h140v-33h-140v-320c0 -45 3 -94 57 -94c40 0 64 26 88 50l17 -20c-39 -44 -88 -83 -149 -83c-64 0 -101 37 -101 138v329h-73v24z" />
    <glyph glyph-name="u" unicode="u" horiz-adv-x="553" 
d="M167 507v-360c0 -64 30 -105 82 -105c48 0 86 38 120 71v239c-3 55 -5 72 -65 72v24l153 59v-390c0 -76 7 -81 69 -88v-29h-156v71c-56 -56 -108 -82 -158 -82c-47 0 -83 19 -103 45c-27 36 -30 83 -30 125v193c-3 55 -5 72 -65 72v24z" />
    <glyph glyph-name="v" unicode="v" horiz-adv-x="474" 
d="M-14 489h222v-29c-24 0 -64 -3 -64 -38c0 -17 12 -47 21 -69l89 -229l80 212c15 40 22 58 22 74c0 32 -24 50 -66 50v29h198v-29c-31 -1 -41 -4 -57 -29c-12 -19 -24 -52 -46 -107l-129 -324h-48l-139 353c-30 75 -37 105 -83 107v29z" />
    <glyph glyph-name="w" unicode="w" horiz-adv-x="711" 
d="M-9 489h204v-29c-23 0 -45 -8 -45 -29c0 -14 7 -31 9 -37l87 -252l92 247c-17 49 -41 70 -86 71v29h213v-29c-19 0 -55 0 -55 -26c0 -5 1 -16 10 -41l86 -244l91 244c2 5 4 12 4 20c0 31 -26 47 -70 47h-4v29h198v-29h-5c-52 0 -73 -57 -90 -106l-127 -354h-30l-112 318
l-120 -318h-26l-132 360c-16 45 -29 100 -85 100h-7v29z" />
    <glyph glyph-name="x" unicode="x" horiz-adv-x="527" 
d="M-8 489h239v-29h-8c-23 0 -52 -2 -52 -26c0 -20 27 -50 38 -63l57 -71l49 64c16 21 37 44 37 64c0 32 -35 32 -58 32v29h211v-29h-8c-51 0 -78 -35 -114 -82l-89 -116l107 -133c20 -25 70 -99 130 -100v-29h-232v29c12 1 48 -1 48 22c0 15 -20 34 -33 50l-75 93l-52 -67
c-22 -29 -38 -43 -38 -62c0 -34 46 -36 67 -36v-29h-220v29c62 8 100 56 148 117l67 85l-121 152c-33 41 -62 75 -98 77v29z" />
    <glyph glyph-name="y" unicode="y" 
d="M-14 489h226v-29c-25 0 -60 -2 -60 -29c0 -18 9 -37 22 -72l88 -234l85 218c11 29 21 58 21 75c0 39 -46 42 -74 42v29h213v-29c-38 -1 -49 -8 -65 -27c-18 -22 -28 -48 -49 -100l-143 -356c-25 -61 -55 -164 -155 -164c-38 0 -78 25 -78 66c0 31 25 51 53 51
c39 0 49 -39 75 -39c41 0 58 87 72 117l-134 338c-30 76 -38 113 -97 114v29z" />
    <glyph glyph-name="z" unicode="z" horiz-adv-x="448" 
d="M103 489h349l-324 -460c25 0 47 0 69 1c84 5 152 31 211 148l31 -13l-58 -165h-377l325 460h-38c-91 0 -163 -26 -219 -137l-27 14z" />
    <glyph glyph-name="braceleft" unicode="{" horiz-adv-x="395" 
d="M162 620c0 113 42 147 150 147h16v-3c-59 -15 -90 -39 -90 -111v-197c0 -80 -32 -110 -100 -124v-2c76 -13 100 -51 100 -132v-183c0 -61 27 -95 90 -111v-3h-16c-109 0 -150 35 -150 147v177c0 71 -27 92 -91 105v2c65 18 91 41 91 111v177z" />
    <glyph glyph-name="bar" unicode="|" horiz-adv-x="250" 
d="M90 750h71v-1000h-71v1000z" />
    <glyph glyph-name="braceright" unicode="}" horiz-adv-x="395" 
d="M228 225v-177c0 -113 -42 -147 -150 -147h-16v3c59 15 90 39 90 111v197c0 80 32 110 100 124v2c-76 13 -100 51 -100 132v183c0 61 -27 95 -90 111v3h16c109 0 150 -35 150 -147v-177c0 -71 27 -92 91 -105v-2c-65 -18 -91 -41 -91 -111z" />
    <glyph glyph-name="asciitilde" unicode="~" 
d="M350 264c41 0 62 37 79 71l38 -30c-30 -53 -59 -102 -116 -102c-29 0 -52 13 -80 26c-42 20 -84 44 -116 44c-43 0 -64 -40 -86 -79l-36 31c29 54 62 107 124 107c28 0 62 -15 96 -32s71 -36 97 -36z" />
    <glyph glyph-name="exclamdown" unicode="&#xa1;" horiz-adv-x="263" 
d="M73 436c0 35 27 64 62 64c36 0 64 -29 64 -65c0 -33 -30 -61 -64 -61c-33 0 -62 28 -62 62zM76 -129c0 15 3 35 9 68c11 64 32 155 36 385h32c5 -232 23 -309 34 -373c6 -34 11 -60 11 -80c0 -36 -21 -69 -61 -69c-39 0 -61 32 -61 69z" />
    <glyph glyph-name="cent" unicode="&#xa2;" 
d="M253 615v124h46v-120h1c60 0 160 -40 160 -105c0 -30 -23 -54 -53 -54c-45 0 -49 45 -70 82c-13 23 -33 44 -71 44c-100 0 -122 -128 -122 -206c0 -124 57 -218 167 -218c52 0 103 28 150 88l16 -14c-41 -64 -104 -115 -178 -127v-130h-46v130h-1
c-124 11 -203 122 -203 243c0 129 69 240 204 263z" />
    <glyph glyph-name="sterling" unicode="&#xa3;" 
d="M93 534c0 58 22 104 56 138s83 53 134 53c67 0 106 -23 135 -52c33 -34 45 -72 45 -97c0 -31 -20 -59 -52 -59c-30 0 -51 25 -51 54c0 15 4 30 4 44c0 46 -30 80 -78 80c-69 0 -105 -63 -105 -127s22 -125 36 -193h180v-46h-168c9 -39 13 -72 13 -101
c0 -32 -7 -64 -21 -103c38 -23 110 -58 157 -58c71 0 92 48 98 114v1h33v-9c0 -91 -49 -184 -143 -184c-52 0 -116 30 -178 74c-25 -38 -56 -74 -105 -74c-50 0 -90 33 -90 86c0 54 50 90 102 90c30 0 53 -11 82 -21c0 48 -8 101 -37 185h-99v46h83c-16 51 -31 105 -31 159z
M74 124c-25 0 -48 -24 -48 -50c0 -31 28 -52 57 -52c36 0 66 22 80 57c-35 29 -59 45 -89 45z" />
    <glyph glyph-name="fraction" unicode="&#x2044;" horiz-adv-x="90" 
d="M-138 0l380 725h42l-379 -725h-43z" />
    <glyph glyph-name="yen" unicode="&#xa5;" 
d="M-11 714h223v-33c-24 0 -47 -6 -47 -35c0 -18 15 -56 19 -67l86 -236l83 233c0 1 19 47 19 66c0 21 -14 37 -52 39v33h193v-33c-68 0 -96 -74 -116 -127l-35 -92h111v-50h-129l-32 -85h161v-50h-170v-157c0 -67 19 -87 86 -87h5v-33h-282v33h4c70 0 88 23 88 94v150h-174
v50h162l-31 85h-131v50h111l-33 89c-32 88 -63 128 -119 130v33z" />
    <glyph glyph-name="florin" unicode="&#x192;" 
d="M252 481c37 108 112 262 220 262c38 0 84 -21 84 -63c0 -22 -16 -41 -39 -41c-33 0 -43 38 -81 38c-64 0 -88 -142 -99 -196h86l-9 -53h-85l-89 -355c-14 -57 -65 -236 -187 -236c-36 0 -83 23 -83 62c0 21 17 38 38 38c30 0 46 -34 86 -34c29 0 41 25 55 68
c15 46 24 111 37 190l11 67c12 73 23 137 38 200h-80l8 53h89z" />
    <glyph glyph-name="section" unicode="&#xa7;" 
d="M92 586c0 103 93 157 183 157c73 0 174 -49 174 -132c0 -34 -18 -64 -54 -64c-27 0 -46 23 -46 49c0 17 11 30 11 50c0 50 -45 68 -91 68c-59 0 -115 -34 -115 -97c0 -139 302 -161 302 -336c0 -48 -22 -96 -84 -141c54 -41 83 -96 83 -153c0 -108 -106 -174 -207 -174
c-94 0 -140 43 -168 85c-18 27 -23 54 -23 72c0 35 20 72 58 72c27 0 50 -25 50 -53c0 -19 -17 -41 -17 -73c0 -54 58 -74 102 -74c68 0 137 37 137 113c0 160 -325 170 -325 353c0 71 42 108 101 141c-47 39 -71 86 -71 137zM182 434c-28 -18 -58 -53 -58 -86
c0 -85 150 -146 219 -190c25 27 44 49 44 83c0 96 -146 139 -205 193z" />
    <glyph glyph-name="currency" unicode="&#xa4;" 
d="M42 590l53 -52c42 35 94 52 146 52c51 0 107 -18 146 -52l52 52l29 -29l-52 -52c35 -43 52 -91 52 -147c0 -59 -20 -106 -52 -143l52 -54l-29 -28l-52 53c-45 -38 -96 -54 -148 -54c-51 0 -101 20 -144 54l-53 -53l-29 28l54 54c-33 39 -53 92 -53 143
c0 52 19 107 53 147l-54 52zM240 537c-92 0 -173 -77 -173 -174c0 -94 78 -174 173 -174c96 0 175 75 175 172c0 95 -74 176 -175 176z" />
    <glyph glyph-name="quotesingle" unicode="'" horiz-adv-x="211" 
d="M61 672c0 30 5 71 43 71s46 -41 46 -75c0 -18 -1 -25 -6 -67l-26 -225c-2 -19 -1 -49 -18 -49c-14 0 -14 20 -16 42l-16 204c-6 70 -7 82 -7 99z" />
    <glyph glyph-name="quotedblleft" unicode="&#x201c;" horiz-adv-x="395" 
d="M174 532c0 -35 -27 -62 -63 -62c-49 0 -73 49 -73 94c0 73 63 136 132 179l12 -17c-15 -15 -74 -64 -74 -104c0 -26 26 -25 45 -42c11 -10 21 -22 21 -48zM357 532c0 -35 -27 -62 -63 -62c-49 0 -73 49 -73 94c0 73 63 136 132 179l12 -17c-15 -15 -74 -64 -74 -104
c0 -26 26 -25 45 -42c11 -10 21 -22 21 -48z" />
    <glyph glyph-name="guillemotleft" unicode="&#xab;" horiz-adv-x="474" 
d="M43 253l201 174l13 -15l-112 -159l112 -153l-13 -14zM219 253l200 174l13 -15l-112 -159l112 -153l-13 -14z" />
    <glyph glyph-name="guilsinglleft" unicode="&#x2039;" horiz-adv-x="289" 
d="M43 253l201 174l13 -15l-112 -159l112 -153l-13 -14z" />
    <glyph glyph-name="guilsinglright" unicode="&#x203a;" horiz-adv-x="289" 
d="M57 427l200 -174l-200 -167l-14 14l112 153l-112 159z" />
    <glyph glyph-name="endash" unicode="&#x2013;" 
d="M0 293h500v-73h-500v73z" />
    <glyph glyph-name="dagger" unicode="&#x2020;" 
d="M190 679c0 33 25 64 60 64s60 -31 60 -64c0 -43 -40 -84 -44 -184h6c70 0 95 32 126 32c28 0 53 -22 53 -50c0 -29 -25 -50 -53 -50c-31 0 -55 32 -126 32h-6c0 -61 15 -102 40 -130c-33 -63 -40 -133 -40 -178v-338h-33v339c0 46 -7 116 -39 177c28 32 39 74 39 130h-6
c-70 0 -96 -32 -126 -32c-27 0 -52 21 -52 50c0 28 25 50 52 50c32 0 55 -32 126 -32h6c-3 94 -43 141 -43 184z" />
    <glyph glyph-name="daggerdbl" unicode="&#x2021;" 
d="M195 683c0 33 26 60 61 60s60 -27 60 -60s-42 -76 -42 -165h10c64 0 86 29 117 29c26 0 47 -20 47 -46c0 -25 -22 -45 -46 -45c-30 0 -79 29 -115 29h-10c-2 -11 -2 -22 -2 -29c0 -33 9 -68 32 -95c-25 -40 -37 -90 -37 -153h11c61 0 85 29 116 29c26 0 47 -20 47 -46
c0 -25 -22 -45 -46 -45c-30 0 -80 29 -115 29h-10c3 -55 18 -87 33 -106c-32 -68 -33 -133 -33 -256h-33c0 111 0 185 -33 256c20 27 29 62 33 106h-9c-39 0 -88 -29 -118 -29c-23 0 -46 20 -46 45c0 26 21 46 48 46c31 0 52 -29 115 -29h11c0 55 -9 109 -37 153
c24 28 31 59 32 90c0 9 0 25 -1 34h-8c-38 0 -88 -29 -116 -29c-24 0 -46 20 -46 45c0 26 21 46 47 46c32 0 53 -29 114 -29h11v9c0 78 -42 124 -42 156z" />
    <glyph glyph-name="periodcentered" unicode="&#xb7;" horiz-adv-x="250" 
d="M62 272c0 35 27 64 62 64c36 0 64 -29 64 -65c0 -33 -30 -61 -64 -61c-33 0 -62 28 -62 62z" />
    <glyph glyph-name="paragraph" unicode="&#xb6;" horiz-adv-x="658" 
d="M231 732h416v-33c-73 -1 -83 -3 -83 -88v-667c0 -88 10 -86 83 -87v-33h-464v33c92 1 102 -1 102 76v382h-42c-143 0 -222 76 -222 203c0 140 91 214 210 214zM285 699c-120 0 -149 -70 -149 -178c0 -105 39 -173 131 -173h18v351zM373 -143h103v842h-103v-842z" />
    <glyph glyph-name="bullet" unicode="&#x2022;" horiz-adv-x="658" 
d="M146 366c0 100 83 183 183 183s183 -83 183 -183s-83 -183 -183 -183s-183 83 -183 183z" />
    <glyph glyph-name="quotesinglbase" unicode="&#x201a;" horiz-adv-x="210" 
d="M46 53c0 35 28 62 62 62c51 0 73 -49 73 -94c0 -73 -62 -136 -131 -179l-12 17c15 15 73 64 73 104c0 27 -25 25 -44 42c-11 10 -21 22 -21 48z" />
    <glyph glyph-name="quotedblbase" unicode="&#x201e;" horiz-adv-x="395" 
d="M46 53c0 35 27 62 63 62c49 0 73 -49 73 -94c0 -73 -63 -136 -132 -179l-12 17c15 15 74 64 74 104c0 26 -26 25 -45 42c-11 10 -21 22 -21 48zM229 53c0 35 27 62 63 62c49 0 73 -49 73 -94c0 -73 -63 -136 -132 -179l-12 17c15 15 74 64 74 104c0 26 -26 25 -45 42
c-11 10 -21 22 -21 48z" />
    <glyph glyph-name="quotedblright" unicode="&#x201d;" horiz-adv-x="395" 
d="M46 681c0 35 27 62 63 62c49 0 73 -49 73 -94c0 -72 -63 -135 -132 -179l-12 18c15 15 74 64 74 103c0 26 -26 25 -45 42c-11 10 -21 22 -21 48zM229 681c0 35 27 62 63 62c49 0 73 -49 73 -94c0 -73 -63 -134 -132 -179l-12 18c15 15 74 64 74 103c0 26 -26 25 -45 42
c-11 10 -21 22 -21 48z" />
    <glyph glyph-name="guillemotright" unicode="&#xbb;" horiz-adv-x="474" 
d="M57 427l200 -174l-200 -167l-14 14l112 153l-112 159zM232 427l200 -174l-200 -167l-13 14l112 153l-112 159z" />
    <glyph glyph-name="ellipsis" unicode="&#x2026;" horiz-adv-x="1000" 
d="M103 51c0 35 27 64 62 64c36 0 64 -29 64 -65c0 -33 -30 -61 -64 -61c-33 0 -62 28 -62 62zM436 51c0 35 27 64 62 64c36 0 64 -29 64 -65c0 -33 -30 -61 -64 -61c-33 0 -62 28 -62 62zM769 51c0 35 27 64 62 64c36 0 64 -29 64 -65c0 -33 -30 -61 -64 -61
c-33 0 -62 28 -62 62z" />
    <glyph glyph-name="perthousand" unicode="&#x2030;" horiz-adv-x="922" 
d="M10 540c0 70 42 185 136 185c92 0 135 -112 135 -181c0 -71 -41 -187 -135 -187s-136 114 -136 183zM98 0l378 714h53l-380 -714h-51zM146 698c-66 0 -68 -117 -68 -157c0 -42 0 -157 70 -157c55 0 65 104 65 156c0 72 -10 158 -67 158zM315 172c0 70 42 185 136 185
c92 0 135 -112 135 -181c0 -71 -41 -187 -135 -187s-136 114 -136 183zM624 172c0 70 42 185 136 185c92 0 135 -112 135 -181c0 -71 -41 -187 -135 -187s-136 114 -136 183zM451 330c-66 0 -68 -117 -68 -157c0 -42 0 -157 70 -157c55 0 65 104 65 156
c0 72 -10 158 -67 158zM760 330c-66 0 -68 -117 -68 -157c0 -42 0 -157 70 -157c55 0 65 104 65 156c0 72 -10 158 -67 158z" />
    <glyph glyph-name="questiondown" unicode="&#xbf;" horiz-adv-x="395" 
d="M196 436c0 35 27 64 62 64c36 0 64 -29 64 -65c0 -33 -30 -61 -64 -61c-33 0 -62 28 -62 62zM244 210v114h42v-195c-11 0 -21 1 -32 1c-78 0 -137 -50 -137 -142c0 -44 19 -128 75 -128c64 0 53 73 112 73c29 0 52 -19 52 -50c0 -57 -65 -81 -114 -81
c-112 0 -199 103 -199 214c0 117 81 192 201 194z" />
    <glyph glyph-name="grave" unicode="`" horiz-adv-x="289" 
d="M74 718c0 17 18 25 34 25c34 0 40 -23 52 -58l47 -137l-17 -9l-41 59c-13 18 -75 96 -75 120z" />
    <glyph glyph-name="acute" unicode="&#xb4;" horiz-adv-x="289" 
d="M159 679c14 40 19 64 54 64c16 0 34 -8 34 -25c0 -20 -45 -81 -73 -117l-43 -62l-17 9z" />
    <glyph glyph-name="circumflex" unicode="&#x2c6;" horiz-adv-x="368" 
d="M138 693c12 27 21 48 49 48c25 0 36 -16 50 -48l66 -145l-20 -13l-96 127l-96 -127l-17 13z" />
    <glyph glyph-name="tilde" unicode="&#x2dc;" 
d="M74 578c14 33 50 94 101 94c46 0 124 -41 162 -41c24 0 37 21 49 41h29c-9 -31 -53 -94 -100 -94c-48 0 -114 39 -166 39c-22 0 -36 -20 -44 -39h-31z" />
    <glyph glyph-name="macron" unicode="&#xaf;" horiz-adv-x="474" 
d="M74 664h320v-68h-320v68z" />
    <glyph glyph-name="breve" unicode="&#x2d8;" 
d="M74 696l27 13c43 -45 85 -73 152 -73s110 28 153 73l28 -13c-36 -68 -103 -128 -181 -128s-145 61 -179 128z" />
    <glyph glyph-name="dotaccent" unicode="&#x2d9;" horiz-adv-x="263" 
d="M74 615c0 31 24 57 54 57c33 0 56 -26 56 -58c0 -30 -25 -54 -55 -54s-55 25 -55 55z" />
    <glyph glyph-name="dieresis" unicode="&#xa8;" horiz-adv-x="474" 
d="M74 615c0 31 24 57 54 57c33 0 56 -26 56 -58c0 -30 -25 -54 -55 -54s-55 25 -55 55zM296 615c0 31 24 57 54 57c33 0 56 -26 56 -58c0 -30 -25 -54 -55 -54s-55 25 -55 55z" />
    <glyph glyph-name="ring" unicode="&#x2da;" horiz-adv-x="342" 
d="M74 639c0 54 42 99 96 99c55 0 97 -45 97 -99s-44 -97 -97 -97c-54 0 -96 44 -96 97zM170 700c-31 0 -58 -27 -58 -60c0 -31 25 -60 58 -60c32 0 59 26 59 59c0 32 -25 61 -59 61z" />
    <glyph glyph-name="cedilla" unicode="&#xb8;" horiz-adv-x="342" 
d="M99 -92l88 92h32l-48 -58c4 0 8 1 12 1c37 0 77 -24 77 -70c0 -61 -69 -94 -122 -94c-19 0 -64 5 -64 31c0 11 9 19 21 19c28 0 30 -21 63 -21c30 0 59 19 59 52c0 29 -32 49 -59 49c-14 0 -37 -7 -51 -13z" />
    <glyph glyph-name="hungarumlaut" unicode="&#x2dd;" horiz-adv-x="395" 
d="M235 659c14 40 19 64 54 64c16 0 34 -8 34 -25c0 -25 -69 -112 -73 -117l-43 -62l-17 9zM119 659c14 40 19 64 54 64c16 0 34 -8 34 -25c0 -25 -69 -112 -73 -117l-43 -62l-17 9z" />
    <glyph glyph-name="ogonek" unicode="&#x2db;" horiz-adv-x="368" 
d="M150 0h78v-3c-54 -21 -96 -52 -96 -91c0 -36 35 -60 70 -60c43 0 38 39 67 39c12 0 22 -9 22 -21c0 -34 -64 -47 -92 -47c-52 0 -125 30 -125 92c0 36 23 67 76 91z" />
    <glyph glyph-name="caron" unicode="&#x2c7;" horiz-adv-x="368" 
d="M74 728l17 13l96 -127l96 127l20 -13l-66 -145c-15 -33 -25 -48 -50 -48c-30 0 -38 23 -53 57z" />
    <glyph glyph-name="emdash" unicode="&#x2014;" horiz-adv-x="1000" 
d="M0 293h1000v-73h-1000v73z" />
    <glyph glyph-name="AE" unicode="&#xc6;" horiz-adv-x="1027" 
d="M294 732h614l70 -171l-25 -15c-90 118 -122 153 -268 153c-96 0 -108 -13 -108 -103v-198h31c100 0 168 13 175 125h29v-287h-31c0 93 -40 130 -131 130c-27 0 -16 -1 -73 -1v-238c0 -78 18 -94 103 -94c159 0 190 39 291 167l24 -10l-74 -190h-535v33c74 0 92 21 92 129
v104h-241l-44 -77c-8 -14 -43 -77 -43 -102c0 -47 56 -51 88 -54h1v-33h-268v33h4c83 0 128 99 172 177l159 282c30 54 71 122 71 154c0 47 -47 50 -82 53h-1v33zM476 688l-212 -376h214v376h-2z" />
    <glyph glyph-name="ordfeminine" unicode="&#xaa;" horiz-adv-x="340" 
d="M38 675c0 49 73 68 119 68c47 0 76 -12 90 -27c12 -13 16 -29 16 -54v-149c0 -33 14 -35 20 -35c10 0 18 6 26 14l8 -12c-16 -23 -36 -43 -67 -43c-26 0 -40 17 -44 43c-37 -30 -71 -43 -104 -43c-45 0 -80 29 -80 72c0 79 115 100 183 112v33c0 32 -4 69 -45 69
c-37 0 -49 -25 -55 -47c-4 -13 -10 -28 -36 -28c-17 0 -31 10 -31 27zM205 601c-46 -7 -117 -36 -117 -86c0 -27 21 -45 47 -45c22 0 51 13 70 33v98z" />
    <glyph glyph-name="Lslash" unicode="&#x141;" horiz-adv-x="579" 
d="M34 732h290v-33c-77 -1 -96 -21 -96 -129v-167l148 90v-57l-148 -87v-207c0 -85 15 -109 107 -109c133 0 192 50 259 163l27 -12l-69 -184h-518v33c77 0 95 22 95 129v144l-82 -46v51l82 49v210c0 107 -19 129 -95 129v33z" />
    <glyph glyph-name="Oslash" unicode="&#xd8;" horiz-adv-x="764" 
d="M59 366c0 189 120 377 324 377c87 0 165 -35 224 -100l90 98l28 -28l-92 -102c52 -73 76 -164 76 -255c0 -202 -129 -367 -326 -367c-38 0 -93 10 -139 34c-32 17 -62 41 -89 67l-88 -98l-29 26l94 103c-52 65 -73 165 -73 245zM381 710c-160 0 -207 -214 -207 -346
c0 -61 8 -119 24 -170l355 390c-27 66 -85 126 -172 126zM594 374c0 62 -9 119 -25 168l-357 -390c32 -73 91 -130 175 -130c165 0 207 229 207 352z" />
    <glyph glyph-name="OE" unicode="&#x152;" horiz-adv-x="1080" 
d="M52 368c0 202 127 375 342 375c53 0 121 -11 161 -11h407l70 -171l-25 -15c-90 118 -122 153 -268 153c-97 0 -108 -13 -108 -103v-198h32c92 0 167 9 174 125h29v-287h-31c0 93 -40 130 -131 130c-27 0 -42 -1 -73 -1v-238c0 -78 18 -94 103 -94c160 0 190 39 291 167
l24 -10l-74 -190h-428c-39 0 -120 -11 -158 -11c-217 0 -337 183 -337 379zM405 710c-175 0 -238 -184 -238 -346c0 -157 53 -342 235 -342c89 0 130 56 130 141v427c0 55 -28 120 -127 120z" />
    <glyph glyph-name="ordmasculine" unicode="&#xba;" horiz-adv-x="340" 
d="M24 585c0 78 54 158 147 158c92 0 144 -82 144 -157c0 -76 -61 -149 -148 -149c-83 0 -143 74 -143 148zM170 723c-61 0 -80 -73 -80 -125c0 -43 14 -141 77 -141c67 0 82 92 82 140c0 41 -12 126 -79 126z" />
    <glyph glyph-name="ae" unicode="&#xe6;" horiz-adv-x="764" 
d="M54 387c0 57 73 113 190 113c72 0 115 -26 136 -72c33 51 95 72 150 72c118 0 203 -119 203 -227h-334v-14c0 -123 49 -227 157 -227c62 0 117 35 158 87l17 -14c-49 -78 -117 -116 -199 -116c-75 0 -142 33 -185 95c-48 -57 -114 -95 -184 -95c-68 0 -128 47 -128 119
c0 132 177 167 277 185v42c0 62 -7 132 -70 132c-105 0 -57 -126 -139 -126c-27 0 -49 20 -49 46zM522 467c-79 0 -116 -75 -121 -161h237c0 89 -34 161 -116 161zM311 260c-71 -12 -181 -61 -181 -144c0 -47 33 -74 77 -74s98 43 126 73c-19 47 -21 101 -22 145z" />
    <glyph glyph-name="dotlessi" unicode="&#x131;" horiz-adv-x="263" 
d="M176 507v-390c0 -77 7 -80 68 -88v-29h-223v30c60 8 67 12 67 88v234c0 66 -17 71 -64 72v24z" />
    <glyph glyph-name="lslash" unicode="&#x142;" horiz-adv-x="263" 
d="M184 767v-340l57 36v-53l-57 -36v-257c0 -76 7 -81 69 -88v-29h-224v29c60 7 67 12 67 88v222l-58 -33v50l58 34v209c0 82 -18 77 -84 82h-1v29z" />
    <glyph glyph-name="oslash" unicode="&#xf8;" horiz-adv-x="527" 
d="M37 238c0 117 74 262 219 262c56 0 116 -24 152 -66l63 65l27 -26l-65 -68c37 -49 48 -113 48 -167c0 -127 -94 -249 -223 -249c-54 0 -109 22 -152 66l-60 -64l-27 25l62 67c-33 38 -44 103 -44 155zM262 467c-93 0 -124 -145 -124 -228c0 -37 2 -63 8 -87l215 230
c-24 57 -57 85 -99 85zM380 252c0 38 -2 64 -8 88l-214 -231c25 -63 60 -87 97 -87c95 0 125 148 125 230z" />
    <glyph glyph-name="oe" unicode="&#x153;" horiz-adv-x="843" 
d="M37 240c0 122 90 260 223 260c65 0 130 -34 172 -84c41 49 104 84 165 84c121 0 210 -107 210 -225h-335c0 -164 56 -243 158 -243c63 0 120 40 158 89l16 -13c-40 -74 -114 -119 -197 -119c-75 0 -133 33 -180 86c-41 -50 -102 -86 -167 -86c-137 0 -223 120 -223 251z
M259 467c-95 0 -121 -124 -121 -206c0 -74 20 -239 122 -239c104 0 124 155 124 235c0 73 -20 210 -125 210zM596 467c-77 0 -117 -71 -120 -159h236c-3 98 -38 159 -116 159z" />
    <glyph glyph-name="germandbls" unicode="&#xdf;" horiz-adv-x="579" 
d="M88 522c0 115 63 221 216 221c82 0 172 -34 172 -118c0 -81 -100 -109 -100 -156c0 -65 172 -189 172 -316c0 -92 -80 -164 -170 -164c-67 0 -149 49 -149 122c0 26 20 50 46 50c32 0 49 -22 49 -53v-14c0 -46 23 -72 65 -72c47 0 80 44 80 89c0 118 -176 243 -176 320
c0 56 94 70 94 174c0 50 -35 105 -98 105c-70 0 -113 -57 -113 -201v-509h-155v29c60 8 67 12 67 88v405z" />
    <glyph glyph-name="onesuperior" unicode="&#xb9;" horiz-adv-x="340" 
d="M53 674c70 0 115 22 142 51h28v-338c0 -59 11 -76 94 -77v-20h-260v20h17c66 0 80 16 80 71v201c0 68 -14 72 -101 72v20z" />
    <glyph glyph-name="logicalnot" unicode="&#xac;" 
d="M39 368h421v-281h-58v223h-363v58z" />
    <glyph glyph-name="mu" unicode="&#xb5;" horiz-adv-x="553" 
d="M167 507v-360c0 -64 30 -105 82 -105c48 0 86 38 120 71v239c-3 55 -5 72 -65 72v24l153 59v-390c0 -76 7 -81 69 -88v-29h-157v71c-40 -41 -87 -82 -145 -82c-13 0 -38 1 -47 8v-9c0 -52 15 -100 15 -125c0 -37 -21 -59 -53 -59s-55 23 -55 59c0 14 11 96 16 189
c-11 15 -21 44 -21 122v178c-3 55 -5 72 -65 72v24z" />
    <glyph glyph-name="trademark" unicode="&#x2122;" horiz-adv-x="787" 
d="M14 720h290v-84h-22c-1 51 -15 58 -73 58h-19v-261c0 -26 34 -24 47 -25v-20h-156v20c12 1 47 -1 47 25v261h-28c-48 0 -63 -8 -64 -58h-22v84zM345 720h112l94 -233l86 233h123v-20h-11c-11 0 -25 -2 -25 -15v-241c0 -33 10 -35 42 -36v-20h-145v20c32 1 41 3 41 35v238
h-7l-115 -291h-7l-117 291h-7v-248c0 -26 34 -24 47 -25v-20h-126v20c17 1 49 0 49 25v255c0 11 -15 12 -25 12h-9v20z" />
    <glyph glyph-name="Eth" unicode="&#xd0;" horiz-adv-x="764" 
d="M32 732h290c200 0 383 -106 383 -355c0 -259 -185 -377 -393 -377h-280v33c75 0 94 22 94 129v191h-94v46h94v171c0 106 -19 129 -94 129v33zM225 581v-182h190v-46h-190v-191c0 -107 22 -129 97 -129c196 0 268 152 268 340c0 214 -87 326 -270 326
c-83 0 -95 -25 -95 -118z" />
    <glyph glyph-name="onehalf" unicode="&#xbd;" horiz-adv-x="751" 
d="M165 0l379 725h52l-379 -725h-52zM13 674c70 0 115 22 142 51h28v-338c0 -59 11 -76 94 -77v-20h-260v20h17c66 0 80 16 80 71v201c0 68 -14 72 -101 72v20zM456 331c0 63 76 104 146 104c72 0 152 -41 152 -110c0 -57 -47 -97 -105 -135c-33 -22 -82 -55 -109 -88
c-13 -15 -24 -30 -38 -49h83c98 0 116 10 145 71l21 -12l-31 -112h-274l-4 28c51 77 114 136 147 166l29 26c33 30 55 69 55 104c0 44 -24 86 -80 86c-35 0 -74 -12 -74 -42c0 -20 22 -30 22 -50c0 -15 -22 -36 -44 -36c-28 0 -41 25 -41 49z" />
    <glyph glyph-name="plusminus" unicode="&#xb1;" 
d="M221 336v164h58v-164h181v-58h-181v-165h-58v165h-182v58h182zM39 58h421v-58h-421v58z" />
    <glyph glyph-name="Thorn" unicode="&#xde;" horiz-adv-x="606" 
d="M34 732h288v-33c-80 0 -94 -26 -94 -122h157c88 0 221 -45 221 -190c0 -129 -96 -198 -288 -198h-90c0 -122 5 -156 94 -156v-33h-288v33c77 0 95 22 95 129v408c0 107 -19 129 -95 129v33zM228 431v-209h31c135 0 242 24 242 171c0 100 -63 151 -175 151
c-86 0 -98 -34 -98 -113z" />
    <glyph glyph-name="onequarter" unicode="&#xbc;" horiz-adv-x="751" 
d="M178 0l379 725h53l-380 -725h-52zM410 134l232 301h37v-298h88v-29h-88c1 -61 -5 -88 58 -88h5v-20h-201v20c63 1 67 10 67 54v34h-198v26zM609 137v206l-161 -206h161zM13 674c70 0 115 22 142 51h28v-338c0 -59 11 -76 94 -77v-20h-260v20h17c66 0 80 16 80 71v201
c0 68 -14 72 -101 72v20z" />
    <glyph glyph-name="divide" unicode="&#xf7;" 
d="M187 436c0 35 27 64 62 64c36 0 64 -29 64 -65c0 -33 -30 -61 -64 -61c-33 0 -62 28 -62 62zM29 299h441v-58h-441v58zM187 102c0 35 27 64 62 64c36 0 64 -29 64 -65c0 -33 -30 -61 -64 -61c-33 0 -62 28 -62 62z" />
    <glyph glyph-name="brokenbar" unicode="&#xa6;" horiz-adv-x="250" 
d="M90 675h71v-350h-71v350zM90 175h71v-350h-71v350z" />
    <glyph glyph-name="degree" unicode="&#xb0;" 
d="M70 576c0 84 70 149 150 149c82 0 150 -68 150 -150c0 -83 -68 -150 -150 -150c-80 0 -150 64 -150 151zM218 684c-55 0 -107 -45 -107 -108c0 -65 51 -110 109 -110c60 0 109 48 109 109c0 58 -47 109 -111 109z" />
    <glyph glyph-name="thorn" unicode="&#xfe;" horiz-adv-x="527" 
d="M170 767v-331c43 37 87 64 142 64c125 0 190 -133 190 -243c0 -124 -61 -268 -204 -268c-48 0 -93 25 -128 61v-108c0 -77 7 -80 67 -89v-29h-223v29c61 9 68 12 68 89v672c0 54 -18 65 -68 67v29zM170 397v-307c36 -34 69 -58 107 -58c108 0 130 135 130 222
s-27 203 -132 203c-32 0 -78 -29 -105 -60z" />
    <glyph glyph-name="threequarters" unicode="&#xbe;" horiz-adv-x="751" 
d="M191 0l380 725h52l-380 -725h-52zM392 134l232 301h37v-298h88v-29h-88c1 -61 -5 -88 58 -88h5v-20h-201v20c63 1 67 10 67 54v34h-198v26zM591 137v206l-161 -206h161zM16 639c0 58 79 86 138 86c72 0 144 -38 144 -103c0 -50 -62 -90 -116 -101v-3
c70 -8 136 -48 136 -112c0 -77 -87 -123 -169 -123c-57 0 -141 20 -141 79c0 21 14 40 40 40c25 0 43 -13 43 -32c0 -8 -7 -19 -7 -27c0 -27 36 -35 67 -35c62 0 86 38 86 100c0 41 -17 96 -74 96c-17 0 -39 -4 -54 -4c-14 0 -24 7 -24 18c0 12 12 20 29 20
c15 0 29 -4 43 -4c43 0 62 54 62 84c0 51 -28 82 -72 82c-27 0 -58 -8 -58 -35c0 -9 4 -18 4 -29c0 -18 -18 -31 -39 -31c-20 0 -38 15 -38 34z" />
    <glyph glyph-name="twosuperior" unicode="&#xb2;" horiz-adv-x="340" 
d="M43 621c0 63 76 104 146 104c72 0 152 -41 152 -110c0 -57 -47 -97 -105 -135c-33 -22 -82 -55 -109 -88c-13 -15 -24 -30 -38 -49h83c98 0 116 10 145 71l21 -12l-31 -112h-274l-4 28c51 77 114 136 147 166l29 26c33 30 55 69 55 104c0 44 -24 86 -80 86
c-35 0 -74 -12 -74 -42c0 -20 22 -30 22 -50c0 -15 -22 -36 -44 -36c-28 0 -41 25 -41 49z" />
    <glyph glyph-name="registered" unicode="&#xae;" horiz-adv-x="798" 
d="M26 365c0 207 163 378 369 378c205 0 377 -165 377 -374c0 -212 -168 -380 -377 -380c-202 0 -369 172 -369 376zM398 704c-182 0 -333 -148 -333 -338c0 -183 148 -337 330 -337c186 0 337 146 337 337c0 184 -144 338 -334 338zM220 605h189c57 0 92 -8 118 -27
s41 -53 41 -83c0 -63 -56 -112 -119 -115v-3c78 -16 95 -143 137 -184c6 -5 10 -6 17 -8c5 -1 10 -1 16 -1v-19h-67c-36 0 -50 21 -64 51c-8 17 -15 38 -23 57c-21 52 -32 93 -99 93h-24v-139c0 -39 11 -43 22 -43h31v-19h-175v19h17c21 0 34 2 34 29v344
c0 29 -34 23 -51 25v23zM342 538v-148h16c75 0 137 10 137 98c0 28 -7 46 -17 60c-20 27 -48 32 -70 32h-23c-31 0 -43 -2 -43 -42z" />
    <glyph glyph-name="minus" unicode="&#x2212;" 
d="M39 299h421v-58h-421v58z" />
    <glyph glyph-name="eth" unicode="&#xf0;" horiz-adv-x="527" 
d="M137 722l21 33c81 -35 150 -85 154 -92l160 87l19 -31l-149 -81c90 -84 146 -202 146 -370c0 -152 -91 -279 -221 -279c-134 0 -228 119 -228 233c0 113 93 233 221 233c47 0 81 -12 110 -42l2 2c-22 75 -46 135 -92 189l-164 -89l-16 33l154 84c-22 21 -83 66 -117 90z
M266 422c-45 0 -78 -25 -97 -61c-22 -41 -29 -93 -29 -139c0 -113 40 -200 127 -200c82 0 120 90 120 200c0 106 -36 200 -121 200z" />
    <glyph glyph-name="multiply" unicode="&#xd7;" 
d="M104 450l148 -147l147 147l41 -42l-147 -146l147 -148l-41 -41l-147 148l-148 -148l-41 41l148 148l-148 146z" />
    <glyph glyph-name="threesuperior" unicode="&#xb3;" horiz-adv-x="340" 
d="M37 639c0 58 79 86 138 86c72 0 144 -38 144 -103c0 -50 -62 -90 -116 -101v-3c70 -8 136 -48 136 -112c0 -77 -87 -123 -169 -123c-57 0 -141 20 -141 79c0 21 14 40 40 40c25 0 43 -13 43 -32c0 -8 -7 -19 -7 -27c0 -27 36 -35 67 -35c62 0 86 38 86 100
c0 41 -17 96 -74 96c-17 0 -39 -4 -54 -4c-14 0 -24 7 -24 18c0 12 12 20 29 20c15 0 29 -4 43 -4c43 0 62 54 62 84c0 51 -28 82 -72 82c-27 0 -58 -8 -58 -35c0 -9 4 -18 4 -29c0 -18 -18 -31 -39 -31c-20 0 -38 15 -38 34z" />
    <glyph glyph-name="copyright" unicode="&#xa9;" horiz-adv-x="798" 
d="M27 366c0 206 162 377 369 377c208 0 376 -166 376 -377s-171 -377 -377 -377c-203 0 -368 173 -368 377zM395 704c-176 0 -329 -152 -329 -338c0 -187 152 -337 336 -337c181 0 330 155 330 337c0 187 -148 338 -337 338zM175 366c0 137 91 232 228 232
c38 0 90 -6 158 -31v-119h-33c-4 71 -46 116 -116 116c-105 0 -150 -92 -150 -187c0 -97 52 -199 158 -199c22 0 66 9 98 39c7 7 21 28 27 39l28 -8c-28 -72 -110 -110 -183 -110c-131 0 -215 99 -215 228z" />
    <glyph glyph-name="Aacute" unicode="&#xc1;" horiz-adv-x="658" 
d="M289 732l94 25l177 -529c52 -156 63 -184 136 -195v-33h-294v33h1c34 3 96 -7 96 45c0 14 -5 28 -17 65l-41 122h-255c-20 -61 -53 -142 -53 -174c0 -53 57 -58 94 -58v-33h-256v33c86 1 113 84 136 153zM315 647l-113 -336h225zM344 922c14 40 19 64 54 64
c16 0 34 -8 34 -25c0 -20 -45 -81 -73 -117l-43 -62l-17 9z" />
    <glyph glyph-name="Acircumflex" unicode="&#xc2;" horiz-adv-x="658" 
d="M289 732l94 25l177 -529c52 -156 63 -184 136 -195v-33h-294v33h1c34 3 96 -7 96 45c0 14 -5 28 -17 65l-41 122h-255c-20 -61 -53 -142 -53 -174c0 -53 57 -58 94 -58v-33h-256v33c86 1 113 84 136 153zM315 647l-113 -336h225zM283 936c12 27 21 48 49 48
c25 0 36 -16 50 -48l66 -145l-20 -13l-96 127l-96 -127l-17 13z" />
    <glyph glyph-name="Adieresis" unicode="&#xc4;" horiz-adv-x="658" 
d="M289 732l94 25l177 -529c52 -156 63 -184 136 -195v-33h-294v33h1c34 3 96 -7 96 45c0 14 -5 28 -17 65l-41 122h-255c-20 -61 -53 -142 -53 -174c0 -53 57 -58 94 -58v-33h-256v33c86 1 113 84 136 153zM315 647l-113 -336h225zM166 858c0 31 24 57 54 57
c33 0 56 -26 56 -58c0 -30 -25 -54 -55 -54s-55 25 -55 55zM388 858c0 31 24 57 54 57c33 0 56 -26 56 -58c0 -30 -25 -54 -55 -54s-55 25 -55 55z" />
    <glyph glyph-name="Agrave" unicode="&#xc0;" horiz-adv-x="658" 
d="M289 732l94 25l177 -529c52 -156 63 -184 136 -195v-33h-294v33h1c34 3 96 -7 96 45c0 14 -5 28 -17 65l-41 122h-255c-20 -61 -53 -142 -53 -174c0 -53 57 -58 94 -58v-33h-256v33c86 1 113 84 136 153zM315 647l-113 -336h225zM259 981c0 17 18 25 34 25
c34 0 40 -23 52 -58l47 -137l-17 -9l-41 59c-13 18 -75 96 -75 120z" />
    <glyph glyph-name="Aring" unicode="&#xc5;" horiz-adv-x="658" 
d="M289 732l94 25l177 -529c52 -156 63 -184 136 -195v-33h-294v33h1c34 3 96 -7 96 45c0 14 -5 28 -17 65l-41 122h-255c-20 -61 -53 -142 -53 -174c0 -53 57 -58 94 -58v-33h-256v33c86 1 113 84 136 153zM315 647l-113 -336h225zM232 882c0 54 42 99 96 99
c55 0 97 -45 97 -99s-44 -97 -97 -97c-54 0 -96 44 -96 97zM328 943c-31 0 -58 -27 -58 -60c0 -31 25 -60 58 -60c32 0 59 26 59 59c0 32 -25 61 -59 61z" />
    <glyph glyph-name="Atilde" unicode="&#xc3;" horiz-adv-x="658" 
d="M289 732l94 25l177 -529c52 -156 63 -184 136 -195v-33h-294v33h1c34 3 96 -7 96 45c0 14 -5 28 -17 65l-41 122h-255c-20 -61 -53 -142 -53 -174c0 -53 57 -58 94 -58v-33h-256v33c86 1 113 84 136 153zM315 647l-113 -336h225zM153 821c14 33 50 94 101 94
c46 0 124 -41 162 -41c24 0 37 21 49 41h29c-9 -31 -53 -94 -100 -94c-48 0 -114 39 -166 39c-22 0 -36 -20 -44 -39h-31z" />
    <glyph glyph-name="Ccedilla" unicode="&#xc7;" horiz-adv-x="685" 
d="M46 339c0 111 45 220 113 301c53 63 124 103 203 103c70 0 99 -31 147 -31c25 0 45 9 68 21l67 -181l-25 -12c-54 71 -151 162 -245 162c-166 0 -213 -179 -213 -313c0 -145 74 -339 245 -339c107 0 178 74 229 160l21 -12c-50 -110 -144 -202 -274 -208l-40 -48
c4 0 5 1 9 1c46 0 80 -29 80 -70c0 -62 -69 -94 -122 -94c-19 0 -64 5 -64 31c0 11 9 19 21 19c28 0 30 -21 63 -21c30 0 59 19 59 52c0 29 -32 49 -59 49c-14 0 -37 -7 -51 -13l-8 12l79 82c-187 10 -303 168 -303 349z" />
    <glyph glyph-name="Eacute" unicode="&#xc9;" horiz-adv-x="658" 
d="M33 732h523l70 -171l-25 -15c-88 118 -122 153 -268 153c-96 0 -108 -13 -108 -104v-197h27c100 0 171 9 179 125h28v-287h-29c0 92 -40 130 -132 130c-27 0 -16 -1 -73 -1v-238c0 -78 18 -94 103 -94c159 0 190 39 291 167l24 -10l-74 -190h-536v33c74 0 93 22 93 129
v408c0 106 -19 129 -93 129v33zM344 942c14 40 19 64 54 64c16 0 34 -8 34 -25c0 -20 -45 -81 -73 -117l-43 -62l-17 9z" />
    <glyph glyph-name="Ecircumflex" unicode="&#xca;" horiz-adv-x="658" 
d="M33 732h523l70 -171l-25 -15c-88 118 -122 153 -268 153c-96 0 -108 -13 -108 -104v-197h27c100 0 171 9 179 125h28v-287h-29c0 92 -40 130 -132 130c-27 0 -16 -1 -73 -1v-238c0 -78 18 -94 103 -94c159 0 190 39 291 167l24 -10l-74 -190h-536v33c74 0 93 22 93 129
v408c0 106 -19 129 -93 129v33zM283 936c12 27 21 48 49 48c25 0 36 -16 50 -48l66 -145l-20 -13l-96 127l-96 -127l-17 13z" />
    <glyph glyph-name="Edieresis" unicode="&#xcb;" horiz-adv-x="658" 
d="M33 732h523l70 -171l-25 -15c-88 118 -122 153 -268 153c-96 0 -108 -13 -108 -104v-197h27c100 0 171 9 179 125h28v-287h-29c0 92 -40 130 -132 130c-27 0 -16 -1 -73 -1v-238c0 -78 18 -94 103 -94c159 0 190 39 291 167l24 -10l-74 -190h-536v33c74 0 93 22 93 129
v408c0 106 -19 129 -93 129v33zM166 858c0 31 24 57 54 57c33 0 56 -26 56 -58c0 -30 -25 -54 -55 -54s-55 25 -55 55zM388 858c0 31 24 57 54 57c33 0 56 -26 56 -58c0 -30 -25 -54 -55 -54s-55 25 -55 55z" />
    <glyph glyph-name="Egrave" unicode="&#xc8;" horiz-adv-x="658" 
d="M33 732h523l70 -171l-25 -15c-88 118 -122 153 -268 153c-96 0 -108 -13 -108 -104v-197h27c100 0 171 9 179 125h28v-287h-29c0 92 -40 130 -132 130c-27 0 -16 -1 -73 -1v-238c0 -78 18 -94 103 -94c159 0 190 39 291 167l24 -10l-74 -190h-536v33c74 0 93 22 93 129
v408c0 106 -19 129 -93 129v33zM259 981c0 17 18 25 34 25c34 0 40 -23 52 -58l47 -137l-17 -9l-41 59c-13 18 -75 96 -75 120z" />
    <glyph glyph-name="Iacute" unicode="&#xcd;" horiz-adv-x="342" 
d="M32 732h288v-33c-76 0 -95 -23 -95 -129v-408c0 -106 19 -129 95 -129v-33h-288v33c75 0 94 22 94 129v408c0 106 -19 129 -94 129v33zM186 922c14 40 19 64 54 64c16 0 34 -8 34 -25c0 -20 -45 -81 -73 -117l-43 -62l-17 9z" />
    <glyph glyph-name="Icircumflex" unicode="&#xce;" horiz-adv-x="342" 
d="M32 732h288v-33c-76 0 -95 -23 -95 -129v-408c0 -106 19 -129 95 -129v-33h-288v33c75 0 94 22 94 129v408c0 106 -19 129 -94 129v33zM125 936c12 27 21 48 49 48c25 0 36 -16 50 -48l66 -145l-20 -13l-96 127l-96 -127l-17 13z" />
    <glyph glyph-name="Idieresis" unicode="&#xcf;" horiz-adv-x="342" 
d="M32 732h288v-33c-76 0 -95 -23 -95 -129v-408c0 -106 19 -129 95 -129v-33h-288v33c75 0 94 22 94 129v408c0 106 -19 129 -94 129v33zM8 858c0 31 24 57 54 57c33 0 56 -26 56 -58c0 -30 -25 -54 -55 -54s-55 25 -55 55zM230 858c0 31 24 57 54 57c33 0 56 -26 56 -58
c0 -30 -25 -54 -55 -54s-55 25 -55 55z" />
    <glyph glyph-name="Igrave" unicode="&#xcc;" horiz-adv-x="342" 
d="M32 732h288v-33c-76 0 -95 -23 -95 -129v-408c0 -106 19 -129 95 -129v-33h-288v33c75 0 94 22 94 129v408c0 106 -19 129 -94 129v33zM101 981c0 17 18 25 34 25c34 0 40 -23 52 -58l47 -137l-17 -9l-41 59c-13 18 -75 96 -75 120z" />
    <glyph glyph-name="Ntilde" unicode="&#xd1;" horiz-adv-x="764" 
d="M33 732h174l387 -545v383c0 107 -18 129 -93 129v33h232v-33c-74 0 -93 -23 -93 -129v-570h-34l-433 609v-447c0 -108 19 -129 93 -129v-33h-233v33c75 0 94 22 94 129v408c0 106 -19 129 -94 129v33zM206 821c14 33 50 94 101 94c46 0 124 -41 162 -41c24 0 37 21 49 41
h29c-9 -31 -53 -94 -100 -94c-48 0 -114 39 -166 39c-22 0 -36 -20 -44 -39h-31z" />
    <glyph glyph-name="Oacute" unicode="&#xd3;" horiz-adv-x="764" 
d="M51 366c0 190 120 377 326 377c209 0 324 -193 324 -383c0 -194 -120 -371 -327 -371c-210 0 -323 188 -323 377zM376 710c-161 0 -210 -204 -210 -340c0 -124 44 -348 208 -348c172 0 212 213 212 346c0 124 -40 342 -210 342zM397 942c14 40 19 64 54 64
c16 0 34 -8 34 -25c0 -20 -45 -81 -73 -117l-43 -62l-17 9z" />
    <glyph glyph-name="Ocircumflex" unicode="&#xd4;" horiz-adv-x="764" 
d="M51 366c0 190 120 377 326 377c209 0 324 -193 324 -383c0 -194 -120 -371 -327 -371c-210 0 -323 188 -323 377zM376 710c-161 0 -210 -204 -210 -340c0 -124 44 -348 208 -348c172 0 212 213 212 346c0 124 -40 342 -210 342zM336 936c12 27 21 48 49 48
c25 0 36 -16 50 -48l66 -145l-20 -13l-96 127l-96 -127l-17 13z" />
    <glyph glyph-name="Odieresis" unicode="&#xd6;" horiz-adv-x="764" 
d="M51 366c0 190 120 377 326 377c209 0 324 -193 324 -383c0 -194 -120 -371 -327 -371c-210 0 -323 188 -323 377zM376 710c-161 0 -210 -204 -210 -340c0 -124 44 -348 208 -348c172 0 212 213 212 346c0 124 -40 342 -210 342zM219 858c0 31 24 57 54 57
c33 0 56 -26 56 -58c0 -30 -25 -54 -55 -54s-55 25 -55 55zM441 858c0 31 24 57 54 57c33 0 56 -26 56 -58c0 -30 -25 -54 -55 -54s-55 25 -55 55z" />
    <glyph glyph-name="Ograve" unicode="&#xd2;" horiz-adv-x="764" 
d="M51 366c0 190 120 377 326 377c209 0 324 -193 324 -383c0 -194 -120 -371 -327 -371c-210 0 -323 188 -323 377zM376 710c-161 0 -210 -204 -210 -340c0 -124 44 -348 208 -348c172 0 212 213 212 346c0 124 -40 342 -210 342zM292 981c0 17 18 25 34 25
c34 0 40 -23 52 -58l47 -137l-17 -9l-41 59c-13 18 -75 96 -75 120z" />
    <glyph glyph-name="Otilde" unicode="&#xd5;" horiz-adv-x="764" 
d="M51 366c0 190 120 377 326 377c209 0 324 -193 324 -383c0 -194 -120 -371 -327 -371c-210 0 -323 188 -323 377zM376 710c-161 0 -210 -204 -210 -340c0 -124 44 -348 208 -348c172 0 212 213 212 346c0 124 -40 342 -210 342zM206 821c14 33 50 94 101 94
c46 0 124 -41 162 -41c24 0 37 21 49 41h29c-9 -31 -53 -94 -100 -94c-48 0 -114 39 -166 39c-22 0 -36 -20 -44 -39h-31z" />
    <glyph glyph-name="Scaron" unicode="&#x160;" horiz-adv-x="553" 
d="M49 539c0 127 89 204 212 204c63 0 88 -29 134 -29c21 0 39 7 49 19l66 -176l-29 -14c-69 110 -145 167 -225 167c-76 0 -133 -59 -133 -133c0 -53 35 -89 83 -113c120 -60 334 -58 334 -262c0 -130 -102 -213 -224 -213c-64 0 -116 29 -157 29c-22 0 -45 -14 -61 -29
l-73 195l30 14c58 -76 148 -176 255 -176c76 0 148 51 148 135c0 231 -409 115 -409 382zM167 971l17 13l96 -127l96 127l20 -13l-66 -145c-15 -33 -25 -48 -50 -48c-30 0 -38 23 -53 57z" />
    <glyph glyph-name="Uacute" unicode="&#xda;" horiz-adv-x="737" 
d="M28 732h283v-33c-77 -1 -96 -21 -96 -129v-296c0 -182 66 -244 183 -244c146 0 184 91 184 250v290c0 107 -18 129 -90 129v33h229v-33c-74 0 -93 -22 -93 -129v-320c0 -174 -82 -261 -259 -261c-176 0 -253 105 -253 231v350c0 106 -18 129 -88 129v33zM383 922
c14 40 19 64 54 64c16 0 34 -8 34 -25c0 -20 -45 -81 -73 -117l-43 -62l-17 9z" />
    <glyph glyph-name="Ucircumflex" unicode="&#xdb;" horiz-adv-x="737" 
d="M28 732h283v-33c-77 -1 -96 -21 -96 -129v-296c0 -182 66 -244 183 -244c146 0 184 91 184 250v290c0 107 -18 129 -90 129v33h229v-33c-74 0 -93 -22 -93 -129v-320c0 -174 -82 -261 -259 -261c-176 0 -253 105 -253 231v350c0 106 -18 129 -88 129v33zM323 936
c12 27 21 48 49 48c25 0 36 -16 50 -48l66 -145l-20 -13l-96 127l-96 -127l-17 13z" />
    <glyph glyph-name="Udieresis" unicode="&#xdc;" horiz-adv-x="737" 
d="M28 732h283v-33c-77 -1 -96 -21 -96 -129v-296c0 -182 66 -244 183 -244c146 0 184 91 184 250v290c0 107 -18 129 -90 129v33h229v-33c-74 0 -93 -22 -93 -129v-320c0 -174 -82 -261 -259 -261c-176 0 -253 105 -253 231v350c0 106 -18 129 -88 129v33zM206 858
c0 31 24 57 54 57c33 0 56 -26 56 -58c0 -30 -25 -54 -55 -54s-55 25 -55 55zM428 858c0 31 24 57 54 57c33 0 56 -26 56 -58c0 -30 -25 -54 -55 -54s-55 25 -55 55z" />
    <glyph glyph-name="Ugrave" unicode="&#xd9;" horiz-adv-x="737" 
d="M28 732h283v-33c-77 -1 -96 -21 -96 -129v-296c0 -182 66 -244 183 -244c146 0 184 91 184 250v290c0 107 -18 129 -90 129v33h229v-33c-74 0 -93 -22 -93 -129v-320c0 -174 -82 -261 -259 -261c-176 0 -253 105 -253 231v350c0 106 -18 129 -88 129v33zM298 961
c0 17 18 25 34 25c34 0 40 -23 52 -58l47 -137l-17 -9l-41 59c-13 18 -75 96 -75 120z" />
    <glyph glyph-name="Yacute" unicode="&#xdd;" horiz-adv-x="632" 
d="M-22 732h292v-33h-14c-24 0 -73 0 -73 -35c0 -15 20 -50 29 -66l141 -242l101 189c20 37 49 80 49 111c0 47 -50 40 -83 43h-1v33h248v-33h-9c-76 0 -102 -63 -133 -120l-144 -264v-153c0 -107 18 -129 95 -129v-33h-290v33c78 0 96 22 96 129v120l-161 285
c-30 54 -63 132 -138 132h-5v33zM351 922c14 40 19 64 54 64c16 0 34 -8 34 -25c0 -20 -45 -81 -73 -117l-43 -62l-17 9z" />
    <glyph glyph-name="Ydieresis" unicode="&#x178;" horiz-adv-x="632" 
d="M-22 732h292v-33h-14c-24 0 -73 0 -73 -35c0 -15 20 -50 29 -66l141 -242l101 189c20 37 49 80 49 111c0 47 -50 40 -83 43h-1v33h248v-33h-9c-76 0 -102 -63 -133 -120l-144 -264v-153c0 -107 18 -129 95 -129v-33h-290v33c78 0 96 22 96 129v120l-161 285
c-30 54 -63 132 -138 132h-5v33zM153 858c0 31 24 57 54 57c33 0 56 -26 56 -58c0 -30 -25 -54 -55 -54s-55 25 -55 55zM375 858c0 31 24 57 54 57c33 0 56 -26 56 -58c0 -30 -25 -54 -55 -54s-55 25 -55 55z" />
    <glyph glyph-name="Zcaron" unicode="&#x17d;" horiz-adv-x="579" 
d="M111 732h470l-441 -699h131c111 0 214 61 269 163l33 -13l-72 -183h-497l444 699h-71c-154 0 -226 -34 -301 -157l-30 13zM180 971l17 13l96 -127l96 127l20 -13l-66 -145c-15 -33 -25 -48 -50 -48c-30 0 -38 23 -53 57z" />
    <glyph glyph-name="aacute" unicode="&#xe1;" horiz-adv-x="474" 
d="M53 385c0 82 114 115 183 115c66 0 109 -18 131 -39c30 -29 31 -71 31 -98v-248c0 -54 18 -60 30 -60c18 0 30 13 41 25l13 -21c-24 -36 -54 -70 -102 -70c-41 0 -64 31 -68 70c-50 -40 -103 -70 -160 -70c-70 0 -118 48 -118 119c0 133 173 167 276 187v70
c0 67 -23 102 -70 102c-56 0 -72 -40 -82 -76c-8 -27 -20 -50 -58 -50c-28 0 -47 17 -47 44zM310 262c-72 -12 -181 -60 -181 -143c0 -47 33 -77 73 -77c36 0 82 28 108 57v163zM252 679c14 40 19 64 54 64c16 0 34 -8 34 -25c0 -20 -45 -81 -73 -117l-43 -62l-17 9z" />
    <glyph glyph-name="acircumflex" unicode="&#xe2;" horiz-adv-x="474" 
d="M53 385c0 82 114 115 183 115c66 0 109 -18 131 -39c30 -29 31 -71 31 -98v-248c0 -54 18 -60 30 -60c18 0 30 13 41 25l13 -21c-24 -36 -54 -70 -102 -70c-41 0 -64 31 -68 70c-50 -40 -103 -70 -160 -70c-70 0 -118 48 -118 119c0 133 173 167 276 187v70
c0 67 -23 102 -70 102c-56 0 -72 -40 -82 -76c-8 -27 -20 -50 -58 -50c-28 0 -47 17 -47 44zM310 262c-72 -12 -181 -60 -181 -143c0 -47 33 -77 73 -77c36 0 82 28 108 57v163zM191 693c12 27 21 48 49 48c25 0 36 -16 50 -48l66 -145l-20 -13l-96 127l-96 -127l-17 13z
" />
    <glyph glyph-name="adieresis" unicode="&#xe4;" horiz-adv-x="474" 
d="M53 385c0 82 114 115 183 115c66 0 109 -18 131 -39c30 -29 31 -71 31 -98v-248c0 -54 18 -60 30 -60c18 0 30 13 41 25l13 -21c-24 -36 -54 -70 -102 -70c-41 0 -64 31 -68 70c-50 -40 -103 -70 -160 -70c-70 0 -118 48 -118 119c0 133 173 167 276 187v70
c0 67 -23 102 -70 102c-56 0 -72 -40 -82 -76c-8 -27 -20 -50 -58 -50c-28 0 -47 17 -47 44zM310 262c-72 -12 -181 -60 -181 -143c0 -47 33 -77 73 -77c36 0 82 28 108 57v163zM74 615c0 31 24 57 54 57c33 0 56 -26 56 -58c0 -30 -25 -54 -55 -54s-55 25 -55 55zM296 615
c0 31 24 57 54 57c33 0 56 -26 56 -58c0 -30 -25 -54 -55 -54s-55 25 -55 55z" />
    <glyph glyph-name="agrave" unicode="&#xe0;" horiz-adv-x="474" 
d="M53 385c0 82 114 115 183 115c66 0 109 -18 131 -39c30 -29 31 -71 31 -98v-248c0 -54 18 -60 30 -60c18 0 30 13 41 25l13 -21c-24 -36 -54 -70 -102 -70c-41 0 -64 31 -68 70c-50 -40 -103 -70 -160 -70c-70 0 -118 48 -118 119c0 133 173 167 276 187v70
c0 67 -23 102 -70 102c-56 0 -72 -40 -82 -76c-8 -27 -20 -50 -58 -50c-28 0 -47 17 -47 44zM310 262c-72 -12 -181 -60 -181 -143c0 -47 33 -77 73 -77c36 0 82 28 108 57v163zM147 738c0 17 18 25 34 25c34 0 40 -23 52 -58l47 -137l-17 -9l-41 59c-13 18 -75 96 -75 120z
" />
    <glyph glyph-name="aring" unicode="&#xe5;" horiz-adv-x="474" 
d="M53 385c0 82 114 115 183 115c66 0 109 -18 131 -39c30 -29 31 -71 31 -98v-248c0 -54 18 -60 30 -60c18 0 30 13 41 25l13 -21c-24 -36 -54 -70 -102 -70c-41 0 -64 31 -68 70c-50 -40 -103 -70 -160 -70c-70 0 -118 48 -118 119c0 133 173 167 276 187v70
c0 67 -23 102 -70 102c-56 0 -72 -40 -82 -76c-8 -27 -20 -50 -58 -50c-28 0 -47 17 -47 44zM310 262c-72 -12 -181 -60 -181 -143c0 -47 33 -77 73 -77c36 0 82 28 108 57v163zM140 639c0 54 42 99 96 99c55 0 97 -45 97 -99s-44 -97 -97 -97c-54 0 -96 44 -96 97zM236 700
c-31 0 -58 -27 -58 -60c0 -31 25 -60 58 -60c32 0 59 26 59 59c0 32 -25 61 -59 61z" />
    <glyph glyph-name="atilde" unicode="&#xe3;" horiz-adv-x="474" 
d="M53 385c0 82 114 115 183 115c66 0 109 -18 131 -39c30 -29 31 -71 31 -98v-248c0 -54 18 -60 30 -60c18 0 30 13 41 25l13 -21c-24 -36 -54 -70 -102 -70c-41 0 -64 31 -68 70c-50 -40 -103 -70 -160 -70c-70 0 -118 48 -118 119c0 133 173 167 276 187v70
c0 67 -23 102 -70 102c-56 0 -72 -40 -82 -76c-8 -27 -20 -50 -58 -50c-28 0 -47 17 -47 44zM310 262c-72 -12 -181 -60 -181 -143c0 -47 33 -77 73 -77c36 0 82 28 108 57v163zM61 578c14 33 50 94 101 94c46 0 124 -41 162 -41c24 0 37 21 49 41h29
c-9 -31 -53 -94 -100 -94c-48 0 -114 39 -166 39c-22 0 -36 -20 -44 -39h-31z" />
    <glyph glyph-name="ccedilla" unicode="&#xe7;" horiz-adv-x="474" 
d="M28 232c0 149 102 268 254 268c60 0 165 -36 165 -105c0 -29 -25 -50 -54 -50c-74 0 -45 122 -141 122c-104 0 -123 -138 -123 -212c0 -98 54 -213 164 -213c68 0 112 44 155 91l15 -14c-42 -65 -105 -118 -185 -128l-41 -49c4 0 7 1 11 1c41 0 78 -26 78 -70
c0 -61 -69 -94 -122 -94c-19 0 -64 5 -64 31c0 11 9 19 21 19c28 0 30 -21 63 -21c30 0 59 19 59 52c0 29 -32 49 -59 49c-14 0 -37 -7 -51 -13l-8 12l78 82c-127 5 -215 121 -215 242z" />
    <glyph glyph-name="eacute" unicode="&#xe9;" 
d="M32 240c0 128 89 260 229 260c125 0 211 -107 211 -225h-339c0 -104 31 -243 154 -243c65 0 123 35 164 91l17 -16c-41 -67 -110 -118 -194 -118c-140 0 -242 114 -242 251zM259 467c-76 0 -118 -73 -121 -154h233c0 6 1 11 1 17c0 57 -27 137 -113 137zM265 679
c14 40 19 64 54 64c16 0 34 -8 34 -25c0 -20 -45 -81 -73 -117l-43 -62l-17 9z" />
    <glyph glyph-name="ecircumflex" unicode="&#xea;" 
d="M32 240c0 128 89 260 229 260c125 0 211 -107 211 -225h-339c0 -104 31 -243 154 -243c65 0 123 35 164 91l17 -16c-41 -67 -110 -118 -194 -118c-140 0 -242 114 -242 251zM259 467c-76 0 -118 -73 -121 -154h233c0 6 1 11 1 17c0 57 -27 137 -113 137zM204 693
c12 27 21 48 49 48c25 0 36 -16 50 -48l66 -145l-20 -13l-96 127l-96 -127l-17 13z" />
    <glyph glyph-name="edieresis" unicode="&#xeb;" 
d="M32 240c0 128 89 260 229 260c125 0 211 -107 211 -225h-339c0 -104 31 -243 154 -243c65 0 123 35 164 91l17 -16c-41 -67 -110 -118 -194 -118c-140 0 -242 114 -242 251zM259 467c-76 0 -118 -73 -121 -154h233c0 6 1 11 1 17c0 57 -27 137 -113 137zM87 615
c0 31 24 57 54 57c33 0 56 -26 56 -58c0 -30 -25 -54 -55 -54s-55 25 -55 55zM309 615c0 31 24 57 54 57c33 0 56 -26 56 -58c0 -30 -25 -54 -55 -54s-55 25 -55 55z" />
    <glyph glyph-name="egrave" unicode="&#xe8;" 
d="M32 240c0 128 89 260 229 260c125 0 211 -107 211 -225h-339c0 -104 31 -243 154 -243c65 0 123 35 164 91l17 -16c-41 -67 -110 -118 -194 -118c-140 0 -242 114 -242 251zM259 467c-76 0 -118 -73 -121 -154h233c0 6 1 11 1 17c0 57 -27 137 -113 137zM180 738
c0 17 18 25 34 25c34 0 40 -23 52 -58l47 -137l-17 -9l-41 59c-13 18 -75 96 -75 120z" />
    <glyph glyph-name="iacute" unicode="&#xed;" horiz-adv-x="263" 
d="M176 507v-390c0 -77 7 -80 68 -88v-29h-223v30c60 8 67 12 67 88v234c0 66 -17 71 -64 72v24zM146 679c14 40 19 64 54 64c16 0 34 -8 34 -25c0 -20 -45 -81 -73 -117l-43 -62l-17 9z" />
    <glyph glyph-name="icircumflex" unicode="&#xee;" horiz-adv-x="263" 
d="M176 507v-390c0 -77 7 -80 68 -88v-29h-223v30c60 8 67 12 67 88v234c0 66 -17 71 -64 72v24zM86 693c12 27 21 48 49 48c25 0 36 -16 50 -48l66 -145l-20 -13l-96 127l-96 -127l-17 13z" />
    <glyph glyph-name="idieresis" unicode="&#xef;" horiz-adv-x="263" 
d="M176 507v-390c0 -77 7 -80 68 -88v-29h-223v30c60 8 67 12 67 88v234c0 66 -17 71 -64 72v24zM-31 615c0 31 24 57 54 57c33 0 56 -26 56 -58c0 -30 -25 -54 -55 -54s-55 25 -55 55zM191 615c0 31 24 57 54 57c33 0 56 -26 56 -58c0 -30 -25 -54 -55 -54s-55 25 -55 55z
" />
    <glyph glyph-name="igrave" unicode="&#xec;" horiz-adv-x="263" 
d="M176 507v-390c0 -77 7 -80 68 -88v-29h-223v30c60 8 67 12 67 88v234c0 66 -17 71 -64 72v24zM61 738c0 17 18 25 34 25c34 0 40 -23 52 -58l47 -137l-17 -9l-41 59c-13 18 -75 96 -75 120z" />
    <glyph glyph-name="ntilde" unicode="&#xf1;" horiz-adv-x="553" 
d="M178 507v-85c40 43 102 78 157 78c37 0 71 -15 94 -38c25 -25 35 -64 35 -120v-225c0 -76 7 -81 67 -88v-29h-224v29c62 7 69 12 69 88v203c0 69 -14 127 -83 127c-38 0 -75 -26 -115 -66v-264c0 -76 7 -81 67 -88v-29h-223v29c61 8 68 11 68 88v228c0 73 -15 78 -65 79
v24zM86 578c14 33 50 94 101 94c46 0 124 -41 162 -41c24 0 37 21 49 41h29c-9 -31 -53 -94 -100 -94c-48 0 -114 39 -166 39c-22 0 -36 -20 -44 -39h-31z" />
    <glyph glyph-name="oacute" unicode="&#xf3;" horiz-adv-x="527" 
d="M37 236c0 130 86 264 227 264c139 0 222 -136 222 -263c0 -128 -95 -248 -228 -248c-128 0 -221 124 -221 247zM263 467c-97 0 -125 -126 -125 -209c0 -72 23 -236 120 -236c103 0 127 155 127 234c0 68 -21 211 -122 211zM278 679c14 40 19 64 54 64c16 0 34 -8 34 -25
c0 -20 -45 -81 -73 -117l-43 -62l-17 9z" />
    <glyph glyph-name="ocircumflex" unicode="&#xf4;" horiz-adv-x="527" 
d="M37 236c0 130 86 264 227 264c139 0 222 -136 222 -263c0 -128 -95 -248 -228 -248c-128 0 -221 124 -221 247zM263 467c-97 0 -125 -126 -125 -209c0 -72 23 -236 120 -236c103 0 127 155 127 234c0 68 -21 211 -122 211zM218 693c12 27 21 48 49 48c25 0 36 -16 50 -48
l66 -145l-20 -13l-96 127l-96 -127l-17 13z" />
    <glyph glyph-name="odieresis" unicode="&#xf6;" horiz-adv-x="527" 
d="M37 236c0 130 86 264 227 264c139 0 222 -136 222 -263c0 -128 -95 -248 -228 -248c-128 0 -221 124 -221 247zM263 467c-97 0 -125 -126 -125 -209c0 -72 23 -236 120 -236c103 0 127 155 127 234c0 68 -21 211 -122 211zM101 615c0 31 24 57 54 57c33 0 56 -26 56 -58
c0 -30 -25 -54 -55 -54s-55 25 -55 55zM323 615c0 31 24 57 54 57c33 0 56 -26 56 -58c0 -30 -25 -54 -55 -54s-55 25 -55 55z" />
    <glyph glyph-name="ograve" unicode="&#xf2;" horiz-adv-x="527" 
d="M37 236c0 130 86 264 227 264c139 0 222 -136 222 -263c0 -128 -95 -248 -228 -248c-128 0 -221 124 -221 247zM263 467c-97 0 -125 -126 -125 -209c0 -72 23 -236 120 -236c103 0 127 155 127 234c0 68 -21 211 -122 211zM173 738c0 17 18 25 34 25c34 0 40 -23 52 -58
l47 -137l-17 -9l-41 59c-13 18 -75 96 -75 120z" />
    <glyph glyph-name="otilde" unicode="&#xf5;" horiz-adv-x="527" 
d="M37 236c0 130 86 264 227 264c139 0 222 -136 222 -263c0 -128 -95 -248 -228 -248c-128 0 -221 124 -221 247zM263 467c-97 0 -125 -126 -125 -209c0 -72 23 -236 120 -236c103 0 127 155 127 234c0 68 -21 211 -122 211zM88 578c14 33 50 94 101 94
c46 0 124 -41 162 -41c24 0 37 21 49 41h29c-9 -31 -53 -94 -100 -94c-48 0 -114 39 -166 39c-22 0 -36 -20 -44 -39h-31z" />
    <glyph glyph-name="scaron" unicode="&#x161;" horiz-adv-x="448" 
d="M303 484c17 0 31 7 45 23l58 -163l-24 -13c-46 59 -107 136 -190 136c-39 0 -79 -27 -79 -68c0 -122 314 -76 314 -259c0 -86 -83 -151 -163 -151c-43 0 -77 23 -103 23c-21 0 -42 -10 -58 -23l-62 170l22 11c38 -63 132 -148 207 -148c46 0 88 35 88 82
c0 129 -311 73 -311 254c0 86 79 142 157 142c36 0 71 -16 99 -16zM114 728l17 13l96 -127l96 127l20 -13l-66 -145c-15 -33 -25 -48 -50 -48c-30 0 -38 23 -53 57z" />
    <glyph glyph-name="uacute" unicode="&#xfa;" horiz-adv-x="553" 
d="M167 507v-360c0 -64 30 -105 82 -105c48 0 86 38 120 71v239c-3 55 -5 72 -65 72v24l153 59v-390c0 -76 7 -81 69 -88v-29h-156v71c-56 -56 -108 -82 -158 -82c-47 0 -83 19 -103 45c-27 36 -30 83 -30 125v193c-3 55 -5 72 -65 72v24zM291 679c14 40 19 64 54 64
c16 0 34 -8 34 -25c0 -20 -45 -81 -73 -117l-43 -62l-17 9z" />
    <glyph glyph-name="ucircumflex" unicode="&#xfb;" horiz-adv-x="553" 
d="M167 507v-360c0 -64 30 -105 82 -105c48 0 86 38 120 71v239c-3 55 -5 72 -65 72v24l153 59v-390c0 -76 7 -81 69 -88v-29h-156v71c-56 -56 -108 -82 -158 -82c-47 0 -83 19 -103 45c-27 36 -30 83 -30 125v193c-3 55 -5 72 -65 72v24zM231 693c12 27 21 48 49 48
c25 0 36 -16 50 -48l66 -145l-20 -13l-96 127l-96 -127l-17 13z" />
    <glyph glyph-name="udieresis" unicode="&#xfc;" horiz-adv-x="553" 
d="M167 507v-360c0 -64 30 -105 82 -105c48 0 86 38 120 71v239c-3 55 -5 72 -65 72v24l153 59v-390c0 -76 7 -81 69 -88v-29h-156v71c-56 -56 -108 -82 -158 -82c-47 0 -83 19 -103 45c-27 36 -30 83 -30 125v193c-3 55 -5 72 -65 72v24zM114 615c0 31 24 57 54 57
c33 0 56 -26 56 -58c0 -30 -25 -54 -55 -54s-55 25 -55 55zM336 615c0 31 24 57 54 57c33 0 56 -26 56 -58c0 -30 -25 -54 -55 -54s-55 25 -55 55z" />
    <glyph glyph-name="ugrave" unicode="&#xf9;" horiz-adv-x="553" 
d="M167 507v-360c0 -64 30 -105 82 -105c48 0 86 38 120 71v239c-3 55 -5 72 -65 72v24l153 59v-390c0 -76 7 -81 69 -88v-29h-156v71c-56 -56 -108 -82 -158 -82c-47 0 -83 19 -103 45c-27 36 -30 83 -30 125v193c-3 55 -5 72 -65 72v24zM166 718c0 17 18 25 34 25
c34 0 40 -23 52 -58l47 -137l-17 -9l-41 59c-13 18 -75 96 -75 120z" />
    <glyph glyph-name="yacute" unicode="&#xfd;" 
d="M-14 489h226v-29c-25 0 -60 -2 -60 -29c0 -18 9 -37 22 -72l88 -234l85 218c11 29 21 58 21 75c0 39 -46 42 -74 42v29h213v-29c-38 -1 -49 -8 -65 -27c-18 -22 -28 -48 -49 -100l-143 -356c-25 -61 -55 -164 -155 -164c-38 0 -78 25 -78 66c0 31 25 51 53 51
c39 0 49 -39 75 -39c41 0 58 87 72 117l-134 338c-30 76 -38 113 -97 114v29zM265 679c14 40 19 64 54 64c16 0 34 -8 34 -25c0 -20 -45 -81 -73 -117l-43 -62l-17 9z" />
    <glyph glyph-name="ydieresis" unicode="&#xff;" 
d="M-14 489h226v-29c-25 0 -60 -2 -60 -29c0 -18 9 -37 22 -72l88 -234l85 218c11 29 21 58 21 75c0 39 -46 42 -74 42v29h213v-29c-38 -1 -49 -8 -65 -27c-18 -22 -28 -48 -49 -100l-143 -356c-25 -61 -55 -164 -155 -164c-38 0 -78 25 -78 66c0 31 25 51 53 51
c39 0 49 -39 75 -39c41 0 58 87 72 117l-134 338c-30 76 -38 113 -97 114v29zM87 615c0 31 24 57 54 57c33 0 56 -26 56 -58c0 -30 -25 -54 -55 -54s-55 25 -55 55zM309 615c0 31 24 57 54 57c33 0 56 -26 56 -58c0 -30 -25 -54 -55 -54s-55 25 -55 55z" />
    <glyph glyph-name="zcaron" unicode="&#x17e;" horiz-adv-x="448" 
d="M103 489h349l-324 -460c25 0 47 0 69 1c84 5 152 31 211 148l31 -13l-58 -165h-377l325 460h-38c-91 0 -163 -26 -219 -137l-27 14zM114 728l17 13l96 -127l96 127l20 -13l-66 -145c-15 -33 -25 -48 -50 -48c-30 0 -38 23 -53 57z" />
    <glyph glyph-name="Delta" unicode="&#x2206;" horiz-adv-x="584" 
d="M270 709l35 10l246 -694v-25h-519v25zM263 579l-180 -532h364z" />
    <glyph glyph-name="Omega" unicode="&#x2126;" horiz-adv-x="654" 
d="M62 398c0 197 117 322 266 322c152 0 262 -120 262 -315c0 -143 -83 -252 -159 -337h102c38 0 47 16 64 75l26 -1l-22 -142h-214l-6 17c40 93 114 233 114 376c0 206 -77 296 -169 296c-97 0 -168 -82 -168 -297c0 -137 60 -262 113 -375l-8 -17h-212l-21 142l25 1
c17 -55 29 -75 67 -75h96c-104 103 -156 209 -156 330z" />
    <glyph glyph-name="pi" unicode="&#x3c0;" horiz-adv-x="525" 
d="M414 446c31 0 44 1 60 32l24 -8c-6 -31 -18 -65 -32 -88c-15 -4 -43 -4 -64 -4c-4 -51 -5 -126 -5 -218c0 -64 4 -114 41 -114c21 0 32 12 47 30l13 -20c-21 -41 -58 -69 -97 -69c-72 0 -85 66 -85 135c0 84 5 168 10 258c-47 1 -93 2 -140 2v-14
c0 -209 -36 -323 -62 -363c-17 -8 -42 -16 -59 -18l-6 18c71 94 89 268 89 379c-60 0 -82 -14 -120 -44l-14 22c45 60 86 87 163 87c79 0 158 -3 237 -3z" />
    <glyph glyph-name="Euro" unicode="&#x20ac;" 
d="M81 428c16 197 77 297 226 297c54 0 115 -11 150 -56l4 -81h-20c-8 63 -50 95 -115 95c-99 0 -140 -89 -151 -255h239l-14 -37h-226c-1 -11 -1 -17 -1 -67h202l-14 -37h-187c9 -164 58 -257 153 -257c62 0 105 32 114 95h20l-4 -78c-23 -30 -62 -57 -150 -57
c-145 0 -212 106 -224 297h-65l13 37h48c-1 10 -1 23 -1 35c0 9 0 21 1 32h-61l13 37h50z" />
    <glyph glyph-name="estimated" unicode="&#x212e;" horiz-adv-x="886" 
d="M34 356c0 203 183 367 408 367c224 0 409 -162 409 -368v-9h-662c-3 0 -5 -2 -5 -3v-198c0 -18 6 -23 20 -37c39 -38 123 -98 239 -98c103 0 197 46 263 122h59c-73 -86 -192 -142 -323 -142c-225 0 -408 164 -408 366zM184 570v-198c0 -3 3 -6 5 -6h508c3 1 4 5 4 6v200
c0 14 -6 22 -18 33c-42 38 -122 97 -241 97c-109 0 -191 -55 -232 -93c-12 -11 -26 -21 -26 -39z" />
    <glyph glyph-name="partialdiff" unicode="&#x2202;" horiz-adv-x="489" 
d="M76 746c35 25 79 41 127 41c162 0 238 -196 238 -385c0 -79 -13 -173 -40 -245c-37 -98 -103 -166 -193 -166c-100 0 -168 74 -168 201c0 60 21 126 56 170c37 47 95 75 148 75c47 0 92 -22 121 -66c4 29 9 97 9 130c0 57 -10 103 -23 138c-8 22 -19 40 -32 54
c-26 30 -59 45 -92 45c-45 0 -88 -22 -124 -53c-14 0 -29 28 -29 49c0 6 1 8 2 12zM262 398c-48 0 -81 -31 -100 -66c-32 -59 -40 -141 -40 -187c0 -70 33 -124 85 -124c55 0 102 74 131 190c9 35 15 86 19 117c-17 37 -53 70 -95 70z" />
    <glyph glyph-name="product" unicode="&#x220f;" horiz-adv-x="633" 
d="M24 709h583v-26c-74 -6 -85 -12 -85 -66v-606c0 -63 13 -69 83 -75v-26h-241v26c65 6 75 8 75 73v639c0 23 -7 28 -30 28h-188c-21 0 -28 -4 -28 -26v-650c0 -51 8 -58 69 -64v-26h-235v26c69 6 83 11 83 75v606c0 55 -12 60 -86 66v26z" />
    <glyph glyph-name="summation" unicode="&#x2211;" horiz-adv-x="510" 
d="M31 709h417l11 -157l-27 -5c-9 55 -18 73 -27 92c-16 36 -42 38 -109 38h-161l175 -333l-211 -361h240c75 0 87 13 122 114l27 -7l-41 -183h-420v24l210 353l-206 401v24z" />
    <glyph glyph-name="uni2219" unicode="&#x2219;" horiz-adv-x="250" 
d="M62 272c0 35 27 64 62 64c36 0 64 -29 64 -65c0 -33 -30 -61 -64 -61c-33 0 -62 28 -62 62z" />
    <glyph glyph-name="radical" unicode="&#x221a;" horiz-adv-x="517" 
d="M333 16l129 899l38 -9l-157 -1061l-20 -10l-201 558l-81 -37l-11 32l149 67l152 -439h2z" />
    <glyph glyph-name="infinity" unicode="&#x221e;" horiz-adv-x="720" 
d="M45 290c0 89 63 153 149 153c69 0 120 -46 170 -107c44 50 91 107 171 107c79 0 139 -58 139 -149c0 -97 -71 -154 -145 -154c-57 0 -105 31 -168 108c-48 -56 -98 -108 -174 -108s-142 63 -142 150zM188 391c-52 0 -88 -42 -88 -102c0 -53 38 -96 94 -96
c55 0 95 47 137 95c-43 55 -80 103 -143 103zM528 391c-58 0 -105 -63 -137 -98c59 -69 91 -100 140 -100c56 0 88 51 88 97c0 57 -32 101 -91 101z" />
    <glyph glyph-name="integral" unicode="&#x222b;" horiz-adv-x="360" 
d="M132 514c0 170 28 343 152 343c27 0 59 -16 59 -47c0 -28 -22 -43 -44 -43c-32 0 -28 45 -50 45c-39 0 -41 -96 -41 -121c0 -15 0 -31 1 -47l18 -382c2 -40 2 -68 2 -97c0 -168 -24 -361 -153 -361c-32 0 -59 19 -59 48c0 30 26 46 50 46c28 0 28 -48 49 -48
c24 0 39 46 39 125c0 10 -1 25 -1 35l-20 423c-1 29 -2 58 -2 81z" />
    <glyph glyph-name="approxequal" unicode="&#x2248;" horiz-adv-x="497" 
d="M342 364c36 0 58 29 81 70l36 -30c-24 -52 -64 -94 -120 -94c-77 0 -120 69 -181 69c-42 0 -65 -34 -85 -69l-37 29c25 54 71 94 128 94c75 0 119 -69 178 -69zM342 201c36 0 57 28 81 70l36 -30c-23 -49 -62 -94 -119 -94c-78 0 -121 69 -182 69c-40 0 -63 -32 -85 -70
l-37 30c25 54 72 94 128 94c76 0 120 -69 178 -69z" />
    <glyph glyph-name="notequal" unicode="&#x2260;" horiz-adv-x="497" 
d="M270 409l45 104l44 -18l-38 -86h130v-56h-150l-57 -131h207v-55h-228l-46 -105l-43 18l38 87h-127v55h148l56 131h-204v56h225z" />
    <glyph glyph-name="lessequal" unicode="&#x2264;" horiz-adv-x="497" 
d="M449 591v-66l-343 -174v-2l343 -175v-67l-399 213v59zM46 69h406v-57h-406v57z" />
    <glyph glyph-name="greaterequal" unicode="&#x2265;" horiz-adv-x="497" 
d="M51 525v66l399 -212v-59l-399 -213v67l343 174v3zM46 69h406v-57h-406v57z" />
    <glyph glyph-name="lozenge" unicode="&#x25ca;" horiz-adv-x="522" 
d="M228 756h67l178 -410l1 -3l-180 -409h-68l-179 410zM263 695h-3l-151 -350l151 -351h3l149 350z" />
    <glyph glyph-name="uni02C9" unicode="&#x2c9;" horiz-adv-x="474" 
d="M74 664h320v-68h-320v68z" />
    <glyph glyph-name="uni00AD" unicode="&#xad;" horiz-adv-x="237" 
d="M0 293h225v-73h-225v73z" />
    <glyph glyph-name="uni03A9" unicode="&#x3a9;" horiz-adv-x="654" 
d="M62 398c0 197 117 322 266 322c152 0 262 -120 262 -315c0 -143 -83 -252 -159 -337h102c38 0 47 16 64 75l26 -1l-22 -142h-214l-6 17c40 93 114 233 114 376c0 206 -77 296 -169 296c-97 0 -168 -82 -168 -297c0 -137 60 -262 113 -375l-8 -17h-212l-21 142l25 1
c17 -55 29 -75 67 -75h96c-104 103 -156 209 -156 330z" />
    <glyph glyph-name="uni00A0" unicode="&#xa0;" horiz-adv-x="250" 
 />
    <glyph glyph-name="afii61289" unicode="&#x2113;" horiz-adv-x="386" 
d="M87 450l1 54c1 31 2 127 32 178c26 44 57 74 99 74c56 0 85 -57 85 -134c0 -122 -60 -217 -135 -301v-108c0 -124 26 -166 81 -166c41 0 72 27 100 69l20 -16c-36 -72 -89 -109 -155 -109c-115 0 -127 90 -127 179v97l-54 -43l-12 24l65 56v146zM169 509v-141
c50 64 87 164 87 254c0 52 -10 104 -42 104c-37 0 -45 -76 -45 -217z" />
    <glyph glyph-name="uni03BC" unicode="&#x3bc;" horiz-adv-x="553" 
d="M167 507v-360c0 -64 30 -105 82 -105c48 0 86 38 120 71v239c-3 55 -5 72 -65 72v24l153 59v-390c0 -76 7 -81 69 -88v-29h-157v71c-40 -41 -87 -82 -145 -82c-13 0 -38 1 -47 8v-9c0 -52 15 -100 15 -125c0 -37 -21 -59 -53 -59s-55 23 -55 59c0 14 11 96 16 189
c-11 15 -21 44 -21 122v178c-3 55 -5 72 -65 72v24z" />
    <glyph glyph-name="uni2215" unicode="&#x2215;" horiz-adv-x="90" 
d="M-138 0l380 725h42l-379 -725h-43z" />
    </font>
</defs>
</svg>
